<svg width="1010" height="537" viewBox="0 0 1010 537" fill="none" xmlns="http://www.w3.org/2000/svg">
<path fill-rule="evenodd" clip-rule="evenodd" d="M630 511L957 27L956.171 26.4402L629.171 510.44L630 511Z" fill="black"/>
<path d="M760 125C760 194.036 815.964 250 885 250C954.036 250 1010 194.036 1010 125C1010 55.9644 954.036 0 885 0C815.964 0 760 55.9644 760 125Z" fill="white"/>
<path fill-rule="evenodd" clip-rule="evenodd" d="M885 249C816.517 249 761 193.483 761 125C761 56.5167 816.517 1 885 1C953.483 1 1009 56.5167 1009 125C1009 193.483 953.483 249 885 249ZM885 250C815.964 250 760 194.036 760 125C760 55.9644 815.964 0 885 0C954.036 0 1010 55.9644 1010 125C1010 194.036 954.036 250 885 250Z" fill="#212121"/>
<path fill-rule="evenodd" clip-rule="evenodd" d="M760 511L433 27L433.829 26.4402L760.829 510.44L760 511Z" fill="black"/>
<path d="M820 412C820 481.036 764.036 537 695 537C625.964 537 570 481.036 570 412C570 342.964 625.964 287 695 287C764.036 287 820 342.964 820 412Z" fill="white"/>
<path fill-rule="evenodd" clip-rule="evenodd" d="M695 536C763.483 536 819 480.483 819 412C819 343.517 763.483 288 695 288C626.517 288 571 343.517 571 412C571 480.483 626.517 536 695 536ZM695 537C764.036 537 820 481.036 820 412C820 342.964 764.036 287 695 287C625.964 287 570 342.964 570 412C570 481.036 625.964 537 695 537Z" fill="#212121"/>
<path fill-rule="evenodd" clip-rule="evenodd" d="M250 511L577 27L576.171 26.4402L249.171 510.44L250 511Z" fill="black"/>
<path d="M380 125C380 194.036 435.964 250 505 250C574.036 250 630 194.036 630 125C630 55.9644 574.036 0 505 0C435.964 0 380 55.9644 380 125Z" fill="white"/>
<path fill-rule="evenodd" clip-rule="evenodd" d="M505 249C436.517 249 381 193.483 381 125C381 56.5167 436.517 1 505 1C573.483 1 629 56.5167 629 125C629 193.483 573.483 249 505 249ZM505 250C435.964 250 380 194.036 380 125C380 55.9644 435.964 0 505 0C574.036 0 630 55.9644 630 125C630 194.036 574.036 250 505 250Z" fill="#212121"/>
<path fill-rule="evenodd" clip-rule="evenodd" d="M380 511L53 27L53.8286 26.4402L380.829 510.44L380 511Z" fill="black"/>
<path d="M250 125C250 194.036 194.036 250 125 250C55.9644 250 0 194.036 0 125C0 55.9644 55.9644 0 125 0C194.036 0 250 55.9644 250 125Z" fill="white"/>
<path fill-rule="evenodd" clip-rule="evenodd" d="M125 249C193.483 249 249 193.483 249 125C249 56.5167 193.483 1 125 1C56.5167 1 1 56.5167 1 125C1 193.483 56.5167 249 125 249ZM125 250C194.036 250 250 194.036 250 125C250 55.9644 194.036 0 125 0C55.9644 0 0 55.9644 0 125C0 194.036 55.9644 250 125 250Z" fill="#212121"/>
<path d="M440 412C440 481.036 384.036 537 315 537C245.964 537 190 481.036 190 412C190 342.964 245.964 287 315 287C384.036 287 440 342.964 440 412Z" fill="white"/>
<path fill-rule="evenodd" clip-rule="evenodd" d="M315 536C383.483 536 439 480.483 439 412C439 343.517 383.483 288 315 288C246.517 288 191 343.517 191 412C191 480.483 246.517 536 315 536ZM315 537C384.036 537 440 481.036 440 412C440 342.964 384.036 287 315 287C245.964 287 190 342.964 190 412C190 481.036 245.964 537 315 537Z" fill="#212121"/>
</svg>
