<svg width="1920" height="1080" viewBox="0 0 1920 1080" fill="none" xmlns="http://www.w3.org/2000/svg">
<rect width="1920" height="1080" fill="#F4F5F9"/>
<path d="M155.46 220V175.6H164.34V212.56H182.4V220H155.46ZM205.237 220.84C196.777 220.84 189.097 214.36 189.097 203.26C189.097 192.1 196.777 185.62 205.237 185.62C213.637 185.62 221.317 192.1 221.317 203.26C221.317 214.36 213.637 220.84 205.237 220.84ZM205.237 213.7C209.797 213.7 212.317 209.56 212.317 203.26C212.317 196.9 209.797 192.82 205.237 192.82C200.617 192.82 198.097 196.9 198.097 203.26C198.097 209.56 200.617 213.7 205.237 213.7ZM243.516 234.58C235.656 234.58 229.536 231.88 229.536 226C229.536 223.18 231.216 220.72 234.336 219.04V218.74C232.596 217.6 231.276 215.8 231.276 213.04C231.276 210.52 232.956 208.24 235.056 206.8V206.56C232.716 204.88 230.496 201.7 230.496 197.74C230.496 189.82 236.976 185.62 244.056 185.62C245.976 185.62 247.776 185.92 249.156 186.46H261.276V192.94H255.516C256.416 194.08 257.076 195.94 257.076 197.98C257.076 205.6 251.316 209.38 244.056 209.38C242.736 209.38 241.236 209.14 239.736 208.6C238.836 209.44 238.296 210.16 238.296 211.54C238.296 213.28 239.676 214.3 243.576 214.3H249.336C257.436 214.3 261.876 216.76 261.876 222.7C261.876 229.48 254.736 234.58 243.516 234.58ZM244.056 203.98C246.996 203.98 249.336 201.7 249.336 197.74C249.336 193.78 247.056 191.62 244.056 191.62C241.116 191.62 238.776 193.78 238.776 197.74C238.776 201.7 241.116 203.98 244.056 203.98ZM244.896 229C249.936 229 253.356 226.78 253.356 224.2C253.356 221.8 251.376 221.14 247.776 221.14H243.696C241.656 221.14 240.276 221.02 239.076 220.66C237.516 221.92 236.856 223.24 236.856 224.62C236.856 227.44 239.976 229 244.896 229ZM283.132 220.84C274.672 220.84 266.992 214.36 266.992 203.26C266.992 192.1 274.672 185.62 283.132 185.62C291.532 185.62 299.212 192.1 299.212 203.26C299.212 214.36 291.532 220.84 283.132 220.84ZM283.132 213.7C287.692 213.7 290.212 209.56 290.212 203.26C290.212 196.9 287.692 192.82 283.132 192.82C278.512 192.82 275.992 196.9 275.992 203.26C275.992 209.56 278.512 213.7 283.132 213.7ZM326.964 220V175.6H336.744L344.304 196.42C345.324 199.18 346.104 202.06 347.064 204.94H347.304C348.324 202.06 349.104 199.18 350.004 196.42L357.384 175.6H367.224V220H359.124V201.46C359.124 197.26 359.844 191.08 360.324 186.88H360.024L356.364 197.32L349.524 216.04H344.424L337.584 197.32L333.984 186.88H333.744C334.224 191.08 334.884 197.26 334.884 201.46V220H326.964ZM388.616 220.84C382.616 220.84 378.716 216.64 378.716 210.88C378.716 203.74 384.536 199.96 398.036 198.46C397.856 195.16 396.476 192.7 392.336 192.7C389.216 192.7 386.156 194.02 383.096 195.88L379.916 190C383.876 187.6 388.616 185.62 393.956 185.62C402.476 185.62 406.856 190.66 406.856 200.44V220H399.656L398.996 216.46H398.756C395.816 218.98 392.456 220.84 388.616 220.84ZM391.496 213.94C394.016 213.94 395.876 212.8 398.036 210.7V203.92C389.816 204.94 387.116 207.16 387.116 210.22C387.116 212.8 388.916 213.94 391.496 213.94ZM418.845 220V186.46H425.985L426.705 192.4H426.885C429.285 187.96 432.945 185.62 436.425 185.62C438.225 185.62 439.305 185.86 440.325 186.34L438.825 193.9C437.625 193.6 436.725 193.36 435.285 193.36C432.705 193.36 429.525 195.16 427.665 200.02V220H418.845ZM448.037 220V172.18H456.677V200.86H456.977L468.377 186.46H478.097L466.577 200.26L479.117 220H469.577L461.417 206.08L456.677 211.54V220H448.037ZM515.362 220.84C506.122 220.84 500.902 215.14 500.902 208.24C500.902 194.14 521.542 193.42 521.542 184.54C521.542 182.32 520.462 180.64 518.182 180.64C515.602 180.64 513.742 182.8 513.742 186.04C513.742 193.42 523.222 203.44 532.162 209.14C535.762 211.48 539.302 213.1 542.242 213.7L540.082 220.84C535.882 220 531.322 217.84 526.822 214.84C516.082 207.34 506.422 195.1 506.422 186.04C506.422 179.86 510.982 174.82 518.002 174.82C524.362 174.82 528.322 178.66 528.322 184.48C528.322 196.18 509.302 199.18 509.302 207.7C509.302 211.54 512.242 214.06 516.442 214.06C519.742 214.06 523.042 212.26 525.982 209.38C529.462 205.78 532.282 201.04 533.842 195.22H541.882C539.902 201.94 536.722 208 531.982 213.34C527.962 217.84 522.442 220.84 515.362 220.84ZM586.209 220.84C574.389 220.84 566.349 212.08 566.349 197.62C566.349 183.16 574.389 174.82 586.209 174.82C597.969 174.82 606.009 183.22 606.009 197.62C606.009 212.08 597.969 220.84 586.209 220.84ZM586.209 213.16C592.809 213.16 597.009 207.1 597.009 197.62C597.009 188.14 592.809 182.44 586.209 182.44C579.549 182.44 575.409 188.14 575.409 197.62C575.409 207.1 579.549 213.16 586.209 213.16ZM617.021 220V186.46H624.161L624.881 192.4H625.061C627.461 187.96 631.121 185.62 634.601 185.62C636.401 185.62 637.481 185.86 638.501 186.34L637.001 193.9C635.801 193.6 634.901 193.36 633.461 193.36C630.881 193.36 627.701 195.16 625.841 200.02V220H617.021ZM646.213 220V186.46H655.033V220H646.213ZM650.593 181C647.533 181 645.493 179.08 645.493 176.14C645.493 173.26 647.533 171.4 650.593 171.4C653.653 171.4 655.753 173.26 655.753 176.14C655.753 179.08 653.653 181 650.593 181ZM679.195 234.58C671.335 234.58 665.215 231.88 665.215 226C665.215 223.18 666.895 220.72 670.015 219.04V218.74C668.275 217.6 666.955 215.8 666.955 213.04C666.955 210.52 668.635 208.24 670.735 206.8V206.56C668.395 204.88 666.175 201.7 666.175 197.74C666.175 189.82 672.655 185.62 679.735 185.62C681.655 185.62 683.455 185.92 684.835 186.46H696.955V192.94H691.195C692.095 194.08 692.755 195.94 692.755 197.98C692.755 205.6 686.995 209.38 679.735 209.38C678.415 209.38 676.915 209.14 675.415 208.6C674.515 209.44 673.975 210.16 673.975 211.54C673.975 213.28 675.355 214.3 679.255 214.3H685.015C693.115 214.3 697.555 216.76 697.555 222.7C697.555 229.48 690.415 234.58 679.195 234.58ZM679.735 203.98C682.675 203.98 685.015 201.7 685.015 197.74C685.015 193.78 682.735 191.62 679.735 191.62C676.795 191.62 674.455 193.78 674.455 197.74C674.455 201.7 676.795 203.98 679.735 203.98ZM680.575 229C685.615 229 689.035 226.78 689.035 224.2C689.035 221.8 687.055 221.14 683.455 221.14H679.375C677.335 221.14 675.955 221.02 674.755 220.66C673.195 221.92 672.535 223.24 672.535 224.62C672.535 227.44 675.655 229 680.575 229ZM706.236 220V186.46H715.056V220H706.236ZM710.616 181C707.556 181 705.516 179.08 705.516 176.14C705.516 173.26 707.556 171.4 710.616 171.4C713.676 171.4 715.776 173.26 715.776 176.14C715.776 179.08 713.676 181 710.616 181ZM727.459 220V186.46H734.599L735.319 190.9H735.499C738.379 188.02 741.859 185.62 746.419 185.62C753.619 185.62 756.799 190.66 756.799 199.06V220H747.979V200.2C747.979 194.92 746.479 193.18 743.239 193.18C740.479 193.18 738.739 194.5 736.279 196.9V220H727.459Z" fill="#081F5C"/>
<path d="M168.72 430.84C162.72 430.84 156.84 428.56 152.52 424.42L157.62 418.3C160.74 421.24 165 423.16 168.9 423.16C173.52 423.16 175.92 421.18 175.92 418.12C175.92 414.82 173.22 413.74 169.26 412.06L163.32 409.54C158.88 407.74 154.32 404.08 154.32 397.66C154.32 390.4 160.74 384.82 169.68 384.82C174.84 384.82 180 386.86 183.6 390.52L179.16 396.1C176.28 393.76 173.34 392.44 169.68 392.44C165.78 392.44 163.32 394.18 163.32 397.06C163.32 400.24 166.5 401.44 170.28 402.94L176.1 405.34C181.44 407.56 184.98 411.04 184.98 417.4C184.98 424.66 178.92 430.84 168.72 430.84ZM195.901 430V385.6H204.781V422.56H222.841V430H195.901ZM232.869 430V396.46H241.689V430H232.869ZM237.249 391C234.189 391 232.149 389.08 232.149 386.14C232.149 383.26 234.189 381.4 237.249 381.4C240.309 381.4 242.409 383.26 242.409 386.14C242.409 389.08 240.309 391 237.249 391ZM254.092 430V396.46H261.232L261.952 400.9H262.132C265.012 398.02 268.492 395.62 273.052 395.62C280.252 395.62 283.432 400.66 283.432 409.06V430H274.612V410.2C274.612 404.92 273.112 403.18 269.872 403.18C267.112 403.18 265.372 404.5 262.912 406.9V430H254.092ZM295.529 430V382.18H304.169V410.86H304.469L315.869 396.46H325.589L314.069 410.26L326.609 430H317.069L308.909 416.08L304.169 421.54V430H295.529Z" fill="#081F5C"/>
<path d="M296.087 829.277C251.661 785.309 227.198 726.904 227.198 664.812C227.198 602.719 251.67 544.315 296.087 500.356L311.109 515.223C227.758 597.713 227.758 731.93 311.109 814.42L296.087 829.286V829.277Z" fill="url(#paint0_linear_66_2963)"/>
<path d="M339.555 829.286L324.534 814.42C407.885 731.93 407.885 597.713 324.534 515.223L339.555 500.356C383.982 544.325 408.445 602.729 408.445 664.821C408.445 726.914 383.982 785.318 339.555 829.286Z" fill="url(#paint1_linear_66_2963)"/>
<path d="M478.93 658.109H163.426V678.247H478.93V658.109Z" fill="url(#paint2_linear_66_2963)"/>
<path d="M327.891 510.426H307.752V825.93H327.891V510.426Z" fill="url(#paint3_linear_66_2963)"/>
<path d="M462.148 728.594H180.208V752.089H462.148V728.594Z" fill="url(#paint4_linear_66_2963)"/>
<path d="M458.791 580.911H176.851V601.049H458.791V580.911Z" fill="url(#paint5_linear_66_2963)"/>
<path d="M321.178 835.999C275.422 835.999 232.428 818.199 200.109 785.89C167.791 753.581 150 710.577 150 664.821H171.237C171.237 747.5 238.499 814.763 321.178 814.763V835.999Z" fill="#002256"/>
<path d="M317.821 835.999V814.763C400.5 814.763 467.763 747.5 467.763 664.821H488.999C488.999 710.577 471.199 753.572 438.89 785.89C406.581 818.209 363.577 835.999 317.821 835.999Z" fill="#002256"/>
<path d="M171.237 664.821H150C150 619.963 167.8 577.811 200.109 546.127C232.418 514.442 275.413 497 321.178 497V517.82C238.499 517.82 171.237 583.764 171.237 664.821Z" fill="url(#paint6_linear_66_2963)"/>
<path d="M488.999 664.821H467.763C467.763 583.764 400.5 517.82 317.821 517.82V497C363.577 497 406.572 514.451 438.89 546.127C471.209 577.802 488.999 619.963 488.999 664.821Z" fill="url(#paint7_linear_66_2963)"/>
<path d="M640.039 835.999L640.039 814.763C721.096 814.763 787.04 747.5 787.04 664.821L807.86 664.821C807.86 710.577 790.409 753.572 758.733 785.89C727.058 818.209 684.897 835.999 640.039 835.999Z" fill="url(#paint8_linear_66_2963)"/>
<path d="M489.237 664.821H468C468 619.963 485.8 577.811 518.109 546.127C550.418 514.442 593.413 497 639.178 497V517.82C556.499 517.82 489.237 583.764 489.237 664.821Z" fill="#002256"/>
<path d="M807.86 664.821H786.623C786.623 583.764 719.361 517.82 636.682 517.82V497C682.438 497 725.432 514.451 757.751 546.127C790.069 577.802 807.86 619.963 807.86 664.821Z" fill="#002256"/>
<path d="M688.23 697.169V626.786H700.946V668.998H701.388L718.167 647.804H732.473L715.517 668.115L733.974 697.169H719.933L707.923 676.681L700.946 684.717V697.169H688.23Z" fill="#081F5C"/>
<path d="M629.89 697.169V647.804H640.398L641.458 654.338H641.723C645.962 650.1 651.084 646.567 657.795 646.567C668.393 646.567 673.073 653.985 673.073 666.349V697.169H660.092V668.026C660.092 660.255 657.884 657.694 653.115 657.694C649.053 657.694 646.492 659.637 642.871 663.169V697.169H629.89Z" fill="#081F5C"/>
<path d="M601.303 697.169V647.804H614.285V697.169H601.303ZM607.75 639.767C603.246 639.767 600.243 636.941 600.243 632.614C600.243 628.375 603.246 625.638 607.75 625.638C612.254 625.638 615.344 628.375 615.344 632.614C615.344 636.941 612.254 639.767 607.75 639.767Z" fill="#081F5C"/>
<path d="M549.542 697.169V631.819H562.612V686.218H589.193V697.169H549.542Z" fill="#081F5C"/>
<g clip-path="url(#clip0_66_2963)">
<path d="M1102.5 722C1102.5 725.469 1102.31 728.812 1101.98 732H1073.02C1072.67 728.812 1072.5 725.469 1072.5 722C1072.5 718.531 1072.69 715.188 1073.02 712H1101.98C1102.33 715.188 1102.5 718.531 1102.5 722ZM1107 712H1126.23C1127.06 715.203 1127.5 718.547 1127.5 722C1127.5 725.453 1127.06 728.797 1126.23 732H1107C1107.33 728.781 1107.5 725.438 1107.5 722C1107.5 718.562 1107.33 715.219 1107 712ZM1124.59 707H1106.36C1104.8 697.016 1101.7 688.656 1097.72 683.312C1109.95 686.547 1119.91 695.422 1124.58 707H1124.59ZM1101.3 707H1073.7C1074.66 701.312 1076.12 696.281 1077.92 692.203C1079.56 688.516 1081.39 685.844 1083.16 684.156C1084.91 682.5 1086.36 682 1087.5 682C1088.64 682 1090.09 682.5 1091.84 684.156C1093.61 685.844 1095.44 688.516 1097.08 692.203C1098.89 696.266 1100.34 701.297 1101.3 707ZM1068.64 707H1050.41C1055.09 695.422 1065.03 686.547 1077.28 683.312C1073.3 688.656 1070.2 697.016 1068.64 707ZM1048.77 712H1068C1067.67 715.219 1067.5 718.562 1067.5 722C1067.5 725.438 1067.67 728.781 1068 732H1048.77C1047.94 728.797 1047.5 725.453 1047.5 722C1047.5 718.547 1047.94 715.203 1048.77 712ZM1077.92 751.781C1076.11 747.719 1074.66 742.688 1073.7 737H1101.3C1100.34 742.688 1098.88 747.719 1097.08 751.781C1095.44 755.469 1093.61 758.141 1091.84 759.828C1090.09 761.5 1088.64 762 1087.5 762C1086.36 762 1084.91 761.5 1083.16 759.844C1081.39 758.156 1079.56 755.484 1077.92 751.797V751.781ZM1068.64 737C1070.2 746.984 1073.3 755.344 1077.28 760.688C1065.03 757.453 1055.09 748.578 1050.41 737H1068.64ZM1124.59 737C1119.91 748.578 1109.97 757.453 1097.73 760.688C1101.72 755.344 1104.8 746.984 1106.38 737H1124.59Z" fill="#081F5C"/>
</g>
<path d="M1032 833C1026.68 833 1023 830.92 1023 827.2C1023 825.36 1024.2 823.56 1026.2 822.28V822.12C1025.08 821.4 1024.24 820.24 1024.24 818.52C1024.24 816.72 1025.52 815.32 1026.68 814.52V814.36C1025.24 813.2 1023.8 811.12 1023.8 808.52C1023.8 803.72 1027.56 800.76 1031.96 800.76C1033.2 800.76 1034.28 801 1035.04 801.28H1042.6V804.12H1038.16C1039.2 805.12 1039.92 806.72 1039.92 808.6C1039.92 813.24 1036.4 816.12 1031.96 816.12C1030.92 816.12 1029.72 815.88 1028.72 815.4C1027.96 816.04 1027.32 816.8 1027.32 817.96C1027.32 819.36 1028.24 820.36 1031.16 820.36H1035.4C1040.44 820.36 1042.96 821.92 1042.96 825.52C1042.96 829.56 1038.68 833 1032 833ZM1031.96 813.68C1034.48 813.68 1036.6 811.64 1036.6 808.52C1036.6 805.32 1034.52 803.4 1031.96 803.4C1029.4 803.4 1027.32 805.28 1027.32 808.52C1027.32 811.64 1029.44 813.68 1031.96 813.68ZM1032.48 830.52C1036.68 830.52 1039.4 828.32 1039.4 826.08C1039.4 824.04 1037.84 823.36 1035 823.36H1031.24C1030.4 823.36 1029.4 823.28 1028.4 823C1026.84 824.12 1026.2 825.44 1026.2 826.68C1026.2 829.04 1028.56 830.52 1032.48 830.52ZM1053.1 823.56C1050.34 823.56 1049.26 821.8 1049.26 818.68V791.2H1052.9V818.92C1052.9 820.08 1053.38 820.52 1053.94 820.52C1054.1 820.52 1054.26 820.52 1054.7 820.44L1055.18 823.24C1054.66 823.4 1054.1 823.56 1053.1 823.56ZM1071.07 823.56C1065.71 823.56 1060.99 819.36 1060.99 812.2C1060.99 804.92 1065.71 800.76 1071.07 800.76C1076.39 800.76 1081.11 804.92 1081.11 812.2C1081.11 819.36 1076.39 823.56 1071.07 823.56ZM1071.07 820.52C1074.83 820.52 1077.35 817.16 1077.35 812.2C1077.35 807.16 1074.83 803.8 1071.07 803.8C1067.27 803.8 1064.75 807.16 1064.75 812.2C1064.75 817.16 1067.27 820.52 1071.07 820.52ZM1098.4 823.56C1096.4 823.56 1094.12 822.52 1092.24 820.76H1092.12L1091.76 823H1088.88V791.2H1092.52V799.88L1092.36 803.8C1094.36 802.08 1096.76 800.76 1099.2 800.76C1104.8 800.76 1107.84 805.12 1107.84 811.8C1107.84 819.24 1103.4 823.56 1098.4 823.56ZM1097.84 820.48C1101.4 820.48 1104.08 817.24 1104.08 811.88C1104.08 807.04 1102.44 803.8 1098.32 803.8C1096.48 803.8 1094.56 804.84 1092.52 806.8V818.24C1094.4 819.88 1096.4 820.48 1097.84 820.48ZM1119.87 823.56C1116.23 823.56 1113.51 821.28 1113.51 817.36C1113.51 812.64 1117.59 810.28 1126.83 809.24C1126.83 806.44 1125.95 803.76 1122.39 803.76C1119.83 803.76 1117.55 804.96 1115.87 806.12L1114.43 803.56C1116.43 802.28 1119.47 800.76 1122.95 800.76C1128.27 800.76 1130.51 804.28 1130.51 809.68V823H1127.51L1127.19 820.44H1127.03C1124.99 822.16 1122.55 823.56 1119.87 823.56ZM1120.87 820.6C1122.99 820.6 1124.75 819.6 1126.83 817.72V811.68C1119.51 812.52 1117.07 814.32 1117.07 817.12C1117.07 819.6 1118.75 820.6 1120.87 820.6ZM1143.25 823.56C1140.49 823.56 1139.41 821.8 1139.41 818.68V791.2H1143.05V818.92C1143.05 820.08 1143.53 820.52 1144.09 820.52C1144.25 820.52 1144.41 820.52 1144.85 820.44L1145.33 823.24C1144.81 823.4 1144.25 823.56 1143.25 823.56Z" fill="#081F5C"/>
<g clip-path="url(#clip1_66_2963)">
<path d="M1348 698C1350.65 698 1353.2 699.054 1355.07 700.929C1356.95 702.804 1358 705.348 1358 708C1358 710.652 1356.95 713.196 1355.07 715.071C1353.2 716.946 1350.65 718 1348 718C1345.35 718 1342.8 716.946 1340.93 715.071C1339.05 713.196 1338 710.652 1338 708C1338 705.348 1339.05 702.804 1340.93 700.929C1342.8 699.054 1345.35 698 1348 698ZM1394 698C1396.65 698 1399.2 699.054 1401.07 700.929C1402.95 702.804 1404 705.348 1404 708C1404 710.652 1402.95 713.196 1401.07 715.071C1399.2 716.946 1396.65 718 1394 718C1391.35 718 1388.8 716.946 1386.93 715.071C1385.05 713.196 1384 710.652 1384 708C1384 705.348 1385.05 702.804 1386.93 700.929C1388.8 699.054 1391.35 698 1394 698ZM1330 735.338C1330 727.975 1335.97 722 1343.34 722H1348.67C1350.66 722 1352.55 722.438 1354.25 723.212C1354.09 724.112 1354.01 725.05 1354.01 726C1354.01 730.775 1356.11 735.062 1359.42 738C1359.4 738 1359.38 738 1359.34 738H1332.66C1331.2 738 1330 736.8 1330 735.338ZM1380.66 738C1380.64 738 1380.61 738 1380.58 738C1383.9 735.062 1385.99 730.775 1385.99 726C1385.99 725.05 1385.9 724.125 1385.75 723.212C1387.45 722.425 1389.34 722 1391.33 722H1396.66C1404.03 722 1410 727.975 1410 735.338C1410 736.812 1408.8 738 1407.34 738H1380.66ZM1358 726C1358 722.817 1359.26 719.765 1361.51 717.515C1363.77 715.264 1366.82 714 1370 714C1373.18 714 1376.23 715.264 1378.49 717.515C1380.74 719.765 1382 722.817 1382 726C1382 729.183 1380.74 732.235 1378.49 734.485C1376.23 736.736 1373.18 738 1370 738C1366.82 738 1363.77 736.736 1361.51 734.485C1359.26 732.235 1358 729.183 1358 726ZM1346 758.662C1346 749.462 1353.46 742 1362.66 742H1377.34C1386.54 742 1394 749.462 1394 758.662C1394 760.5 1392.51 762 1390.66 762H1349.34C1347.5 762 1346 760.512 1346 758.662Z" fill="#081F5C"/>
</g>
<path d="M1308.24 823V797.8C1308.24 793.44 1310.28 790.64 1314.6 790.64C1315.92 790.64 1317.2 790.96 1318.2 791.36L1317.44 794.16C1316.6 793.8 1315.76 793.6 1314.96 793.6C1312.88 793.6 1311.88 795.04 1311.88 797.88V823H1308.24ZM1305.28 804.24V801.52L1308.44 801.28H1316.52V804.24H1305.28ZM1330.9 823.56C1325.1 823.56 1320.5 819.32 1320.5 812.2C1320.5 805.12 1325.26 800.76 1330.26 800.76C1335.78 800.76 1338.9 804.72 1338.9 810.96C1338.9 811.72 1338.86 812.48 1338.74 813.04H1324.1C1324.38 817.64 1327.18 820.64 1331.34 820.64C1333.42 820.64 1335.14 819.96 1336.74 818.88L1338.06 821.32C1336.14 822.56 1333.86 823.56 1330.9 823.56ZM1324.06 810.4H1335.7C1335.7 806.04 1333.74 803.68 1330.3 803.68C1327.26 803.68 1324.54 806.12 1324.06 810.4ZM1350.13 823.56C1347.37 823.56 1346.29 821.8 1346.29 818.68V791.2H1349.93V818.92C1349.93 820.08 1350.41 820.52 1350.97 820.52C1351.13 820.52 1351.29 820.52 1351.73 820.44L1352.21 823.24C1351.69 823.4 1351.13 823.56 1350.13 823.56ZM1363.5 823.56C1360.74 823.56 1359.66 821.8 1359.66 818.68V791.2H1363.3V818.92C1363.3 820.08 1363.78 820.52 1364.34 820.52C1364.5 820.52 1364.66 820.52 1365.1 820.44L1365.58 823.24C1365.06 823.4 1364.5 823.56 1363.5 823.56ZM1381.46 823.56C1376.1 823.56 1371.38 819.36 1371.38 812.2C1371.38 804.92 1376.1 800.76 1381.46 800.76C1386.78 800.76 1391.5 804.92 1391.5 812.2C1391.5 819.36 1386.78 823.56 1381.46 823.56ZM1381.46 820.52C1385.22 820.52 1387.74 817.16 1387.74 812.2C1387.74 807.16 1385.22 803.8 1381.46 803.8C1377.66 803.8 1375.14 807.16 1375.14 812.2C1375.14 817.16 1377.66 820.52 1381.46 820.52ZM1402.45 823L1396.37 801.28H1400.09L1403.37 813.88C1403.81 815.96 1404.21 817.88 1404.61 819.92H1404.81C1405.29 817.88 1405.73 815.92 1406.29 813.88L1409.65 801.28H1413.21L1416.65 813.88C1417.17 815.96 1417.65 817.88 1418.17 819.92H1418.33C1418.77 817.88 1419.17 815.96 1419.69 813.88L1422.85 801.28H1426.33L1420.49 823H1416.05L1412.89 811.32C1412.33 809.24 1411.93 807.28 1411.41 805.04H1411.21C1410.77 807.28 1410.33 809.28 1409.73 811.36L1406.69 823H1402.45Z" fill="#081F5C"/>
<g clip-path="url(#clip2_66_2963)">
<path d="M1659.64 679.571C1659.64 677.298 1658.74 675.118 1657.13 673.511C1655.52 671.903 1653.34 671 1651.07 671C1648.8 671 1646.62 671.903 1645.01 673.511C1643.4 675.118 1642.5 677.298 1642.5 679.571C1642.5 681.845 1643.4 684.025 1645.01 685.632C1646.62 687.24 1648.8 688.143 1651.07 688.143C1653.34 688.143 1655.52 687.24 1657.13 685.632C1658.74 684.025 1659.64 681.845 1659.64 679.571ZM1624.95 702.339C1626.71 700.571 1629.12 699.571 1631.64 699.571C1631.98 699.571 1632.32 699.589 1632.64 699.625L1627.07 716.357C1625.41 721.357 1627.38 726.857 1631.86 729.661L1647.25 739.286L1642.71 755.143C1641.84 758.179 1643.61 761.339 1646.64 762.214C1649.68 763.089 1652.84 761.321 1653.71 758.286L1658.84 740.357C1659.89 736.679 1658.38 732.75 1655.14 730.732L1645 724.393L1650.52 709.679L1651.43 711.875C1654.11 718.268 1660.34 722.429 1667.27 722.429H1671.07C1674.23 722.429 1676.79 719.875 1676.79 716.714C1676.79 713.554 1674.23 711 1671.07 711H1667.27C1664.96 711 1662.88 709.607 1662 707.482L1660.88 704.804C1658.27 698.536 1653 693.75 1646.5 691.75L1637.8 689.071C1635.82 688.464 1633.75 688.143 1631.66 688.143C1626.13 688.143 1620.8 690.339 1616.89 694.268L1612.75 698.393C1610.52 700.625 1610.52 704.25 1612.75 706.482C1614.98 708.714 1618.61 708.714 1620.84 706.482L1624.96 702.357L1624.95 702.339ZM1618.79 733.857H1608.21C1605.05 733.857 1602.5 736.411 1602.5 739.571C1602.5 742.732 1605.05 745.286 1608.21 745.286H1620.64C1624.04 745.286 1627.11 743.286 1628.48 740.196L1630.54 735.571L1628.84 734.5C1625.71 732.554 1623.39 729.714 1622.07 726.482L1618.79 733.857Z" fill="#081F5C"/>
</g>
<path d="M1595.36 823.989C1592.28 823.989 1589.28 822.669 1587.24 820.989L1589.04 818.549C1590.92 820.069 1592.84 821.149 1595.44 821.149C1598.32 821.149 1599.76 819.629 1599.76 817.709C1599.76 815.509 1597.16 814.509 1594.76 813.629C1591.76 812.469 1588.44 811.029 1588.44 807.309C1588.44 803.869 1591.2 801.189 1595.92 801.189C1598.6 801.189 1601 802.269 1602.68 803.629L1600.92 805.949C1599.44 804.869 1597.88 804.029 1595.96 804.029C1593.2 804.029 1591.96 805.469 1591.96 807.149C1591.96 809.229 1594.16 810.029 1596.64 810.909C1599.8 812.109 1603.24 813.389 1603.24 817.509C1603.24 821.069 1600.48 823.989 1595.36 823.989ZM1610.39 832.589V801.709H1613.35L1613.71 804.229H1613.83C1615.79 802.589 1618.19 801.189 1620.71 801.189C1626.35 801.189 1629.35 805.549 1629.35 812.269C1629.35 819.669 1624.91 823.989 1619.91 823.989C1617.95 823.989 1615.91 823.069 1613.95 821.469L1614.03 825.269V832.589H1610.39ZM1619.35 820.909C1622.91 820.909 1625.59 817.669 1625.59 812.309C1625.59 807.469 1623.95 804.229 1619.83 804.229C1617.99 804.229 1616.15 805.269 1614.03 807.229V818.669C1615.99 820.309 1617.91 820.909 1619.35 820.909ZM1645.64 823.989C1640.28 823.989 1635.56 819.789 1635.56 812.629C1635.56 805.349 1640.28 801.189 1645.64 801.189C1650.96 801.189 1655.68 805.349 1655.68 812.629C1655.68 819.789 1650.96 823.989 1645.64 823.989ZM1645.64 820.949C1649.4 820.949 1651.92 817.589 1651.92 812.629C1651.92 807.589 1649.4 804.229 1645.64 804.229C1641.84 804.229 1639.32 807.589 1639.32 812.629C1639.32 817.589 1641.84 820.949 1645.64 820.949ZM1663.45 823.429V801.709H1666.41L1666.77 805.669H1666.89C1668.37 802.909 1670.61 801.189 1673.05 801.189C1674.01 801.189 1674.65 801.309 1675.37 801.629L1674.69 804.829C1673.93 804.589 1673.45 804.469 1672.57 804.469C1670.77 804.469 1668.53 805.789 1667.09 809.509V823.429H1663.45ZM1687.76 823.989C1683.12 823.989 1681.6 821.069 1681.6 816.749V804.669H1678.36V801.949L1681.76 801.709L1682.16 795.589H1685.24V801.709H1691.12V804.669H1685.24V816.829C1685.24 819.469 1686.08 821.029 1688.6 821.029C1689.36 821.029 1690.36 820.709 1691.04 820.429L1691.76 823.149C1690.56 823.589 1689.12 823.989 1687.76 823.989Z" fill="#081F5C"/>
<path d="M1019.96 445.588C1015.76 445.588 1011.65 443.992 1008.62 441.094L1012.19 436.81C1014.38 438.868 1017.36 440.212 1020.09 440.212C1023.32 440.212 1025 438.826 1025 436.684C1025 434.374 1023.11 433.618 1020.34 432.442L1016.18 430.678C1013.08 429.418 1009.88 426.856 1009.88 422.362C1009.88 417.28 1014.38 413.374 1020.64 413.374C1024.25 413.374 1027.86 414.802 1030.38 417.364L1027.27 421.27C1025.26 419.632 1023.2 418.708 1020.64 418.708C1017.91 418.708 1016.18 419.926 1016.18 421.942C1016.18 424.168 1018.41 425.008 1021.06 426.058L1025.13 427.738C1028.87 429.292 1031.35 431.728 1031.35 436.18C1031.35 441.262 1027.1 445.588 1019.96 445.588ZM1038.99 445V413.92H1045.21V439.792H1057.85V445H1038.99ZM1064.87 445V421.522H1071.04V445H1064.87ZM1067.93 417.7C1065.79 417.7 1064.36 416.356 1064.36 414.298C1064.36 412.282 1065.79 410.98 1067.93 410.98C1070.08 410.98 1071.55 412.282 1071.55 414.298C1071.55 416.356 1070.08 417.7 1067.93 417.7ZM1079.72 445V421.522H1084.72L1085.23 424.63H1085.35C1087.37 422.614 1089.8 420.934 1093 420.934C1098.04 420.934 1100.26 424.462 1100.26 430.342V445H1094.09V431.14C1094.09 427.444 1093.04 426.226 1090.77 426.226C1088.84 426.226 1087.62 427.15 1085.9 428.83V445H1079.72ZM1108.73 445V411.526H1114.78V431.602H1114.99L1122.97 421.522H1129.77L1121.71 431.182L1130.49 445H1123.81L1118.1 435.256L1114.78 439.078V445H1108.73ZM1160.86 419.212C1163.29 419.464 1165.69 419.59 1168.25 419.59C1173.37 419.59 1178.62 419.17 1182.99 418.246V423.454C1178.58 424.126 1173.29 424.462 1168.25 424.504C1165.77 424.504 1163.38 424.42 1160.9 424.252L1160.86 419.212ZM1176.86 412.156C1176.73 412.954 1176.65 413.962 1176.61 414.844C1176.52 416.23 1176.44 419.128 1176.44 422.152C1176.44 429.88 1177.11 435.34 1177.11 439.33C1177.11 443.74 1174.93 446.932 1168.88 446.932C1163.04 446.932 1159.43 444.538 1159.43 440.128C1159.43 435.844 1163.04 432.904 1168.79 432.904C1176.69 432.904 1181.77 436.852 1185.05 439.876L1182.19 444.286C1177.36 439.792 1173.12 436.978 1168.37 436.978C1165.98 436.978 1164.34 437.944 1164.34 439.54C1164.34 441.262 1166.02 442.018 1168.29 442.018C1170.85 442.018 1171.73 440.674 1171.73 438.196C1171.73 435.298 1171.19 428.242 1171.19 422.194C1171.19 419.002 1171.15 416.188 1171.1 414.928C1171.1 414.256 1170.98 412.954 1170.85 412.156H1176.86ZM1156.36 412.576C1156.03 413.416 1155.52 415.6 1155.35 416.356C1154.72 419.17 1153.34 428.41 1153.34 432.61C1153.34 433.408 1153.38 434.5 1153.51 435.34C1154.09 433.87 1154.81 432.442 1155.4 431.014L1158 433.072C1156.82 436.558 1155.44 440.8 1154.98 443.11C1154.85 443.698 1154.72 444.622 1154.77 445.042C1154.77 445.504 1154.77 446.218 1154.81 446.806L1150.06 447.142C1149.22 444.244 1148.38 439.414 1148.38 433.744C1148.38 427.402 1149.64 419.464 1150.15 416.23C1150.31 415.054 1150.48 413.416 1150.52 412.114L1156.36 412.576ZM1213.3 445.588C1209.1 445.588 1204.98 443.992 1201.96 441.094L1205.53 436.81C1207.71 438.868 1210.69 440.212 1213.42 440.212C1216.66 440.212 1218.34 438.826 1218.34 436.684C1218.34 434.374 1216.45 433.618 1213.67 432.442L1209.52 430.678C1206.41 429.418 1203.22 426.856 1203.22 422.362C1203.22 417.28 1207.71 413.374 1213.97 413.374C1217.58 413.374 1221.19 414.802 1223.71 417.364L1220.6 421.27C1218.59 419.632 1216.53 418.708 1213.97 418.708C1211.24 418.708 1209.52 419.926 1209.52 421.942C1209.52 424.168 1211.74 425.008 1214.39 426.058L1218.46 427.738C1222.2 429.292 1224.68 431.728 1224.68 436.18C1224.68 441.262 1220.44 445.588 1213.3 445.588ZM1231.82 454.03V421.522H1236.82L1237.32 423.958H1237.45C1239.38 422.236 1241.81 420.934 1244.33 420.934C1250.13 420.934 1253.57 425.638 1253.57 432.904C1253.57 440.968 1248.74 445.588 1243.58 445.588C1241.56 445.588 1239.55 444.706 1237.78 443.068L1237.99 446.89V454.03H1231.82ZM1242.23 440.506C1245.05 440.506 1247.23 438.07 1247.23 432.988C1247.23 428.452 1245.85 425.974 1242.57 425.974C1241.02 425.974 1239.59 426.772 1237.99 428.41V438.784C1239.46 440.086 1240.97 440.506 1242.23 440.506ZM1270.78 445.588C1264.85 445.588 1259.48 441.052 1259.48 433.282C1259.48 425.47 1264.85 420.934 1270.78 420.934C1276.66 420.934 1282.03 425.47 1282.03 433.282C1282.03 441.052 1276.66 445.588 1270.78 445.588ZM1270.78 440.59C1273.97 440.59 1275.73 437.692 1275.73 433.282C1275.73 428.83 1273.97 425.974 1270.78 425.974C1267.54 425.974 1265.78 428.83 1265.78 433.282C1265.78 437.692 1267.54 440.59 1270.78 440.59ZM1289.34 445V421.522H1294.34L1294.84 425.68H1294.97C1296.65 422.572 1299.21 420.934 1301.65 420.934C1302.91 420.934 1303.66 421.102 1304.38 421.438L1303.33 426.73C1302.49 426.52 1301.86 426.352 1300.85 426.352C1299.04 426.352 1296.82 427.612 1295.51 431.014V445H1289.34ZM1318.34 445.588C1312.76 445.588 1310.61 442.06 1310.61 436.81V426.352H1307.34V421.774L1310.99 421.522L1311.66 415.138H1316.79V421.522H1322.63V426.352H1316.79V436.81C1316.79 439.498 1317.92 440.758 1319.98 440.758C1320.78 440.758 1321.66 440.464 1322.33 440.212L1323.34 444.706C1322.08 445.126 1320.44 445.588 1318.34 445.588ZM1330.05 445V413.92H1336.27V439.792H1348.91V445H1330.05ZM1355.93 445V421.522H1362.11V445H1355.93ZM1359 417.7C1356.86 417.7 1355.43 416.356 1355.43 414.298C1355.43 412.282 1356.86 410.98 1359 410.98C1361.14 410.98 1362.61 412.282 1362.61 414.298C1362.61 416.356 1361.14 417.7 1359 417.7ZM1370.79 445V421.522H1375.79L1376.29 424.63H1376.42C1378.43 422.614 1380.87 420.934 1384.06 420.934C1389.1 420.934 1391.33 424.462 1391.33 430.342V445H1385.15V431.14C1385.15 427.444 1384.1 426.226 1381.83 426.226C1379.9 426.226 1378.68 427.15 1376.96 428.83V445H1370.79ZM1399.79 445V411.526H1405.84V431.602H1406.05L1414.03 421.522H1420.84L1412.77 431.182L1421.55 445H1414.87L1409.16 435.256L1405.84 439.078V445H1399.79ZM1455.95 411.316C1455.62 412.87 1455.07 415.348 1453.89 418.372C1453.01 420.43 1451.79 422.824 1450.62 424.504C1451.75 424 1453.98 423.706 1455.41 423.706C1458.89 423.706 1461.54 425.764 1461.54 429.67C1461.54 431.938 1461.66 436.516 1461.71 439.162H1456.67C1456.83 437.188 1456.92 433.618 1456.88 431.35C1456.88 428.662 1455.2 427.78 1453.43 427.78C1451.12 427.78 1448.48 429.166 1446.88 430.678C1445.62 431.938 1444.44 433.45 1443.02 435.298L1438.52 431.938C1443.9 426.982 1447.13 422.446 1448.9 417.826C1449.74 415.558 1450.28 412.996 1450.41 410.854L1455.95 411.316ZM1440.12 415.222C1442.26 415.516 1445.37 415.684 1447.51 415.684C1453.05 415.684 1460.66 415.39 1466.75 414.298L1466.7 419.17C1460.78 420.01 1452.34 420.388 1447.22 420.388C1445.49 420.388 1442.43 420.304 1440.12 420.094V415.222ZM1473.38 427.15C1472.08 427.528 1469.81 428.368 1468.38 428.914C1465.65 429.964 1461.87 431.476 1457.93 433.492C1454.1 435.466 1452.05 437.272 1452.05 439.582C1452.05 441.892 1454.06 442.522 1458.14 442.522C1461.71 442.522 1466.41 442.06 1470.11 441.304L1469.94 446.722C1467.12 447.1 1462 447.478 1458.01 447.478C1451.46 447.478 1446.54 445.84 1446.54 440.422C1446.54 434.584 1452.55 431.14 1457.59 428.62C1461.45 426.604 1464.1 425.596 1466.62 424.42C1468.26 423.706 1469.73 423.034 1471.32 422.236L1473.38 427.15ZM1485.02 411.82H1497.11V440.506H1485.02V436.222H1493.33V416.146H1485.02V411.82ZM1482.5 411.82H1486.19V443.992H1482.5V411.82ZM1484.51 423.622H1495.26V427.78H1484.51V423.622ZM1502.53 443.026H1515.51V447.394H1502.53V443.026ZM1503.75 413.5H1515V417.658H1503.75V413.5ZM1488.12 414.382H1491.23V438.112H1488.12V414.382ZM1499.59 433.156H1517.82V448.696H1512.9V437.566H1504.29V448.738H1499.59V433.156ZM1513.91 413.5H1514.75L1515.59 413.29L1518.91 414.928C1515.26 424.756 1507.28 431.644 1498.54 435.382C1497.91 434.206 1496.65 432.4 1495.64 431.476C1503.54 428.536 1511.1 421.984 1513.91 414.34V413.5ZM1504.34 409.258L1509.08 410.56C1506.81 416.104 1503.03 421.396 1499.17 424.714C1498.37 423.79 1496.52 421.984 1495.47 421.186C1499.21 418.456 1502.53 413.962 1504.34 409.258ZM1504.17 416.566C1506.9 421.858 1512.99 428.032 1521.35 430.636C1520.3 431.602 1518.83 433.618 1518.11 434.878C1509.71 431.602 1503.58 424.672 1500.6 418.708L1504.17 416.566ZM1531.47 413.248H1536.38V448.738H1531.47V413.248ZM1525.42 421.144H1540.83V425.848H1525.42V421.144ZM1531.76 423.034L1534.7 424.336C1533.11 430.342 1530.12 437.818 1526.89 441.976C1526.43 440.506 1525.34 438.406 1524.54 437.146C1527.48 433.786 1530.42 427.696 1531.76 423.034ZM1538.02 409.762L1541.38 413.668C1537.1 415.306 1531.26 416.44 1526.34 417.07C1526.13 415.978 1525.5 414.298 1524.92 413.248C1529.58 412.45 1534.79 411.232 1538.02 409.762ZM1536.26 426.982C1537.31 427.864 1540.96 431.644 1541.76 432.61L1538.9 436.558C1537.89 434.542 1535.37 430.72 1534.07 428.956L1536.26 426.982ZM1545.12 409.468L1550.03 410.434C1548.48 416.86 1545.83 423.034 1542.81 426.982C1541.88 426.226 1539.7 424.84 1538.52 424.252C1541.59 420.766 1543.94 415.138 1545.12 409.468ZM1544.4 426.184L1549.15 427.108C1548.06 432.694 1546.08 438.322 1543.69 441.85C1542.77 441.094 1540.67 439.834 1539.53 439.246C1541.84 436.138 1543.52 431.098 1544.4 426.184ZM1545.92 416.23H1563.93V420.892H1544.45L1545.92 416.23ZM1550.54 418.288H1555.49V443.068C1555.49 445.462 1555.03 446.89 1553.56 447.73C1552.09 448.528 1550.07 448.738 1547.39 448.738C1547.13 447.31 1546.38 445.042 1545.66 443.698C1547.43 443.74 1549.19 443.74 1549.78 443.74C1550.33 443.74 1550.54 443.614 1550.54 443.026V418.288ZM1556.5 427.192L1560.87 425.848C1562.63 430.426 1564.23 436.18 1564.77 440.086L1560.11 441.556C1559.69 437.692 1558.1 431.686 1556.5 427.192ZM1583.42 411.694C1583.17 413.458 1582.96 415.642 1582.88 417.322C1582.67 421.858 1582.37 431.224 1582.37 436.432C1582.37 440.674 1584.89 442.06 1588.17 442.06C1595.1 442.06 1599.47 438.07 1602.53 433.492L1606.35 438.154C1603.62 442.186 1597.66 447.772 1588.08 447.772C1581.2 447.772 1576.79 444.748 1576.79 437.566C1576.79 431.938 1577.16 420.934 1577.16 417.322C1577.16 415.306 1577 413.29 1576.66 411.652L1583.42 411.694ZM1631.81 411.484C1631.51 412.66 1631.13 414.55 1630.92 415.474C1630.34 418.33 1629.29 423.454 1628.15 427.738C1626.64 433.618 1623.83 442.186 1621.52 447.184L1615.68 445.21C1618.16 440.968 1621.35 432.19 1622.94 426.31C1623.99 422.362 1624.96 417.742 1625.25 415.264C1625.46 413.71 1625.51 411.988 1625.38 410.98L1631.81 411.484ZM1621.1 417.784C1626.22 417.784 1632.14 416.986 1637.6 415.684V420.934C1632.39 422.152 1625.8 422.866 1621.05 422.866C1619 422.866 1617.44 422.782 1615.97 422.698L1615.8 417.448C1617.99 417.7 1619.37 417.784 1621.1 417.784ZM1634.28 424.21C1636.64 423.958 1639.66 423.79 1642.39 423.79C1644.78 423.79 1647.3 423.916 1649.74 424.168L1649.66 429.208C1647.51 428.956 1644.95 428.662 1642.43 428.662C1639.53 428.662 1636.93 428.788 1634.28 429.124V424.21ZM1636.55 434.752C1636.26 435.97 1636.01 437.314 1636.01 438.238C1636.01 440.086 1637.22 441.472 1641.76 441.472C1644.57 441.472 1647.47 441.178 1650.45 440.632L1650.24 445.966C1647.89 446.302 1645.08 446.554 1641.72 446.554C1634.62 446.554 1630.84 444.16 1630.84 439.918C1630.84 437.944 1631.22 435.928 1631.55 434.29L1636.55 434.752ZM1675.74 411.358C1675.36 412.912 1675.19 414.004 1674.98 415.096C1674.48 418.708 1672.5 432.568 1672.5 436.81C1672.5 440.296 1674.6 442.186 1678.72 442.186C1684.6 442.186 1687.83 439.456 1687.83 436.012C1687.83 433.198 1686.24 430.468 1683.51 427.906L1689.39 426.646C1692.2 430.174 1693.46 433.114 1693.46 436.684C1693.46 443.026 1687.79 447.604 1678.59 447.604C1671.96 447.604 1667.3 444.748 1667.3 437.692C1667.3 433.408 1669.31 420.64 1669.73 414.76C1669.9 412.828 1669.9 411.988 1669.82 411.022L1675.74 411.358ZM1660.74 416.566C1664.4 417.784 1669.61 418.33 1673.89 418.33C1677.12 418.33 1680.11 418.12 1682.21 417.742L1682.04 422.782C1679.56 423.034 1677.25 423.16 1673.72 423.16C1669.48 423.16 1664.36 422.488 1660.49 421.396L1660.74 416.566ZM1659.82 426.982C1664.36 428.536 1669.23 428.872 1673.47 428.872C1676.03 428.872 1679.14 428.704 1681.87 428.368L1681.74 433.366C1679.43 433.618 1676.96 433.744 1674.31 433.744C1668.72 433.744 1663.39 433.156 1659.57 432.064L1659.82 426.982ZM1724.96 416.23C1724.37 420.514 1723.53 425.428 1722.06 430.384C1719.54 438.868 1715.93 444.076 1711.35 444.076C1706.65 444.076 1702.79 438.91 1702.79 431.812C1702.79 422.152 1711.23 413.836 1722.11 413.836C1732.48 413.836 1739.07 421.06 1739.07 430.258C1739.07 439.078 1733.66 445.336 1723.07 446.974L1719.88 442.018C1721.52 441.808 1722.69 441.598 1723.83 441.346C1729.16 440.044 1733.36 436.222 1733.36 430.048C1733.36 423.454 1729.25 418.75 1721.98 418.75C1713.08 418.75 1708.2 426.016 1708.2 431.308C1708.2 435.55 1709.88 437.608 1711.48 437.608C1713.29 437.608 1714.88 434.92 1716.65 429.25C1717.86 425.302 1718.79 420.472 1719.21 416.062L1724.96 416.23ZM1005.94 477.258H1019.84V481.794H1010.9V504.096H1005.94V477.258ZM1058.15 484.566C1057.81 485.028 1057.05 486.288 1056.68 487.17C1054.95 491.16 1051.85 496.872 1048.23 501.072C1043.53 506.49 1037.19 511.698 1030.68 514.764L1026.31 510.228C1033.11 507.708 1039.58 502.584 1043.53 498.216C1046.3 495.066 1048.86 490.908 1049.83 487.926C1048.07 487.926 1037.36 487.926 1035.55 487.926C1033.83 487.926 1031.52 488.136 1030.59 488.22V482.214C1031.73 482.382 1034.33 482.508 1035.55 482.508C1037.78 482.508 1048.53 482.508 1050.38 482.508C1052.22 482.508 1053.86 482.298 1054.74 482.004L1058.15 484.566ZM1048.78 497.586C1053.11 501.114 1059.07 507.372 1061.8 510.732L1057.01 514.89C1053.9 510.564 1049.33 505.566 1044.83 501.492L1048.78 497.586ZM1099.81 481.542C1099.81 482.802 1100.82 483.81 1102.08 483.81C1103.34 483.81 1104.39 482.802 1104.39 481.542C1104.39 480.282 1103.34 479.232 1102.08 479.232C1100.82 479.232 1099.81 480.282 1099.81 481.542ZM1097.25 481.542C1097.25 478.854 1099.39 476.67 1102.08 476.67C1104.77 476.67 1106.95 478.854 1106.95 481.542C1106.95 484.23 1104.77 486.372 1102.08 486.372C1099.39 486.372 1097.25 484.23 1097.25 481.542ZM1091.45 479.862C1091.33 480.45 1091.07 482.508 1091.07 483.558C1091.07 486.036 1091.07 489.606 1091.07 492.042C1091.07 495.444 1091.07 507.96 1091.07 511.488C1091.07 513.924 1089.65 515.436 1086.66 515.436C1084.44 515.436 1081.96 515.352 1079.86 515.1L1079.36 509.892C1081.12 510.228 1082.97 510.354 1084.02 510.354C1085.11 510.354 1085.49 509.976 1085.53 508.884C1085.57 507.288 1085.57 494.016 1085.57 492.042C1085.57 490.572 1085.57 486.078 1085.57 483.516C1085.57 482.424 1085.36 480.618 1085.24 479.862H1091.45ZM1070.87 486.582C1072.13 486.75 1073.6 486.876 1074.9 486.876C1077.47 486.876 1097.84 486.876 1100.86 486.876C1102.04 486.876 1103.84 486.75 1104.98 486.624V492.126C1103.67 492 1102.04 491.958 1100.9 491.958C1097.88 491.958 1077.68 491.958 1074.9 491.958C1073.64 491.958 1072.05 492 1070.87 492.126V486.582ZM1081.58 497.964C1079.65 501.66 1075.74 507.162 1073.48 509.64L1068.9 506.574C1071.71 503.886 1075.07 499.266 1076.79 495.696L1081.58 497.964ZM1099.6 495.57C1101.74 498.258 1105.1 503.55 1106.78 506.616L1101.87 509.346C1100.06 505.734 1097.08 500.652 1095.02 498.048L1099.6 495.57ZM1115.18 493.554C1116.74 493.68 1119.76 493.848 1121.94 493.848C1126.9 493.848 1140.76 493.848 1144.5 493.848C1146.47 493.848 1148.32 493.638 1149.45 493.554V500.19C1148.45 500.148 1146.3 499.938 1144.54 499.938C1140.72 499.938 1126.9 499.938 1121.94 499.938C1119.59 499.938 1116.78 500.064 1115.18 500.19V493.554ZM1174.51 480.282C1175.51 482.382 1178.08 488.85 1178.92 491.538L1173.62 493.386C1172.83 490.74 1170.47 484.608 1169.26 482.004L1174.51 480.282ZM1193.66 483.642C1193.2 484.692 1192.82 485.994 1192.57 486.918C1191.39 491.496 1189 498.174 1185.55 502.71C1181.14 508.548 1175.01 512.79 1169.05 515.058L1164.34 510.312C1170.05 508.674 1176.61 504.894 1180.93 499.476C1184.08 495.486 1186.69 488.304 1187.4 481.878L1193.66 483.642ZM1162.79 482.886C1164.09 485.574 1166.69 491.832 1167.66 494.646L1162.28 496.62C1161.4 493.932 1158.63 487.002 1157.45 484.776L1162.79 482.886ZM1201.64 484.23C1203.28 484.188 1204.96 484.104 1205.75 484.02C1209.24 483.684 1216.17 483.096 1223.86 482.424C1228.22 482.088 1232.8 481.794 1235.78 481.668L1235.83 487.086C1233.56 487.086 1229.95 487.128 1227.68 487.632C1222.64 488.976 1218.82 494.436 1218.82 499.434C1218.82 506.322 1225.28 508.842 1232.38 509.178L1230.41 514.932C1221.63 514.386 1213.31 509.64 1213.31 500.526C1213.31 494.52 1216.72 489.732 1219.53 487.59C1215.62 488.01 1207.01 488.934 1202.18 489.984L1201.64 484.23ZM1229.82 491.202C1230.83 492.672 1232.34 495.234 1233.14 496.914L1229.99 498.3C1228.9 496.032 1228.01 494.352 1226.71 492.504L1229.82 491.202ZM1234.48 489.27C1235.57 490.74 1237.17 493.218 1238.05 494.856L1234.9 496.368C1233.77 494.1 1232.8 492.504 1231.46 490.656L1234.48 489.27ZM1245.07 489.984C1246.62 489.732 1248.72 489.186 1250.27 488.724C1253.47 487.716 1262.03 484.734 1268.21 484.734C1275.77 484.734 1281.77 489.102 1281.77 496.872C1281.77 506.364 1272.7 512.454 1257.92 513.21L1255.44 507.624C1266.82 507.372 1275.77 504.096 1275.77 496.746C1275.77 492.798 1273.04 489.816 1268 489.816C1261.78 489.816 1251.87 493.974 1247.46 495.906L1245.07 489.984ZM1290.38 485.49C1292.19 485.7 1294.46 485.784 1295.97 485.784C1301.18 485.784 1306.85 484.902 1310.92 483.6L1311.05 488.472C1307.44 489.48 1301.39 490.572 1296.01 490.53C1294.33 490.53 1292.57 490.488 1290.76 490.404L1290.38 485.49ZM1306.72 479.19C1306.18 481.416 1305.17 485.532 1304.03 489.102C1302.1 495.15 1298.32 502.962 1294.75 507.918L1289.67 505.314C1293.45 500.694 1297.23 493.344 1298.87 488.808C1299.88 485.784 1300.8 481.878 1300.93 478.644L1306.72 479.19ZM1316.59 492.294C1316.47 494.058 1316.51 495.822 1316.55 497.67C1316.63 500.148 1317.01 506.406 1317.01 508.758C1317.01 512.664 1314.91 515.73 1308.91 515.73C1303.7 515.73 1299.58 513.378 1299.58 508.758C1299.58 504.684 1303.03 501.492 1308.86 501.492C1316.21 501.492 1322.01 505.188 1325.5 508.338L1322.72 512.874C1319.7 510.06 1314.91 505.734 1308.57 505.734C1306.13 505.734 1304.54 506.784 1304.54 508.254C1304.54 509.808 1305.88 510.9 1308.19 510.9C1311.05 510.9 1311.97 509.304 1311.97 506.952C1311.97 504.432 1311.51 496.704 1311.3 492.294H1316.59ZM1323.82 494.52C1321.38 492.546 1316.59 489.816 1313.69 488.514L1316.42 484.398C1319.45 485.7 1324.61 488.514 1326.8 490.068L1323.82 494.52ZM1350.11 480.156C1349.86 481.248 1349.6 482.592 1349.39 483.642C1348.97 485.532 1348.47 488.136 1348.01 490.278C1346.62 496.2 1343.26 508.17 1338.85 515.268L1333.35 513.084C1338.35 506.364 1341.5 495.276 1342.67 489.984C1343.47 486.204 1343.93 482.634 1343.89 479.484L1350.11 480.156ZM1364.6 484.356C1367.16 488.01 1370.69 495.822 1371.99 499.812L1366.66 502.29C1365.56 497.628 1362.58 490.236 1359.56 486.498L1364.6 484.356ZM1333.1 488.766C1334.61 488.85 1336.04 488.808 1337.59 488.766C1340.95 488.682 1348.93 487.758 1352.04 487.758C1356.49 487.758 1359.64 489.732 1359.64 495.822C1359.64 500.778 1359.01 507.582 1357.25 511.194C1355.86 514.134 1353.51 515.058 1350.36 515.058C1348.72 515.058 1346.75 514.806 1345.32 514.47L1344.4 508.926C1346.03 509.388 1348.43 509.808 1349.52 509.808C1350.95 509.808 1352.04 509.388 1352.67 508.002C1353.85 505.65 1354.39 500.526 1354.39 496.41C1354.39 493.05 1352.96 492.546 1350.32 492.546C1347.84 492.546 1340.57 493.47 1338.26 493.764C1337.05 493.932 1334.86 494.226 1333.6 494.436L1333.1 488.766ZM1363.84 478.56C1364.89 480.072 1366.36 482.76 1367.16 484.314L1363.8 485.742C1362.92 484.02 1361.62 481.542 1360.48 479.904L1363.84 478.56ZM1368.8 476.628C1369.89 478.224 1371.44 480.912 1372.2 482.382L1368.84 483.81C1368 482.046 1366.61 479.61 1365.48 478.014L1368.8 476.628ZM1384.38 481.038C1385.56 481.164 1386.98 481.248 1388.16 481.248C1390.43 481.248 1399.37 481.038 1401.77 480.828C1403.53 480.702 1404.5 480.534 1405 480.366L1407.69 484.146C1406.72 484.776 1405.72 485.364 1404.79 486.078C1402.52 487.674 1398.11 491.37 1395.43 493.47C1396.85 493.092 1398.11 493.008 1399.42 493.008C1406.56 493.008 1411.97 497.46 1411.97 503.55C1411.97 510.186 1406.93 515.436 1396.77 515.436C1390.93 515.436 1386.52 512.79 1386.52 508.548C1386.52 505.146 1389.63 502.038 1394.08 502.038C1399.84 502.038 1403.03 505.902 1403.15 510.522L1398.24 511.152C1398.16 508.128 1396.56 506.028 1394.08 506.028C1392.53 506.028 1391.48 506.994 1391.48 508.086C1391.48 509.64 1393.2 510.69 1395.76 510.69C1402.86 510.69 1406.47 508.002 1406.47 503.508C1406.47 499.686 1402.69 497.124 1397.78 497.124C1391.31 497.124 1387.15 500.568 1382.66 505.65L1378.84 501.702C1381.82 499.35 1386.9 495.066 1389.34 493.008C1391.69 491.076 1396.1 487.548 1398.16 485.7C1396.01 485.784 1390.22 485.994 1387.95 486.162C1386.82 486.246 1385.51 486.33 1384.55 486.498L1384.38 481.038ZM1434.32 516.864H1420.42V512.328H1429.36V490.026H1434.32V516.864ZM1483.75 479.316C1483.42 480.87 1482.87 483.348 1481.69 486.372C1480.81 488.43 1479.59 490.824 1478.42 492.504C1479.55 492 1481.78 491.706 1483.21 491.706C1486.69 491.706 1489.34 493.764 1489.34 497.67C1489.34 499.938 1489.46 504.516 1489.51 507.162H1484.47C1484.63 505.188 1484.72 501.618 1484.68 499.35C1484.68 496.662 1483 495.78 1481.23 495.78C1478.92 495.78 1476.28 497.166 1474.68 498.678C1473.42 499.938 1472.24 501.45 1470.82 503.298L1466.32 499.938C1471.7 494.982 1474.93 490.446 1476.7 485.826C1477.54 483.558 1478.08 480.996 1478.21 478.854L1483.75 479.316ZM1467.92 483.222C1470.06 483.516 1473.17 483.684 1475.31 483.684C1480.85 483.684 1488.46 483.39 1494.55 482.298L1494.5 487.17C1488.58 488.01 1480.14 488.388 1475.02 488.388C1473.29 488.388 1470.23 488.304 1467.92 488.094V483.222ZM1501.18 495.15C1499.88 495.528 1497.61 496.368 1496.18 496.914C1493.45 497.964 1489.67 499.476 1485.73 501.492C1481.9 503.466 1479.85 505.272 1479.85 507.582C1479.85 509.892 1481.86 510.522 1485.94 510.522C1489.51 510.522 1494.21 510.06 1497.91 509.304L1497.74 514.722C1494.92 515.1 1489.8 515.478 1485.81 515.478C1479.26 515.478 1474.34 513.84 1474.34 508.422C1474.34 502.584 1480.35 499.14 1485.39 496.62C1489.25 494.604 1491.9 493.596 1494.42 492.42C1496.06 491.706 1497.53 491.034 1499.12 490.236L1501.18 495.15ZM1515.88 480.828C1517.23 480.996 1518.95 481.122 1520.38 481.122C1523.02 481.122 1534.78 481.122 1537.26 481.122C1538.65 481.122 1540.33 480.996 1541.75 480.828V486.246C1540.33 486.162 1538.69 486.078 1537.26 486.078C1534.78 486.078 1523.02 486.078 1520.38 486.078C1518.95 486.078 1517.14 486.162 1515.88 486.246V480.828ZM1510.97 491.538C1512.23 491.706 1513.7 491.79 1515 491.79C1517.65 491.79 1540.03 491.79 1542.51 491.79C1543.39 491.79 1545.24 491.748 1546.37 491.538V496.998C1545.28 496.956 1543.69 496.914 1542.51 496.914C1540.03 496.914 1517.65 496.914 1515 496.914C1513.78 496.914 1512.14 496.956 1510.97 497.04V491.538ZM1532.47 494.478C1532.47 499.98 1531.51 504.18 1529.7 507.666C1528.27 510.606 1525 513.84 1521.3 515.772L1516.34 512.202C1519.33 511.026 1522.31 508.632 1523.95 506.154C1526.05 502.962 1526.63 499.014 1526.63 494.52L1532.47 494.478ZM1555.36 493.554C1556.92 493.68 1559.94 493.848 1562.12 493.848C1567.08 493.848 1580.94 493.848 1584.68 493.848C1586.65 493.848 1588.5 493.638 1589.63 493.554V500.19C1588.63 500.148 1586.48 499.938 1584.72 499.938C1580.9 499.938 1567.08 499.938 1562.12 499.938C1559.77 499.938 1556.96 500.064 1555.36 500.19V493.554ZM1635.62 486.54C1635.04 487.212 1634.53 487.8 1634.2 488.304C1630.92 493.722 1624.7 501.282 1618.19 506.07L1613.99 502.206C1619.54 498.342 1624.24 492.63 1626.43 488.766C1622.73 488.766 1607.44 488.766 1604.25 488.766C1602.53 488.766 1600.26 488.976 1599.38 489.102V483.18C1600.51 483.39 1602.78 483.6 1604.25 483.6C1606.9 483.6 1623.02 483.6 1627.52 483.6C1629.16 483.6 1630.54 483.432 1631.47 483.138L1635.62 486.54ZM1613.49 506.7C1611.01 504.222 1606.73 500.4 1604.25 498.636L1608.66 495.024C1610.93 496.746 1615.13 500.148 1618.32 503.214C1621.09 505.902 1624.41 509.388 1626.43 511.824L1621.47 515.772C1619.75 513.42 1616.22 509.472 1613.49 506.7ZM1658.51 483.642C1663.68 484.356 1672.08 484.146 1676.57 483.6V489.018C1671.45 489.522 1663.81 489.522 1658.56 489.018L1658.51 483.642ZM1661.87 501.576C1661.54 503.004 1661.37 504.012 1661.37 505.104C1661.37 506.994 1663.01 508.128 1667.29 508.128C1671.03 508.128 1674.14 507.792 1677.79 506.994L1677.92 512.664C1675.19 513.21 1671.79 513.504 1667.04 513.504C1659.82 513.504 1656.33 510.9 1656.33 506.616C1656.33 504.936 1656.58 503.298 1657.09 501.156L1661.87 501.576ZM1652.05 480.828C1651.75 481.71 1651.21 483.852 1651.04 484.608C1650.45 487.38 1648.98 495.78 1648.98 499.98C1648.98 500.82 1649.02 501.87 1649.15 502.71C1649.78 501.282 1650.45 499.854 1651.08 498.426L1653.68 500.484C1652.47 504.012 1651.08 508.548 1650.66 510.774C1650.53 511.404 1650.41 512.328 1650.41 512.748C1650.45 513.21 1650.45 513.924 1650.49 514.512L1645.66 514.806C1644.82 511.95 1644.02 506.826 1644.02 501.114C1644.02 494.772 1645.28 487.716 1645.75 484.44C1645.91 483.306 1646.12 481.71 1646.17 480.366L1652.05 480.828ZM1699.42 479.694C1699.17 481.458 1698.96 483.642 1698.88 485.322C1698.67 489.858 1698.37 499.224 1698.37 504.432C1698.37 508.674 1700.89 510.06 1704.17 510.06C1711.1 510.06 1715.47 506.07 1718.53 501.492L1722.35 506.154C1719.62 510.186 1713.66 515.772 1704.08 515.772C1697.2 515.772 1692.79 512.748 1692.79 505.566C1692.79 499.938 1693.16 488.934 1693.16 485.322C1693.16 483.306 1693 481.29 1692.66 479.652L1699.42 479.694ZM1747.81 479.484C1747.51 480.66 1747.13 482.55 1746.92 483.474C1746.34 486.33 1745.29 491.454 1744.15 495.738C1742.64 501.618 1739.83 510.186 1737.52 515.184L1731.68 513.21C1734.16 508.968 1737.35 500.19 1738.94 494.31C1739.99 490.362 1740.96 485.742 1741.25 483.264C1741.46 481.71 1741.51 479.988 1741.38 478.98L1747.81 479.484ZM1737.1 485.784C1742.22 485.784 1748.14 484.986 1753.6 483.684V488.934C1748.39 490.152 1741.8 490.866 1737.05 490.866C1735 490.866 1733.44 490.782 1731.97 490.698L1731.8 485.448C1733.99 485.7 1735.37 485.784 1737.1 485.784ZM1750.28 492.21C1752.64 491.958 1755.66 491.79 1758.39 491.79C1760.78 491.79 1763.3 491.916 1765.74 492.168L1765.66 497.208C1763.51 496.956 1760.95 496.662 1758.43 496.662C1755.53 496.662 1752.93 496.788 1750.28 497.124V492.21ZM1752.55 502.752C1752.26 503.97 1752.01 505.314 1752.01 506.238C1752.01 508.086 1753.22 509.472 1757.76 509.472C1760.57 509.472 1763.47 509.178 1766.45 508.632L1766.24 513.966C1763.89 514.302 1761.08 514.554 1757.72 514.554C1750.62 514.554 1746.84 512.16 1746.84 507.918C1746.84 505.944 1747.22 503.928 1747.55 502.29L1752.55 502.752ZM1146.35 552.566C1146.01 553.028 1145.25 554.288 1144.88 555.17C1143.15 559.16 1140.05 564.872 1136.43 569.072C1131.73 574.49 1125.39 579.698 1118.88 582.764L1114.51 578.228C1121.31 575.708 1127.78 570.584 1131.73 566.216C1134.5 563.066 1137.06 558.908 1138.03 555.926C1136.27 555.926 1125.56 555.926 1123.75 555.926C1122.03 555.926 1119.72 556.136 1118.79 556.22V550.214C1119.93 550.382 1122.53 550.508 1123.75 550.508C1125.98 550.508 1136.73 550.508 1138.58 550.508C1140.42 550.508 1142.06 550.298 1142.94 550.004L1146.35 552.566ZM1136.98 565.586C1141.31 569.114 1147.27 575.372 1150 578.732L1145.21 582.89C1142.1 578.564 1137.53 573.566 1133.03 569.492L1136.98 565.586ZM1188.01 549.542C1188.01 550.802 1189.02 551.81 1190.28 551.81C1191.54 551.81 1192.59 550.802 1192.59 549.542C1192.59 548.282 1191.54 547.232 1190.28 547.232C1189.02 547.232 1188.01 548.282 1188.01 549.542ZM1185.45 549.542C1185.45 546.854 1187.59 544.67 1190.28 544.67C1192.97 544.67 1195.15 546.854 1195.15 549.542C1195.15 552.23 1192.97 554.372 1190.28 554.372C1187.59 554.372 1185.45 552.23 1185.45 549.542ZM1179.65 547.862C1179.53 548.45 1179.27 550.508 1179.27 551.558C1179.27 554.036 1179.27 557.606 1179.27 560.042C1179.27 563.444 1179.27 575.96 1179.27 579.488C1179.27 581.924 1177.85 583.436 1174.86 583.436C1172.64 583.436 1170.16 583.352 1168.06 583.1L1167.56 577.892C1169.32 578.228 1171.17 578.354 1172.22 578.354C1173.31 578.354 1173.69 577.976 1173.73 576.884C1173.77 575.288 1173.77 562.016 1173.77 560.042C1173.77 558.572 1173.77 554.078 1173.77 551.516C1173.77 550.424 1173.56 548.618 1173.44 547.862H1179.65ZM1159.07 554.582C1160.33 554.75 1161.8 554.876 1163.1 554.876C1165.67 554.876 1186.04 554.876 1189.06 554.876C1190.24 554.876 1192.04 554.75 1193.18 554.624V560.126C1191.87 560 1190.24 559.958 1189.1 559.958C1186.08 559.958 1165.88 559.958 1163.1 559.958C1161.84 559.958 1160.25 560 1159.07 560.126V554.582ZM1169.78 565.964C1167.85 569.66 1163.94 575.162 1161.68 577.64L1157.1 574.574C1159.91 571.886 1163.27 567.266 1164.99 563.696L1169.78 565.964ZM1187.8 563.57C1189.94 566.258 1193.3 571.55 1194.98 574.616L1190.07 577.346C1188.26 573.734 1185.28 568.652 1183.22 566.048L1187.8 563.57ZM1203.38 561.554C1204.94 561.68 1207.96 561.848 1210.14 561.848C1215.1 561.848 1228.96 561.848 1232.7 561.848C1234.67 561.848 1236.52 561.638 1237.65 561.554V568.19C1236.65 568.148 1234.5 567.938 1232.74 567.938C1228.92 567.938 1215.1 567.938 1210.14 567.938C1207.79 567.938 1204.98 568.064 1203.38 568.19V561.554ZM1262.71 548.282C1263.71 550.382 1266.28 556.85 1267.12 559.538L1261.82 561.386C1261.03 558.74 1258.67 552.608 1257.46 550.004L1262.71 548.282ZM1281.86 551.642C1281.4 552.692 1281.02 553.994 1280.77 554.918C1279.59 559.496 1277.2 566.174 1273.75 570.71C1269.34 576.548 1263.21 580.79 1257.25 583.058L1252.54 578.312C1258.25 576.674 1264.81 572.894 1269.13 567.476C1272.28 563.486 1274.89 556.304 1275.6 549.878L1281.86 551.642ZM1250.99 550.886C1252.29 553.574 1254.89 559.832 1255.86 562.646L1250.48 564.62C1249.6 561.932 1246.83 555.002 1245.65 552.776L1250.99 550.886ZM1326.92 554.54C1326.34 555.212 1325.83 555.8 1325.5 556.304C1322.22 561.722 1316 569.282 1309.49 574.07L1305.29 570.206C1310.84 566.342 1315.54 560.63 1317.73 556.766C1314.03 556.766 1298.74 556.766 1295.55 556.766C1293.83 556.766 1291.56 556.976 1290.68 557.102V551.18C1291.81 551.39 1294.08 551.6 1295.55 551.6C1298.2 551.6 1314.32 551.6 1318.82 551.6C1320.46 551.6 1321.84 551.432 1322.77 551.138L1326.92 554.54ZM1304.79 574.7C1302.31 572.222 1298.03 568.4 1295.55 566.636L1299.96 563.024C1302.23 564.746 1306.43 568.148 1309.62 571.214C1312.39 573.902 1315.71 577.388 1317.73 579.824L1312.77 583.772C1311.05 581.42 1307.52 577.472 1304.79 574.7ZM1352.21 556.094C1353.01 557.858 1355.06 563.36 1355.65 565.292L1350.65 567.014C1350.11 564.998 1348.26 559.916 1347.25 557.732L1352.21 556.094ZM1367.71 559.118C1367.24 560.504 1366.99 561.386 1366.74 562.226C1365.65 566.468 1363.84 570.836 1360.99 574.49C1357.08 579.572 1351.87 583.058 1346.96 584.948L1342.55 580.454C1347.13 579.194 1353.01 576.002 1356.45 571.634C1359.31 568.106 1361.36 562.52 1361.83 557.228L1367.71 559.118ZM1342.46 558.278C1343.51 560.42 1345.57 565.544 1346.37 567.896L1341.25 569.786C1340.57 567.56 1338.43 561.932 1337.42 560.126L1342.46 558.278ZM1381.52 550.844C1384.76 550.928 1391.23 550.886 1395.85 550.214C1400.09 549.584 1404.33 548.66 1406.43 547.652L1409.92 552.272C1408.49 552.65 1407.35 552.944 1406.68 553.112C1404.08 553.784 1400.72 554.33 1397.48 554.792C1392.7 555.464 1386.52 555.632 1382.87 555.716L1381.52 550.844ZM1383.33 579.824C1390.76 576.422 1394.08 570.878 1394.08 563.024C1394.08 563.024 1394.08 560.294 1394.08 554.33L1399.58 553.7C1399.58 557.312 1399.58 562.898 1399.58 562.898C1399.58 571.382 1396.81 578.564 1388.71 583.436L1383.33 579.824ZM1378.37 560.924C1379.55 561.008 1380.94 561.134 1382.28 561.134C1384.93 561.134 1407.4 561.134 1410.21 561.134C1411.09 561.134 1413.07 561.008 1413.99 560.924V566.342C1412.86 566.258 1411.47 566.174 1410.29 566.174C1407.65 566.174 1384.8 566.174 1382.32 566.174C1381.02 566.174 1379.47 566.258 1378.37 566.342V560.924ZM1429.36 549.08C1432.26 551.054 1437.72 555.422 1440.2 557.984L1435.91 562.352C1433.73 560 1428.44 555.422 1425.37 553.322L1429.36 549.08ZM1424.07 577.052C1430.66 576.128 1436.08 573.986 1440.16 571.592C1447.34 567.308 1452.8 560.924 1455.49 555.254L1458.72 561.134C1455.57 566.846 1449.98 572.642 1443.22 576.716C1438.94 579.278 1433.52 581.588 1427.64 582.596L1424.07 577.052ZM1496.06 546.602C1497.11 548.156 1498.58 550.802 1499.38 552.356L1496.02 553.826C1495.13 552.104 1493.83 549.584 1492.7 547.988L1496.06 546.602ZM1501.01 544.712C1502.11 546.308 1503.66 548.954 1504.42 550.424L1501.06 551.852C1500.17 550.13 1498.83 547.652 1497.7 546.098L1501.01 544.712ZM1499.8 555.842C1499.33 556.682 1498.75 557.816 1498.41 558.866C1497.28 562.604 1494.88 568.232 1491.1 572.894C1487.11 577.766 1482.03 581.63 1474.13 584.738L1469.18 580.328C1477.79 577.724 1482.45 574.07 1486.1 569.912C1488.96 566.636 1491.4 561.596 1492.07 558.488H1477.91L1479.85 553.7C1481.74 553.7 1490.51 553.7 1491.86 553.7C1493.16 553.7 1494.55 553.532 1495.51 553.196L1499.8 555.842ZM1486.1 549.206C1485.14 550.676 1484.05 552.608 1483.54 553.49C1480.73 558.572 1475.69 564.494 1469.68 568.61L1464.94 565.124C1472.33 560.63 1475.98 555.212 1478.08 551.6C1478.71 550.592 1479.59 548.618 1479.97 547.19L1486.1 549.206ZM1547.51 552.608C1547.09 553.154 1546.29 554.162 1545.91 554.75C1543.94 558.026 1539.95 563.36 1535.79 566.3L1531.42 562.814C1534.82 560.756 1538.1 557.06 1539.19 555.002C1536.63 555.002 1519.91 555.002 1517.27 555.002C1515.55 555.002 1514.12 555.086 1512.14 555.296V549.416C1513.78 549.668 1515.55 549.878 1517.27 549.878C1519.91 549.878 1537.72 549.878 1539.91 549.878C1541.08 549.878 1543.39 549.71 1544.19 549.5L1547.51 552.608ZM1530.41 558.236C1530.41 568.652 1530.16 577.22 1518.74 583.394L1513.82 579.404C1515.21 578.942 1516.72 578.228 1518.28 577.052C1523.57 573.356 1524.58 568.946 1524.58 562.058C1524.58 560.714 1524.53 559.622 1524.32 558.236H1530.41ZM1585.27 550.214C1585.27 551.558 1586.36 552.65 1587.7 552.65C1589.05 552.65 1590.14 551.558 1590.14 550.214C1590.14 548.87 1589.05 547.778 1587.7 547.778C1586.36 547.778 1585.27 548.87 1585.27 550.214ZM1582.66 550.214C1582.66 547.442 1584.93 545.174 1587.7 545.174C1590.47 545.174 1592.74 547.442 1592.74 550.214C1592.74 552.986 1590.47 555.254 1587.7 555.254C1584.93 555.254 1582.66 552.986 1582.66 550.214ZM1587.79 553.532C1587.37 554.33 1587.07 555.548 1586.86 556.43C1585.9 560.546 1584.05 567.098 1580.52 571.76C1576.74 576.8 1571.15 580.958 1563.64 583.352L1559.06 578.312C1567.42 576.38 1572.16 572.726 1575.52 568.484C1578.34 564.998 1579.93 560.21 1580.48 556.598C1577.92 556.598 1564.06 556.598 1560.91 556.598C1558.97 556.598 1557 556.724 1555.91 556.808V550.844C1557.17 551.012 1559.52 551.222 1560.91 551.222C1564.06 551.222 1578 551.222 1580.35 551.222C1581.19 551.222 1582.54 551.18 1583.63 550.886L1587.79 553.532ZM1629.32 548.408C1629.24 549.584 1629.2 550.928 1629.2 552.65C1629.2 554.792 1629.2 558.866 1629.2 560.924C1629.2 569.996 1627.43 573.86 1624.28 577.304C1621.51 580.37 1617.19 582.386 1614.12 583.394L1609.71 578.732C1613.91 577.766 1617.27 576.17 1619.83 573.44C1622.69 570.29 1623.28 567.14 1623.28 560.588C1623.28 558.488 1623.28 554.456 1623.28 552.65C1623.28 550.928 1623.15 549.584 1622.98 548.408H1629.32ZM1609.88 548.786C1609.79 549.752 1609.71 550.676 1609.71 551.978C1609.71 553.826 1609.71 563.822 1609.71 566.174C1609.71 567.224 1609.79 568.862 1609.88 569.828H1603.75C1603.83 569.072 1603.96 567.434 1603.96 566.132C1603.96 563.738 1603.96 553.826 1603.96 551.978C1603.96 551.222 1603.91 549.752 1603.79 548.786H1609.88Z" fill="#081F5C"/>
<path d="M1204 753H1254" stroke="#081F5C" stroke-width="8" stroke-linecap="round"/>
<path d="M1229 778V728" stroke="#081F5C" stroke-width="8" stroke-linecap="round"/>
<path d="M1486 750H1536" stroke="#081F5C" stroke-width="8" stroke-linecap="round"/>
<path d="M1511 775V725" stroke="#081F5C" stroke-width="8" stroke-linecap="round"/>
<defs>
<linearGradient id="paint0_linear_66_2963" x1="212.999" y1="747.043" x2="377.454" y2="580.873" gradientUnits="userSpaceOnUse">
<stop stop-color="#F3BDC2"/>
<stop offset="1" stop-color="#7F6AAD"/>
</linearGradient>
<linearGradient id="paint1_linear_66_2963" x1="422.653" y1="747.059" x2="258.192" y2="580.883" gradientUnits="userSpaceOnUse">
<stop stop-color="#F3BDC2"/>
<stop offset="1" stop-color="#7F6AAD"/>
</linearGradient>
<linearGradient id="paint2_linear_66_2963" x1="237.026" y1="587.864" x2="397.48" y2="755.979" gradientUnits="userSpaceOnUse">
<stop stop-color="#F3BDC2"/>
<stop offset="1" stop-color="#7F6AAD"/>
</linearGradient>
<linearGradient id="paint3_linear_66_2963" x1="47.6519" y1="490.947" x2="305.938" y2="644.784" gradientUnits="userSpaceOnUse">
<stop stop-color="#F3BDC2"/>
<stop offset="1" stop-color="#7F6AAD"/>
</linearGradient>
<linearGradient id="paint4_linear_66_2963" x1="245.433" y1="655.708" x2="413.658" y2="806.265" gradientUnits="userSpaceOnUse">
<stop stop-color="#F3BDC2"/>
<stop offset="1" stop-color="#7F6AAD"/>
</linearGradient>
<linearGradient id="paint5_linear_66_2963" x1="242.071" y1="518.441" x2="387.017" y2="669.784" gradientUnits="userSpaceOnUse">
<stop stop-color="#F3BDC2"/>
<stop offset="1" stop-color="#7F6AAD"/>
</linearGradient>
<linearGradient id="paint6_linear_66_2963" x1="150" y1="580.915" x2="321.178" y2="580.915" gradientUnits="userSpaceOnUse">
<stop stop-color="#F3BDC2"/>
<stop offset="1" stop-color="#7F6AAD"/>
</linearGradient>
<linearGradient id="paint7_linear_66_2963" x1="488.999" y1="580.915" x2="317.821" y2="580.915" gradientUnits="userSpaceOnUse">
<stop stop-color="#F3BDC2"/>
<stop offset="1" stop-color="#7F6AAD"/>
</linearGradient>
<linearGradient id="paint8_linear_66_2963" x1="723.945" y1="835.999" x2="723.945" y2="664.821" gradientUnits="userSpaceOnUse">
<stop stop-color="#F3BDC2"/>
<stop offset="1" stop-color="#7F6AAD"/>
</linearGradient>
<clipPath id="clip0_66_2963">
<rect width="80" height="80" fill="white" transform="translate(1047.5 682)"/>
</clipPath>
<clipPath id="clip1_66_2963">
<rect width="80" height="64" fill="white" transform="translate(1330 698)"/>
</clipPath>
<clipPath id="clip2_66_2963">
<rect width="80" height="91.4286" fill="white" transform="translate(1602.5 671)"/>
</clipPath>
</defs>
</svg>
