<svg width="1920" height="1080" viewBox="0 0 1920 1080" fill="none" xmlns="http://www.w3.org/2000/svg">
<rect width="1920" height="1080" fill="#F4F5F9"/>
<path d="M1344 756.5C1345.38 756.5 1346.5 755.381 1346.5 754C1346.5 752.619 1345.38 751.5 1344 751.5V756.5ZM1174.23 752.232C1173.26 753.209 1173.26 754.791 1174.23 755.768L1190.14 771.678C1191.12 772.654 1192.7 772.654 1193.68 771.678C1194.65 770.701 1194.65 769.118 1193.68 768.142L1179.54 754L1193.68 739.858C1194.65 738.882 1194.65 737.299 1193.68 736.322C1192.7 735.346 1191.12 735.346 1190.14 736.322L1174.23 752.232ZM1344 751.5H1176V756.5H1344V751.5Z" fill="#EEBAC2"/>
<path d="M172.5 170.84C161.64 170.84 155.22 164.78 155.22 150.08V125.6H164.04V150.86C164.04 160.04 167.28 163.16 172.5 163.16C177.72 163.16 181.14 160.04 181.14 150.86V125.6H189.66V150.08C189.66 164.78 183.36 170.84 172.5 170.84ZM211.403 170.84C206.903 170.84 201.923 168.92 198.623 166.16L202.583 160.58C205.643 162.92 208.463 164.3 211.583 164.3C214.943 164.3 216.503 162.8 216.503 160.7C216.503 158.24 212.963 157.04 209.483 155.72C205.223 154.04 200.483 151.52 200.483 145.82C200.483 139.88 205.283 135.62 212.963 135.62C217.823 135.62 221.663 137.6 224.423 139.76L220.403 145.04C218.063 143.36 215.663 142.16 213.203 142.16C210.143 142.16 208.763 143.48 208.763 145.46C208.763 147.86 211.823 148.82 215.423 150.08C219.863 151.76 224.723 154.04 224.723 160.22C224.723 166.16 220.103 170.84 211.403 170.84ZM249.15 170.84C239.73 170.84 232.41 164.36 232.41 153.26C232.41 142.34 240.09 135.62 248.01 135.62C257.31 135.62 262.05 142.34 262.05 151.64C262.05 153.32 261.87 154.88 261.69 155.72H240.93C241.71 161.24 245.31 164.06 250.29 164.06C252.99 164.06 255.39 163.22 257.85 161.72L260.79 167.18C257.49 169.46 253.29 170.84 249.15 170.84ZM240.81 149.84H254.55C254.55 145.28 252.51 142.4 248.19 142.4C244.65 142.4 241.53 144.92 240.81 149.84ZM272.373 170V136.46H279.513L280.233 142.4H280.413C282.813 137.96 286.473 135.62 289.953 135.62C291.753 135.62 292.833 135.86 293.853 136.34L292.353 143.9C291.153 143.6 290.253 143.36 288.813 143.36C286.233 143.36 283.053 145.16 281.193 150.02V170H272.373ZM318.878 170V125.6H346.238V132.98H327.758V144.62H343.538V152H327.758V170H318.878ZM364.536 170.84C358.356 170.84 356.256 166.82 356.256 160.58V122.18H365.076V160.94C365.076 163.04 365.976 163.7 366.816 163.7C367.116 163.7 367.356 163.7 367.956 163.58L369.036 170.12C368.016 170.48 366.636 170.84 364.536 170.84ZM392.221 170.84C383.761 170.84 376.081 164.36 376.081 153.26C376.081 142.1 383.761 135.62 392.221 135.62C400.621 135.62 408.301 142.1 408.301 153.26C408.301 164.36 400.621 170.84 392.221 170.84ZM392.221 163.7C396.781 163.7 399.301 159.56 399.301 153.26C399.301 146.9 396.781 142.82 392.221 142.82C387.601 142.82 385.081 146.9 385.081 153.26C385.081 159.56 387.601 163.7 392.221 163.7ZM423.44 170L414.8 136.46H423.56L427.28 153.02C427.88 156.32 428.3 159.5 428.9 162.8H429.2C429.8 159.5 430.4 156.26 431.24 153.02L435.32 136.46H443.12L447.32 153.02C448.1 156.32 448.76 159.5 449.48 162.8H449.78C450.38 159.5 450.8 156.32 451.46 153.02L455.06 136.46H463.28L454.94 170H444.56L441.02 155.36C440.3 152.24 439.76 149.18 439.1 145.58H438.8C438.2 149.18 437.66 152.24 436.94 155.42L433.52 170H423.44ZM482.317 170.84C477.817 170.84 472.837 168.92 469.537 166.16L473.497 160.58C476.557 162.92 479.377 164.3 482.497 164.3C485.857 164.3 487.417 162.8 487.417 160.7C487.417 158.24 483.877 157.04 480.397 155.72C476.137 154.04 471.397 151.52 471.397 145.82C471.397 139.88 476.197 135.62 483.877 135.62C488.737 135.62 492.577 137.6 495.337 139.76L491.317 145.04C488.977 143.36 486.577 142.16 484.117 142.16C481.057 142.16 479.677 143.48 479.677 145.46C479.677 147.86 482.737 148.82 486.337 150.08C490.777 151.76 495.637 154.04 495.637 160.22C495.637 166.16 491.017 170.84 482.317 170.84Z" fill="#081F5C"/>
<path d="M303.5 399C303.5 397.619 302.381 396.5 301 396.5C299.619 396.5 298.5 397.619 298.5 399L303.5 399ZM299.232 480.768C300.209 481.744 301.791 481.744 302.768 480.768L318.678 464.858C319.654 463.882 319.654 462.299 318.678 461.322C317.701 460.346 316.118 460.346 315.142 461.322L301 475.464L286.858 461.322C285.882 460.346 284.299 460.346 283.322 461.322C282.346 462.299 282.346 463.882 283.322 464.858L299.232 480.768ZM298.5 399L298.5 479L303.5 479L303.5 399L298.5 399Z" fill="#EEBAC2"/>
<path d="M406 493C406 494.381 407.119 495.5 408.5 495.5C409.881 495.5 411 494.381 411 493L406 493ZM411 493L411 453L406 453L406 493L411 493Z" fill="#EEBAC2"/>
<path d="M408.5 449.5H406V454.5H408.5V449.5ZM585.268 453.768C586.244 452.791 586.244 451.209 585.268 450.232L569.358 434.322C568.382 433.346 566.799 433.346 565.822 434.322C564.846 435.299 564.846 436.882 565.822 437.858L579.964 452L565.822 466.142C564.846 467.118 564.846 468.701 565.822 469.678C566.799 470.654 568.382 470.654 569.358 469.678L585.268 453.768ZM408.5 454.5H583.5V449.5H408.5V454.5Z" fill="#EEBAC2"/>
<path d="M410.5 614C410.5 612.619 409.381 611.5 408 611.5C406.619 611.5 405.5 612.619 405.5 614L410.5 614ZM405.5 614L405.5 727L410.5 727L410.5 614L405.5 614Z" fill="#EEBAC2"/>
<path d="M408 730.5H405.5V725.5H408V730.5ZM584.768 726.232C585.744 727.209 585.744 728.791 584.768 729.768L568.858 745.678C567.882 746.654 566.299 746.654 565.322 745.678C564.346 744.701 564.346 743.118 565.322 742.142L579.464 728L565.322 713.858C564.346 712.882 564.346 711.299 565.322 710.322C566.299 709.346 567.882 709.346 568.858 710.322L584.768 726.232ZM408 725.5H583V730.5H408V725.5Z" fill="#EEBAC2"/>
<path d="M1341.5 754C1341.5 755.381 1342.62 756.5 1344 756.5C1345.38 756.5 1346.5 755.381 1346.5 754L1341.5 754ZM1346.5 754L1346.5 429.78L1341.5 429.78L1341.5 754L1346.5 754Z" fill="#EEBAC2"/>
<path d="M1344 427.5C1345.38 427.5 1346.5 428.619 1346.5 430C1346.5 431.381 1345.38 432.5 1344 432.5L1344 427.5ZM1156.23 431.768C1155.26 430.791 1155.26 429.209 1156.23 428.232L1172.14 412.322C1173.12 411.346 1174.7 411.346 1175.68 412.322C1176.65 413.299 1176.65 414.882 1175.68 415.858L1161.54 430L1175.68 444.142C1176.65 445.118 1176.65 446.701 1175.68 447.678C1174.7 448.654 1173.12 448.654 1172.14 447.678L1156.23 431.768ZM1344 432.5L1158 432.5L1158 427.5L1344 427.5L1344 432.5Z" fill="#EEBAC2"/>
<rect x="151.5" y="287.5" width="297" height="117" rx="58.5" fill="white" stroke="#081F5C" stroke-width="3"/>
<path d="M219.612 373.912C224.266 372.716 228.062 371.026 230.974 369.232C233.626 367.594 236.59 364.994 238.28 362.94L241.088 365.592C238.722 367.984 235.55 370.428 232.482 372.274C229.544 374.016 225.332 375.966 221.224 377.188L219.612 373.912ZM230.428 370.922L234.12 370.038V381.764C234.12 382.908 234.172 384.52 234.354 385.17H230.22C230.324 384.546 230.428 382.908 230.428 381.764V370.922ZM251.566 364.24C253.36 365.462 256.74 368.166 258.274 369.752L255.622 372.456C254.27 371 250.994 368.166 249.096 366.866L251.566 364.24ZM248.29 381.556C252.372 380.984 255.726 379.658 258.248 378.176C262.694 375.524 266.074 371.572 267.738 368.062L269.74 371.702C267.79 375.238 264.332 378.826 260.146 381.348C257.494 382.934 254.14 384.364 250.5 384.988L248.29 381.556ZM293.75 366.398C293.542 366.684 293.074 367.464 292.84 368.01C291.774 370.48 289.85 374.016 287.614 376.616C284.702 379.97 280.776 383.194 276.746 385.092L274.042 382.284C278.254 380.724 282.258 377.552 284.702 374.848C286.418 372.898 288.004 370.324 288.602 368.478C287.51 368.478 280.88 368.478 279.762 368.478C278.696 368.478 277.266 368.608 276.694 368.66V364.942C277.396 365.046 279.008 365.124 279.762 365.124C281.14 365.124 287.796 365.124 288.94 365.124C290.084 365.124 291.098 364.994 291.644 364.812L293.75 366.398ZM287.952 374.458C290.63 376.642 294.322 380.516 296.012 382.596L293.048 385.17C291.124 382.492 288.29 379.398 285.508 376.876L287.952 374.458ZM307.53 381.53C307.53 379.528 307.53 368.764 307.53 366.58C307.53 365.644 307.452 364.37 307.27 363.434H311.326C311.222 364.37 311.092 365.488 311.092 366.58C311.092 369.44 311.118 379.606 311.118 381.53C311.118 382.258 311.222 384.078 311.352 385.144H307.27C307.452 384.13 307.53 382.544 307.53 381.53ZM310.338 370.168C313.796 371.13 319.412 373.184 321.96 374.432L320.504 378.046C317.54 376.512 313.172 374.848 310.338 373.912V370.168ZM329.058 371.962C330.02 372.04 331.892 372.144 333.244 372.144C336.312 372.144 344.892 372.144 347.206 372.144C348.428 372.144 349.572 372.014 350.274 371.962V376.07C349.65 376.044 348.324 375.914 347.232 375.914C344.866 375.914 336.312 375.914 333.244 375.914C331.788 375.914 330.046 375.992 329.058 376.07V371.962ZM367.044 383.428C367.174 382.934 367.252 382.232 367.252 381.53C367.252 380.152 367.252 368.478 367.252 366.372C367.252 365.202 367.07 364.188 367.07 364.136H370.918C370.918 364.188 370.736 365.228 370.736 366.398C370.736 368.478 370.736 378.384 370.736 379.97C372.868 379.06 375.416 377.006 377.184 374.484L379.16 377.37C377.002 380.178 373.284 382.986 370.346 384.468C369.8 384.754 369.488 385.04 369.228 385.222L367.044 383.428ZM355.006 383.064C357.32 381.452 358.724 379.06 359.426 376.824C360.18 374.614 360.206 369.674 360.206 366.554C360.206 365.488 360.102 364.812 359.946 364.162H363.768C363.768 364.266 363.586 365.436 363.586 366.502C363.586 369.596 363.508 375.082 362.832 377.708C362.026 380.62 360.414 383.194 358.178 385.17L355.006 383.064Z" fill="#081F5C"/>
<rect x="151.5" y="495.5" width="297" height="117" rx="8.5" fill="white" stroke="#081F5C" stroke-width="3"/>
<path d="M199.09 546.01C199.09 546.97 199.87 547.75 200.83 547.75C201.79 547.75 202.57 546.97 202.57 546.01C202.57 545.05 201.79 544.27 200.83 544.27C199.87 544.27 199.09 545.05 199.09 546.01ZM197.23 546.01C197.23 544.03 198.85 542.41 200.83 542.41C202.81 542.41 204.43 544.03 204.43 546.01C204.43 547.99 202.81 549.61 200.83 549.61C198.85 549.61 197.23 547.99 197.23 546.01ZM200.89 548.38C200.59 548.95 200.38 549.82 200.23 550.45C199.54 553.39 198.22 558.07 195.7 561.4C193 565 189.01 567.97 183.64 569.68L180.37 566.08C186.34 564.7 189.73 562.09 192.13 559.06C194.14 556.57 195.28 553.15 195.67 550.57C193.84 550.57 183.94 550.57 181.69 550.57C180.31 550.57 178.9 550.66 178.12 550.72V546.46C179.02 546.58 180.7 546.73 181.69 546.73C183.94 546.73 193.9 546.73 195.58 546.73C196.18 546.73 197.14 546.7 197.92 546.49L200.89 548.38ZM210.28 546.73C211.48 546.76 212.62 546.79 213.43 546.79C215.62 546.79 227.8 546.79 229.96 546.79C230.71 546.79 231.82 546.79 232.93 546.76C232.87 547.66 232.87 548.74 232.87 549.67C232.87 551.5 232.87 562.54 232.87 564.37C232.87 565.54 232.9 568.42 232.93 568.54H228.76C228.76 568.42 228.85 566.08 228.85 564.43C228.85 562.69 228.85 550.63 228.85 550.63H214.33C214.33 550.63 214.33 562.66 214.33 564.43C214.33 565.87 214.36 568.39 214.36 568.54H210.25C210.25 568.39 210.31 565.75 210.31 564.31C210.31 562.51 210.31 551.41 210.31 549.67C210.31 548.8 210.31 547.6 210.28 546.73ZM230.32 563.08V566.89H212.29V563.08H230.32ZM264.67 548.05C264.37 548.62 264.16 549.49 264.01 550.12C263.32 553.06 262 557.71 259.48 561.07C256.78 564.64 252.79 567.64 247.42 569.35L244.15 565.75C250.12 564.37 253.48 561.76 255.91 558.73C257.92 556.21 259.03 552.82 259.45 550.24C257.62 550.24 247.72 550.24 245.47 550.24C244.09 550.24 242.68 550.33 241.9 550.36V546.13C242.8 546.25 244.48 546.37 245.47 546.37C247.72 546.37 257.68 546.37 259.36 546.37C259.93 546.37 260.89 546.34 261.7 546.16L264.67 548.05ZM272.094 559.48C276.024 558.61 280.464 556.6 282.834 555.16C285.774 553.39 288.774 550.72 290.334 548.77L293.304 551.68C291.504 553.63 287.874 556.45 284.604 558.37C281.904 559.96 277.284 561.97 273.864 562.99L272.094 559.48ZM282.504 557.53L286.584 556.75V567.4C286.584 568.48 286.614 570.07 286.794 570.67H282.324C282.414 570.07 282.504 568.48 282.504 567.4V557.53ZM303.144 554.11C304.254 554.2 306.414 554.32 307.974 554.32C311.514 554.32 321.414 554.32 324.084 554.32C325.494 554.32 326.814 554.17 327.624 554.11V558.85C326.904 558.82 325.374 558.67 324.114 558.67C321.384 558.67 311.514 558.67 307.974 558.67C306.294 558.67 304.284 558.76 303.144 558.85V554.11ZM346.974 567.34C347.124 566.77 347.214 565.96 347.214 565.15C347.214 563.56 347.214 550.09 347.214 547.66C347.214 546.31 347.004 545.14 347.004 545.08H351.444C351.444 545.14 351.234 546.34 351.234 547.69C351.234 550.09 351.234 561.52 351.234 563.35C353.694 562.3 356.634 559.93 358.674 557.02L360.954 560.35C358.464 563.59 354.174 566.83 350.784 568.54C350.154 568.87 349.794 569.2 349.494 569.41L346.974 567.34ZM333.084 566.92C335.754 565.06 337.374 562.3 338.184 559.72C339.054 557.17 339.084 551.47 339.084 547.87C339.084 546.64 338.964 545.86 338.784 545.11H343.194C343.194 545.23 342.984 546.58 342.984 547.81C342.984 551.38 342.894 557.71 342.114 560.74C341.184 564.1 339.324 567.07 336.744 569.35L333.084 566.92ZM372.894 550.54H383.994V553.54H372.894V550.54ZM365.514 567.16H391.434V570.1H365.514V567.16ZM367.254 543.64H375.654V546.55H367.254V543.64ZM374.514 543.64H375.114L375.744 543.49L378.084 544.66C375.864 550.54 371.124 554.83 366.084 557.26C365.604 556.51 364.644 555.28 363.924 554.65C368.394 552.76 372.864 548.68 374.514 544.24V543.64ZM381.354 542.62C383.424 547.51 387.624 551.86 392.844 553.84C392.004 554.56 390.954 555.91 390.414 556.84C384.894 554.32 380.784 549.52 378.294 543.58L381.354 542.62ZM365.814 549.04L367.734 547.06C369.084 547.81 370.734 548.98 371.514 549.88L369.504 552.07C368.724 551.17 367.104 549.88 365.814 549.04ZM385.974 542.8L388.674 544.72C387.024 546.13 385.074 547.6 383.574 548.56L381.414 546.88C382.854 545.86 384.834 544.12 385.974 542.8ZM389.364 546.31L392.004 548.17C390.294 549.67 388.224 551.23 386.634 552.22L384.474 550.54C386.034 549.46 388.134 547.69 389.364 546.31ZM373.164 558.13V560.77H383.424V558.13H373.164ZM369.654 555.25H387.144V563.62H369.654V555.25ZM371.394 564.01L374.694 563.17C375.474 564.25 376.134 565.78 376.404 566.8L372.954 567.79C372.744 566.77 372.084 565.18 371.394 564.01ZM382.104 563.14L385.584 563.89C384.834 565.36 384.144 566.71 383.544 567.67L380.394 566.95C380.994 565.9 381.744 564.28 382.104 563.14ZM421.194 556.03L424.014 557.74C422.754 559.12 421.434 560.56 420.354 561.52L418.104 560.02C419.094 558.97 420.444 557.26 421.194 556.03ZM407.844 557.98L410.184 556.45C411.414 557.56 412.734 559.12 413.304 560.26L410.784 561.94C410.304 560.8 409.014 559.15 407.844 557.98ZM409.134 543.55H421.524V554.08H418.194V546.49H409.134V543.55ZM409.794 548.08H420.084V550.84H409.794V548.08ZM407.694 552.37H423.774V555.43H407.694V552.37ZM413.874 553.93H417.204V567.31C417.204 568.78 417.024 569.65 416.064 570.16C415.164 570.67 413.964 570.7 412.314 570.7C412.224 569.8 411.834 568.51 411.444 567.61C412.284 567.64 413.184 567.64 413.484 567.64C413.784 567.64 413.874 567.55 413.874 567.22V553.93ZM406.824 565.78C408.354 564.91 410.604 563.5 412.824 562.06L413.904 564.76C412.134 566.11 410.184 567.52 408.474 568.66L406.824 565.78ZM417.114 556.06C418.074 559.63 420.354 564.1 424.464 566.2C423.744 566.83 422.664 568.24 422.154 569.14C418.224 566.62 416.064 561.46 415.134 557.98L417.114 556.06ZM397.914 550H406.794V553H397.914V550ZM396.474 555.19H407.424V558.25H396.474V555.19ZM396.774 559.93L399.054 559.36C399.564 561.04 399.984 563.14 400.134 564.58L397.704 565.21C397.644 563.77 397.224 561.61 396.774 559.93ZM396.144 566.8C398.994 566.38 403.254 565.6 407.304 564.88L407.574 567.85C403.824 568.63 399.864 569.47 396.834 570.07L396.144 566.8ZM405.084 559.12L407.664 559.75C407.124 561.46 406.644 563.35 406.194 564.61L404.034 564.01C404.424 562.66 404.874 560.56 405.084 559.12ZM400.584 551.2H403.674V567.37L400.584 567.91V551.2ZM400.434 542.53H402.324V543.19H403.344V544.12C402.174 546.4 400.344 549.49 397.374 552.19C396.894 551.47 395.874 550.33 395.214 549.85C397.734 547.69 399.504 544.87 400.434 542.53ZM400.884 542.53H403.404C405.144 544.03 407.364 546.19 408.444 547.72L406.134 550.48C405.174 548.95 403.134 546.43 401.514 545.08H400.884V542.53Z" fill="#081F5C"/>
<path d="M275.961 345.127C270.195 339.421 267.02 331.84 267.02 323.781C267.02 315.722 270.196 308.141 275.961 302.436L277.911 304.365C267.092 315.072 267.092 332.492 277.911 343.199L275.961 345.129V345.127Z" fill="url(#paint0_linear_76_103)"/>
<path d="M281.603 345.129L279.653 343.199C290.472 332.492 290.472 315.072 279.653 304.365L281.603 302.436C287.369 308.142 290.545 315.723 290.545 323.782C290.545 331.841 287.369 339.422 281.603 345.129Z" fill="url(#paint1_linear_76_103)"/>
<path d="M299.693 322.911H258.743V325.525H299.693V322.911Z" fill="url(#paint2_linear_76_103)"/>
<path d="M280.089 303.743H277.475V344.693H280.089V303.743Z" fill="url(#paint3_linear_76_103)"/>
<path d="M297.515 332.06H260.921V335.109H297.515V332.06Z" fill="url(#paint4_linear_76_103)"/>
<path d="M297.079 312.891H260.485V315.505H297.079V312.891Z" fill="url(#paint5_linear_76_103)"/>
<path d="M279.218 346C273.279 346 267.699 343.69 263.504 339.496C259.309 335.303 257 329.721 257 323.782H259.756C259.756 334.513 268.487 343.244 279.218 343.244V346Z" fill="#002256"/>
<path d="M278.782 346V343.244C289.513 343.244 298.244 334.513 298.244 323.782H301C301 329.721 298.69 335.301 294.496 339.496C290.303 343.691 284.721 346 278.782 346Z" fill="#002256"/>
<path d="M259.756 323.782H257C257 317.96 259.31 312.489 263.504 308.376C267.697 304.264 273.278 302 279.218 302V304.702C268.487 304.702 259.756 313.261 259.756 323.782Z" fill="url(#paint6_linear_76_103)"/>
<path d="M301 323.782H298.244C298.244 313.261 289.513 304.702 278.782 304.702V302C284.721 302 290.301 304.265 294.496 308.376C298.691 312.488 301 317.96 301 323.782Z" fill="url(#paint7_linear_76_103)"/>
<path d="M320.604 346L320.604 343.244C331.125 343.244 339.684 334.513 339.684 323.782L342.386 323.782C342.386 329.721 340.121 335.301 336.01 339.496C331.899 343.691 326.426 346 320.604 346Z" fill="url(#paint8_linear_76_103)"/>
<path d="M301.006 323.782H298.25C298.25 317.96 300.56 312.489 304.754 308.376C308.947 304.264 314.528 302 320.468 302V304.702C309.737 304.702 301.006 313.261 301.006 323.782Z" fill="#002256"/>
<path d="M342.386 323.782H339.63C339.63 313.261 330.899 304.702 320.168 304.702V302C326.107 302 331.688 304.265 335.882 308.376C340.077 312.488 342.386 317.96 342.386 323.782Z" fill="#002256"/>
<path d="M326.859 327.98V318.845H328.509V324.324H328.567L330.744 321.573H332.601L330.401 324.209L332.796 327.98H330.974L329.415 325.321L328.509 326.364V327.98H326.859Z" fill="#081F5C"/>
<path d="M319.287 327.981V321.574H320.651L320.788 322.422H320.823C321.373 321.872 322.038 321.413 322.909 321.413C324.284 321.413 324.892 322.376 324.892 323.981V327.981H323.207V324.198C323.207 323.19 322.92 322.857 322.301 322.857C321.774 322.857 321.442 323.109 320.972 323.568V327.981H319.287Z" fill="#081F5C"/>
<path d="M315.576 327.981V321.573H317.261V327.981H315.576ZM316.413 320.53C315.828 320.53 315.439 320.163 315.439 319.602C315.439 319.052 315.828 318.696 316.413 318.696C316.998 318.696 317.399 319.052 317.399 319.602C317.399 320.163 316.998 320.53 316.413 320.53Z" fill="#081F5C"/>
<path d="M308.858 327.98V319.499H310.554V326.559H314.005V327.98H308.858Z" fill="#081F5C"/>
<rect x="604.5" y="310.5" width="597" height="247" rx="18.5" fill="white" stroke="#081F5C" stroke-width="3" stroke-dasharray="6 6"/>
<rect x="604.5" y="633.5" width="597" height="247" rx="18.5" fill="white" stroke="#081F5C" stroke-width="3" stroke-dasharray="6 6"/>
<path d="M863 431.5C861.619 431.5 860.5 432.619 860.5 434C860.5 435.381 861.619 436.5 863 436.5V431.5ZM944.768 435.768C945.744 434.791 945.744 433.209 944.768 432.232L928.858 416.322C927.882 415.346 926.299 415.346 925.322 416.322C924.346 417.299 924.346 418.882 925.322 419.858L939.464 434L925.322 448.142C924.346 449.118 924.346 450.701 925.322 451.678C926.299 452.654 927.882 452.654 928.858 451.678L944.768 435.768ZM863 436.5H943V431.5H863V436.5Z" fill="#EEBAC2"/>
<path d="M863 754.5C861.619 754.5 860.5 755.619 860.5 757C860.5 758.381 861.619 759.5 863 759.5V754.5ZM944.768 758.768C945.744 757.791 945.744 756.209 944.768 755.232L928.858 739.322C927.882 738.346 926.299 738.346 925.322 739.322C924.346 740.299 924.346 741.882 925.322 742.858L939.464 757L925.322 771.142C924.346 772.118 924.346 773.701 925.322 774.678C926.299 775.654 927.882 775.654 928.858 774.678L944.768 758.768ZM863 759.5H943V754.5H863V759.5Z" fill="#EEBAC2"/>
<path d="M1448 589.5C1446.62 589.5 1445.5 590.619 1445.5 592C1445.5 593.381 1446.62 594.5 1448 594.5V589.5ZM1529.77 593.768C1530.74 592.791 1530.74 591.209 1529.77 590.232L1513.86 574.322C1512.88 573.346 1511.3 573.346 1510.32 574.322C1509.35 575.299 1509.35 576.882 1510.32 577.858L1524.46 592L1510.32 606.142C1509.35 607.118 1509.35 608.701 1510.32 609.678C1511.3 610.654 1512.88 610.654 1513.86 609.678L1529.77 593.768ZM1448 594.5H1528V589.5H1448V594.5Z" fill="#EEBAC2"/>
<path d="M1650.5 619C1650.5 617.619 1649.38 616.5 1648 616.5C1646.62 616.5 1645.5 617.619 1645.5 619L1650.5 619ZM1646.23 700.768C1647.21 701.744 1648.79 701.744 1649.77 700.768L1665.68 684.858C1666.65 683.882 1666.65 682.299 1665.68 681.322C1664.7 680.346 1663.12 680.346 1662.14 681.322L1648 695.464L1633.86 681.322C1632.88 680.346 1631.3 680.346 1630.32 681.322C1629.35 682.299 1629.35 683.882 1630.32 684.858L1646.23 700.768ZM1645.5 619L1645.5 699L1650.5 699L1650.5 619L1645.5 619Z" fill="#EEBAC2"/>
<path d="M1650.5 777C1650.5 775.619 1649.38 774.5 1648 774.5C1646.62 774.5 1645.5 775.619 1645.5 777L1650.5 777ZM1646.23 858.768C1647.21 859.744 1648.79 859.744 1649.77 858.768L1665.68 842.858C1666.65 841.882 1666.65 840.299 1665.68 839.322C1664.7 838.346 1663.12 838.346 1662.14 839.322L1648 853.464L1633.86 839.322C1632.88 838.346 1631.3 838.346 1630.32 839.322C1629.35 840.299 1629.35 841.882 1630.32 842.858L1646.23 858.768ZM1645.5 777L1645.5 857L1650.5 857L1650.5 777L1645.5 777Z" fill="#EEBAC2"/>
<path d="M654.5 364C654.5 353.783 662.783 345.5 673 345.5H833C843.217 345.5 851.5 353.783 851.5 364V504C851.5 514.217 843.217 522.5 833 522.5H673C662.783 522.5 654.5 514.217 654.5 504V364Z" fill="#F4F5F9" stroke="#081F5C" stroke-width="3"/>
<path d="M654.5 687C654.5 676.783 662.783 668.5 673 668.5H833C843.217 668.5 851.5 676.783 851.5 687V827C851.5 837.217 843.217 845.5 833 845.5H673C662.783 845.5 654.5 837.217 654.5 827V687Z" fill="#F4F5F9" stroke="#081F5C" stroke-width="3"/>
<rect x="954.5" y="345.5" width="197" height="177" rx="18.5" fill="#F4F5F9" stroke="#081F5C" stroke-width="3"/>
<rect x="954.5" y="668.5" width="197" height="177" rx="18.5" fill="#F4F5F9" stroke="#081F5C" stroke-width="3"/>
<path d="M603 302L610.29 279.92H614.34L621.63 302H617.94L614.4 290.03C613.65 287.63 612.99 285.14 612.3 282.68H612.18C611.52 285.17 610.86 287.63 610.11 290.03L606.54 302H603ZM607.11 295.73V293H617.43V295.73H607.11ZM625.742 308.69V285.5H628.562L628.862 287.33H628.952C630.392 286.1 632.162 285.08 634.022 285.08C638.192 285.08 640.562 288.41 640.562 293.51C640.562 299.15 637.172 302.42 633.452 302.42C631.982 302.42 630.482 301.76 629.102 300.56L629.222 303.35V308.69H625.742ZM632.792 299.54C635.162 299.54 636.992 297.41 636.992 293.54C636.992 290.09 635.852 287.96 633.092 287.96C631.832 287.96 630.602 288.65 629.222 289.97V298.04C630.512 299.15 631.772 299.54 632.792 299.54ZM646.139 308.69V285.5H648.959L649.259 287.33H649.349C650.789 286.1 652.559 285.08 654.419 285.08C658.589 285.08 660.959 288.41 660.959 293.51C660.959 299.15 657.569 302.42 653.849 302.42C652.379 302.42 650.879 301.76 649.499 300.56L649.619 303.35V308.69H646.139ZM653.189 299.54C655.559 299.54 657.389 297.41 657.389 293.54C657.389 290.09 656.249 287.96 653.489 287.96C652.229 287.96 650.999 288.65 649.619 289.97V298.04C650.909 299.15 652.169 299.54 653.189 299.54ZM669.985 302.42C667.465 302.42 666.535 300.8 666.535 298.13V278.12H670.015V298.31C670.015 299.24 670.405 299.57 670.825 299.57C670.975 299.57 671.095 299.57 671.395 299.51L671.845 302.12C671.395 302.27 670.855 302.42 669.985 302.42ZM677.751 308.9C676.911 308.9 676.251 308.78 675.681 308.57L676.341 305.87C676.641 305.99 677.121 306.11 677.541 306.11C679.311 306.11 680.391 304.79 680.991 303.02L681.321 301.88L674.781 285.5H678.321L681.351 293.99C681.861 295.46 682.341 297.11 682.881 298.67H683.031C683.421 297.14 683.871 295.52 684.291 293.99L686.961 285.5H690.321L684.261 303.02C682.971 306.53 681.231 308.9 677.751 308.9Z" fill="#081F5C"/>
<path d="M605.88 624V601.92H613.11C617.67 601.92 621.09 603.54 621.09 608.34C621.09 612.96 617.67 615.09 613.11 615.09H609.39V624H605.88ZM609.39 612.3H612.72C615.9 612.3 617.64 610.98 617.64 608.34C617.64 605.67 615.9 604.74 612.72 604.74H609.39V612.3ZM617.97 624L612.45 614.19L615.03 612.15L621.87 624H617.97ZM633.199 624.42C628.699 624.42 625.159 621.21 625.159 615.78C625.159 610.41 628.849 607.08 632.689 607.08C637.039 607.08 639.409 610.23 639.409 614.91C639.409 615.6 639.349 616.26 639.259 616.68H628.549C628.819 619.83 630.799 621.69 633.649 621.69C635.119 621.69 636.349 621.24 637.579 620.46L638.779 622.68C637.249 623.7 635.359 624.42 633.199 624.42ZM628.489 614.28H636.409C636.409 611.43 635.149 609.81 632.749 609.81C630.679 609.81 628.849 611.4 628.489 614.28ZM651.511 624.42C647.071 624.42 643.651 621.24 643.651 615.78C643.651 610.26 647.461 607.08 651.811 607.08C653.911 607.08 655.441 607.92 656.611 609L654.931 611.22C654.031 610.44 653.101 609.96 651.991 609.96C649.171 609.96 647.221 612.27 647.221 615.78C647.221 619.26 649.111 621.57 651.871 621.57C653.251 621.57 654.481 620.91 655.471 620.07L656.881 622.38C655.381 623.7 653.431 624.42 651.511 624.42ZM661.789 624V607.5H664.609L664.909 610.47H664.999C666.169 608.34 667.909 607.08 669.679 607.08C670.489 607.08 670.999 607.2 671.509 607.44L670.909 610.44C670.339 610.26 669.919 610.17 669.229 610.17C667.909 610.17 666.289 611.13 665.269 613.74V624H661.789ZM680.424 624.42C676.914 624.42 675.354 622.08 675.354 617.88V607.5H678.804V617.46C678.804 620.31 679.644 621.42 681.594 621.42C683.124 621.42 684.174 620.7 685.554 618.96V607.5H689.004V624H686.154L685.884 621.51H685.794C684.294 623.25 682.704 624.42 680.424 624.42ZM695.668 624V607.5H699.148V624H695.668ZM697.408 604.41C696.118 604.41 695.278 603.6 695.278 602.34C695.278 601.11 696.118 600.3 697.408 600.3C698.668 600.3 699.568 601.11 699.568 602.34C699.568 603.6 698.668 604.41 697.408 604.41ZM711.36 624.42C707.67 624.42 706.35 622.08 706.35 618.63V610.26H703.95V607.68L706.53 607.5L706.92 602.94H709.8V607.5H714.12V610.26H709.8V618.66C709.8 620.61 710.52 621.66 712.23 621.66C712.8 621.66 713.49 621.45 714 621.24L714.63 623.79C713.7 624.09 712.59 624.42 711.36 624.42ZM719.205 624V607.5H722.025L722.325 609.81H722.415C723.825 608.31 725.475 607.08 727.515 607.08C729.975 607.08 731.355 608.22 732.045 610.11C733.695 608.4 735.375 607.08 737.445 607.08C740.895 607.08 742.485 609.45 742.485 613.62V624H739.035V614.07C739.035 611.19 738.165 610.08 736.305 610.08C735.165 610.08 733.965 610.8 732.585 612.3V624H729.135V614.07C729.135 611.19 728.265 610.08 726.375 610.08C725.265 610.08 724.005 610.8 722.685 612.3V624H719.205ZM755.906 624.42C751.406 624.42 747.866 621.21 747.866 615.78C747.866 610.41 751.556 607.08 755.396 607.08C759.746 607.08 762.116 610.23 762.116 614.91C762.116 615.6 762.056 616.26 761.966 616.68H751.256C751.526 619.83 753.506 621.69 756.356 621.69C757.826 621.69 759.056 621.24 760.286 620.46L761.486 622.68C759.956 623.7 758.066 624.42 755.906 624.42ZM751.196 614.28H759.116C759.116 611.43 757.856 609.81 755.456 609.81C753.386 609.81 751.556 611.4 751.196 614.28ZM767.498 624V607.5H770.318L770.618 609.81H770.708C772.208 608.31 773.918 607.08 776.168 607.08C779.678 607.08 781.238 609.45 781.238 613.62V624H777.758V614.07C777.758 611.19 776.918 610.08 774.998 610.08C773.468 610.08 772.418 610.86 770.978 612.3V624H767.498ZM793.269 624.42C789.579 624.42 788.259 622.08 788.259 618.63V610.26H785.859V607.68L788.439 607.5L788.829 602.94H791.709V607.5H796.029V610.26H791.709V618.66C791.709 620.61 792.429 621.66 794.139 621.66C794.709 621.66 795.399 621.45 795.909 621.24L796.539 623.79C795.609 624.09 794.499 624.42 793.269 624.42Z" fill="#081F5C"/>
<path d="M673.184 424.624L676.376 425.416C675.224 427.096 673.88 428.848 672.848 429.976L670.496 429.184C671.456 427.912 672.584 426.04 673.184 424.624ZM679.184 426.76L681.464 425.464C683.456 426.88 686.024 429.04 687.272 430.576L684.8 432.04C683.672 430.552 681.2 428.296 679.184 426.76ZM666.92 428.488C671.312 428.392 678.152 428.224 684.392 428.008L684.296 430.384C678.2 430.672 671.648 430.912 667.232 431.032L666.92 428.488ZM666.104 432.376H687.968V434.8H666.104V432.376ZM677.384 435.544L679.592 436.624C677.72 437.92 674.888 438.88 672.512 439.432C672.152 438.928 671.504 438.208 670.928 437.752C673.112 437.32 675.944 436.456 677.384 435.544ZM679.592 438.184L681.848 439.264C679.496 441.16 675.752 442.432 672.248 443.176C671.912 442.552 671.288 441.688 670.712 441.136C673.904 440.632 677.672 439.576 679.592 438.184ZM682.472 440.728L684.992 441.856C681.848 445.048 676.544 446.488 670.424 447.232C670.16 446.488 669.608 445.504 669.104 444.856C674.672 444.376 679.904 443.2 682.472 440.728ZM673.928 429.88L676.76 430.552C674.96 435.448 671.576 439 667.352 441.112C666.944 440.536 665.888 439.408 665.264 438.904C669.392 437.176 672.464 434.08 673.928 429.88ZM681.32 432.952C682.736 435.304 685.592 437.536 688.496 438.664C687.872 439.192 687.032 440.248 686.624 440.92C683.552 439.48 680.672 436.816 678.92 433.84L681.32 432.952ZM704.888 442.216H711.056V445H704.888V442.216ZM691.376 428.92H700.184V431.752H691.376V428.92ZM703.616 427.36H712.352V446.488H709.448V430.144H706.376V446.68H703.616V427.36ZM699.464 428.92H702.248C702.248 428.92 702.248 429.88 702.248 430.24C702.032 440.512 701.864 444.208 701.096 445.336C700.544 446.128 700.04 446.416 699.248 446.56C698.528 446.728 697.448 446.728 696.344 446.68C696.296 445.84 695.984 444.592 695.504 443.776C696.464 443.872 697.328 443.872 697.784 443.872C698.144 443.896 698.36 443.776 698.6 443.44C699.104 442.72 699.296 439.264 699.464 429.568V428.92ZM694.232 424.96H697.064C697.04 434.416 696.944 442.384 692.792 447.16C692.336 446.464 691.376 445.504 690.656 445.048C694.4 440.824 694.208 433.744 694.232 424.96ZM725.384 425.2H728.672C728.456 429.232 728.144 440.944 718.328 446.968C717.824 446.224 716.888 445.336 715.904 444.664C725.552 439.312 725.216 428.344 725.384 425.2ZM728.576 425.824C728.648 427.912 729.152 439.888 738.992 444.496C738.08 445.192 737.216 446.152 736.784 446.944C726.44 441.808 725.984 428.584 725.792 426.112L728.576 425.824ZM741.296 437.152H753.44V439.456H741.296V437.152ZM741.584 428.68H753.368V430.936H741.584V428.68ZM745.616 435.424L748.28 436C747.104 438.472 745.544 441.4 744.392 443.32L741.872 442.552C743 440.704 744.584 437.704 745.616 435.424ZM749.024 438.76L751.664 438.976C750.8 444.016 748.28 446.032 742.568 447.184C742.4 446.392 741.872 445.384 741.392 444.808C746.168 444.208 748.256 442.696 749.024 438.76ZM750.728 424.912L753.152 425.872C752.36 426.952 751.592 428.056 750.968 428.8L749.12 427.96C749.672 427.12 750.344 425.824 750.728 424.912ZM746.144 424.6H748.784V435.76H746.144V424.6ZM742.16 425.872L744.224 425.008C744.872 425.92 745.472 427.144 745.688 428.008L743.48 428.968C743.312 428.128 742.76 426.856 742.16 425.872ZM746.216 429.808L748.088 430.936C746.888 432.832 744.584 434.92 742.568 436.048C742.232 435.424 741.608 434.464 741.08 433.936C743.024 433.144 745.184 431.44 746.216 429.808ZM748.544 430.504C749.408 430.912 752.144 432.52 752.816 432.976L751.28 434.968C750.392 434.08 748.256 432.376 747.2 431.632L748.544 430.504ZM755.024 428.968H763.832V431.632H755.024V428.968ZM755.288 424.6L758.192 425.008C757.448 429.976 756.008 434.584 753.8 437.512C753.344 436.984 752.168 435.952 751.52 435.472C753.536 433.024 754.712 428.896 755.288 424.6ZM759.632 430.6L762.584 430.864C761.552 439.072 759.08 444.208 753.008 447.256C752.72 446.56 751.88 445.24 751.352 444.616C756.824 442.216 758.912 437.704 759.632 430.6ZM756.656 431.104C757.616 437.176 759.728 442.36 764.144 444.616C763.472 445.192 762.56 446.344 762.128 447.136C757.304 444.256 755.216 438.688 754.04 431.512L756.656 431.104ZM743.984 442.576L745.52 440.608C748.352 441.688 751.352 443.368 752.984 444.664L750.992 446.704C749.456 445.36 746.672 443.68 743.984 442.576ZM779.984 428.56C779.648 431.008 779.168 433.816 778.328 436.648C776.888 441.496 774.824 444.472 772.208 444.472C769.52 444.472 767.312 441.52 767.312 437.464C767.312 431.944 772.136 427.192 778.352 427.192C784.28 427.192 788.048 431.32 788.048 436.576C788.048 441.616 784.952 445.192 778.904 446.128L777.08 443.296C778.016 443.176 778.688 443.056 779.336 442.912C782.384 442.168 784.784 439.984 784.784 436.456C784.784 432.688 782.432 430 778.28 430C773.192 430 770.408 434.152 770.408 437.176C770.408 439.6 771.368 440.776 772.28 440.776C773.312 440.776 774.224 439.24 775.232 436C775.928 433.744 776.456 430.984 776.696 428.464L779.984 428.56ZM797.048 433.984V442.816H794.36V436.648H791.864V433.984H797.048ZM797.048 441.712C797.984 443.344 799.736 444.04 802.208 444.16C805.184 444.28 811.088 444.208 814.496 443.944C814.184 444.568 813.752 445.84 813.632 446.632C810.56 446.776 805.232 446.824 802.232 446.704C799.304 446.584 797.336 445.864 795.896 443.992C794.984 444.952 794.024 445.864 792.896 446.944L791.528 444.184C792.488 443.512 793.64 442.6 794.648 441.712H797.048ZM791.72 426.616L793.976 425.176C795.248 426.328 796.736 427.96 797.384 429.136L794.936 430.744C794.384 429.592 792.944 427.84 791.72 426.616ZM798.512 434.44H813.224V436.528H798.512V434.44ZM797.792 438.136H813.968V440.272H797.792V438.136ZM801.704 433.168H804.416V439.168H801.704V433.168ZM807.2 433.168H809.936V439.168H807.2V433.168ZM799.16 428.176H802.664V427.168H798.104V425.368H805.088V430H799.16V428.176ZM798.44 428.176H800.816V430.504C800.816 431.008 800.912 431.104 801.536 431.104C801.8 431.104 803.024 431.104 803.384 431.104C803.864 431.104 803.96 430.96 804.056 430.168C804.488 430.48 805.4 430.792 806.048 430.912C805.808 432.544 805.16 433 803.696 433C803.24 433 801.632 433 801.176 433C799.04 433 798.44 432.448 798.44 430.528V428.176ZM807.056 428.176H810.584V427.168H805.904V425.368H813.032V430H807.056V428.176ZM806.336 428.176H808.712V430.504C808.712 431.008 808.832 431.104 809.456 431.104C809.744 431.104 811.016 431.104 811.376 431.104C811.88 431.104 811.976 430.96 812.072 430.144C812.504 430.456 813.416 430.744 814.064 430.888C813.824 432.544 813.176 433 811.688 433C811.232 433 809.552 433 809.096 433C806.936 433 806.336 432.448 806.336 430.504V428.176ZM806.792 441.28L808.904 440.104C810.632 440.896 812.744 442.048 813.944 442.864L810.968 443.944C810.08 443.176 808.376 442.096 806.792 441.28ZM802.592 440.104L805.112 440.992C803.864 442.144 801.848 443.248 800.192 443.92C799.736 443.44 798.704 442.576 798.104 442.192C799.784 441.688 801.56 440.92 802.592 440.104ZM826.952 425.944H829.832V434.152C829.832 438.112 829.304 443.824 826.016 447.184C825.56 446.608 824.384 445.576 823.784 445.216C826.712 442.192 826.952 437.656 826.952 434.128V425.944ZM834.32 435.424C835.088 439.576 836.72 443.128 839.888 444.688C839.216 445.264 838.328 446.44 837.896 447.232C834.224 445.144 832.544 441.112 831.56 435.88L834.32 435.424ZM828.008 425.944H838.688V436.36H828.008V433.648H835.808V428.656H828.008V425.944ZM817.136 429.232H825.992V431.92H817.136V429.232ZM820.328 424.624H823.088V444.016C823.088 445.456 822.8 446.176 821.96 446.608C821.12 447.064 819.92 447.136 818.072 447.136C817.976 446.392 817.592 445.216 817.256 444.496C818.336 444.544 819.464 444.52 819.824 444.52C820.184 444.496 820.328 444.376 820.328 444.016V424.624ZM816.776 436.792C819.128 436.408 822.656 435.712 825.944 435.04L826.184 437.68C823.16 438.352 819.896 439.024 817.4 439.552L816.776 436.792Z" fill="#081F5C"/>
<rect x="1237" y="552" width="220" height="80" rx="40" fill="#EEBAC2"/>
<path d="M1300.66 587.36C1300.26 587.808 1299.93 588.2 1299.7 588.536C1297.52 592.148 1293.38 597.188 1289.04 600.38L1286.24 597.804C1289.93 595.228 1293.07 591.42 1294.52 588.844C1292.06 588.844 1281.87 588.844 1279.74 588.844C1278.59 588.844 1277.08 588.984 1276.49 589.068V585.12C1277.25 585.26 1278.76 585.4 1279.74 585.4C1281.5 585.4 1292.26 585.4 1295.25 585.4C1296.34 585.4 1297.27 585.288 1297.88 585.092L1300.66 587.36ZM1285.9 600.8C1284.25 599.148 1281.39 596.6 1279.74 595.424L1282.68 593.016C1284.19 594.164 1286.99 596.432 1289.12 598.476C1290.97 600.268 1293.18 602.592 1294.52 604.216L1291.22 606.848C1290.07 605.28 1287.72 602.648 1285.9 600.8ZM1317.51 588.396C1318.04 589.572 1319.42 593.24 1319.81 594.528L1316.48 595.676C1316.11 594.332 1314.88 590.944 1314.21 589.488L1317.51 588.396ZM1327.84 590.412C1327.54 591.336 1327.37 591.924 1327.2 592.484C1326.47 595.312 1325.27 598.224 1323.36 600.66C1320.76 604.048 1317.29 606.372 1314.01 607.632L1311.07 604.636C1314.12 603.796 1318.04 601.668 1320.34 598.756C1322.24 596.404 1323.62 592.68 1323.92 589.152L1327.84 590.412ZM1311.02 589.852C1311.72 591.28 1313.09 594.696 1313.62 596.264L1310.2 597.524C1309.76 596.04 1308.33 592.288 1307.66 591.084L1311.02 589.852ZM1337.06 584.896C1339.21 584.952 1343.52 584.924 1346.6 584.476C1349.43 584.056 1352.26 583.44 1353.66 582.768L1355.98 585.848C1355.03 586.1 1354.28 586.296 1353.83 586.408C1352.09 586.856 1349.85 587.22 1347.7 587.528C1344.5 587.976 1340.39 588.088 1337.95 588.144L1337.06 584.896ZM1338.26 604.216C1343.22 601.948 1345.43 598.252 1345.43 593.016C1345.43 593.016 1345.43 591.196 1345.43 587.22L1349.1 586.8C1349.1 589.208 1349.1 592.932 1349.1 592.932C1349.1 598.588 1347.25 603.376 1341.84 606.624L1338.26 604.216ZM1334.96 591.616C1335.74 591.672 1336.66 591.756 1337.56 591.756C1339.32 591.756 1354.3 591.756 1356.18 591.756C1356.77 591.756 1358.08 591.672 1358.7 591.616V595.228C1357.94 595.172 1357.02 595.116 1356.24 595.116C1354.47 595.116 1339.24 595.116 1337.59 595.116C1336.72 595.116 1335.68 595.172 1334.96 595.228V591.616ZM1368.95 583.72C1370.88 585.036 1374.52 587.948 1376.17 589.656L1373.32 592.568C1371.86 591 1368.33 587.948 1366.29 586.548L1368.95 583.72ZM1365.42 602.368C1369.82 601.752 1373.43 600.324 1376.14 598.728C1380.93 595.872 1384.57 591.616 1386.36 587.836L1388.52 591.756C1386.42 595.564 1382.7 599.428 1378.19 602.144C1375.33 603.852 1371.72 605.392 1367.8 606.064L1365.42 602.368ZM1413.41 582.068C1414.11 583.104 1415.09 584.868 1415.62 585.904L1413.38 586.884C1412.8 585.736 1411.93 584.056 1411.17 582.992L1413.41 582.068ZM1416.72 580.808C1417.44 581.872 1418.48 583.636 1418.98 584.616L1416.74 585.568C1416.16 584.42 1415.26 582.768 1414.5 581.732L1416.72 580.808ZM1415.9 588.228C1415.6 588.788 1415.2 589.544 1414.98 590.244C1414.22 592.736 1412.63 596.488 1410.11 599.596C1407.45 602.844 1404.06 605.42 1398.8 607.492L1395.49 604.552C1401.23 602.816 1404.34 600.38 1406.78 597.608C1408.68 595.424 1410.3 592.064 1410.75 589.992H1401.32L1402.6 586.8C1403.86 586.8 1409.72 586.8 1410.61 586.8C1411.48 586.8 1412.4 586.688 1413.05 586.464L1415.9 588.228ZM1406.78 583.804C1406.13 584.784 1405.4 586.072 1405.07 586.66C1403.19 590.048 1399.83 593.996 1395.83 596.74L1392.66 594.416C1397.59 591.42 1400.03 587.808 1401.43 585.4C1401.85 584.728 1402.44 583.412 1402.69 582.46L1406.78 583.804Z" fill="#081F5C"/>
<rect x="1538" y="552" width="220" height="80" rx="40" fill="#EEBAC2"/>
<path d="M1598.6 584.42C1598.21 585.064 1597.68 586.296 1597.43 586.968C1596.36 589.74 1594.66 593.436 1592.33 596.46C1589.73 599.82 1586.28 603.432 1580.85 606.428L1577.74 603.572C1582.84 601.136 1586.34 598.028 1589.31 594.164C1591.52 591.252 1592.78 588.368 1593.76 585.568C1594.01 584.84 1594.29 583.692 1594.43 582.992L1598.6 584.42ZM1583.2 587.136C1585.98 588.872 1589.81 591.532 1592.16 593.38C1595.16 595.704 1598.1 598.336 1600.37 600.744L1597.48 603.964C1595.05 601.108 1592.58 598.812 1589.62 596.348C1587.6 594.668 1584.32 592.148 1580.8 589.992L1583.2 587.136ZM1618.51 588.396C1619.04 589.572 1620.42 593.24 1620.81 594.528L1617.48 595.676C1617.11 594.332 1615.88 590.944 1615.21 589.488L1618.51 588.396ZM1628.84 590.412C1628.54 591.336 1628.37 591.924 1628.2 592.484C1627.47 595.312 1626.27 598.224 1624.36 600.66C1621.76 604.048 1618.29 606.372 1615.01 607.632L1612.07 604.636C1615.12 603.796 1619.04 601.668 1621.34 598.756C1623.24 596.404 1624.62 592.68 1624.92 589.152L1628.84 590.412ZM1612.02 589.852C1612.72 591.28 1614.09 594.696 1614.62 596.264L1611.2 597.524C1610.76 596.04 1609.33 592.288 1608.66 591.084L1612.02 589.852ZM1641.7 601.276C1641.7 598.98 1641.7 589.516 1641.7 586.128C1641.7 585.176 1641.61 583.748 1641.47 582.908H1645.64C1645.5 583.748 1645.39 585.176 1645.39 586.128C1645.39 589.488 1645.39 597.188 1645.39 600.296C1645.39 602.06 1645.9 602.648 1648.95 602.648C1651.89 602.648 1655.02 602.284 1657.8 601.724L1657.66 605.532C1655.36 605.868 1652 606.12 1648.98 606.12C1642.62 606.12 1641.7 604.608 1641.7 601.276ZM1659.31 588.984C1659.06 589.376 1658.66 590.02 1658.41 590.496C1657.18 592.848 1654.63 596.684 1652.62 598.672L1649.54 596.852C1651.38 595.2 1653.2 592.624 1653.99 591.168C1652.28 591.504 1639.34 594.08 1635.79 594.864L1635.12 591.196C1638.92 590.748 1652.08 588.172 1654.63 587.556C1655.42 587.36 1656.12 587.164 1656.62 586.884L1659.31 588.984ZM1665.75 592.036C1666.78 592.12 1668.8 592.232 1670.26 592.232C1673.56 592.232 1682.8 592.232 1685.29 592.232C1686.61 592.232 1687.84 592.092 1688.6 592.036V596.46C1687.92 596.432 1686.5 596.292 1685.32 596.292C1682.77 596.292 1673.56 596.292 1670.26 596.292C1668.69 596.292 1666.81 596.376 1665.75 596.46V592.036ZM1712.47 583.524C1713.25 584.7 1714.4 586.548 1715.01 587.836L1712.61 588.9C1711.77 587.136 1711.15 585.932 1710.11 584.476L1712.47 583.524ZM1716.33 582.152C1717.2 583.272 1718.29 585.12 1718.96 586.352L1716.55 587.416C1715.66 585.652 1714.99 584.56 1713.95 583.16L1716.33 582.152ZM1700.31 582.964C1702.16 583.972 1705.24 585.96 1706.7 586.968L1704.6 590.076C1703.06 588.984 1700.12 587.08 1698.27 586.044L1700.31 582.964ZM1695.13 602.844C1698.24 602.312 1701.6 601.388 1704.65 599.708C1709.41 597.048 1713.31 593.212 1715.55 589.208L1717.7 593.016C1715.1 596.88 1711.15 600.436 1706.56 603.068C1703.73 604.692 1699.7 606.092 1697.23 606.54L1695.13 602.844ZM1696 589.348C1697.88 590.356 1700.96 592.288 1702.39 593.296L1700.34 596.432C1698.75 595.34 1695.86 593.436 1693.96 592.456L1696 589.348Z" fill="#081F5C"/>
<rect x="1538" y="877" width="220" height="80" rx="40" fill="#EEBAC2"/>
<path d="M1641.96 909.35L1645.38 910.04C1644.63 912.56 1643.82 915.38 1643.07 917.18L1640.31 916.49C1640.97 914.57 1641.66 911.54 1641.96 909.35ZM1630.53 910.22L1633.41 909.59C1634.07 911.81 1634.64 914.66 1634.79 916.55L1631.73 917.24C1631.67 915.35 1631.13 912.44 1630.53 910.22ZM1630.23 905.03H1645.53V908.36H1630.23V905.03ZM1629.21 918.02H1646.07V921.44H1629.21V918.02ZM1635.84 906.2H1639.38V931.67H1635.84V906.2ZM1619.34 912.74H1628.61V915.44H1619.34V912.74ZM1619.43 904.46H1628.55V907.19H1619.43V904.46ZM1619.34 916.82H1628.61V919.55H1619.34V916.82ZM1617.87 908.51H1629.69V911.36H1617.87V908.51ZM1620.99 920.99H1628.58V930.11H1620.99V927.26H1625.49V923.84H1620.99V920.99ZM1619.25 920.99H1622.28V931.31H1619.25V920.99ZM1657.98 906.47H1677.15V909.71H1657.98V906.47ZM1658.28 913.46H1676.97V930.89H1673.52V916.58H1661.58V931.07H1658.28V913.46ZM1663.14 906.89H1666.5V915.77H1663.14V906.89ZM1668.48 906.86H1671.9V915.74H1668.48V906.86ZM1659.78 926.24H1676.07V929.33H1659.78V926.24ZM1663.47 915.74H1666.5V928.64H1663.47V915.74ZM1668.48 915.74H1671.51V928.61H1668.48V915.74ZM1655.37 903.59L1658.61 904.64C1656.78 909.56 1653.81 914.81 1650.69 918.14C1650.39 917.3 1649.43 915.41 1648.83 914.54C1651.44 911.9 1653.9 907.76 1655.37 903.59ZM1652.52 911.96L1655.88 908.6V908.63V931.7H1652.52V911.96Z" fill="#081F5C"/>
<rect x="1285" y="670" width="118" height="46" rx="23" fill="white" stroke="#081F5C" stroke-width="2"/>
<path d="M1308.85 693.184H1310.74V698.768C1310.74 699.36 1310.83 699.424 1311.28 699.424C1311.49 699.424 1312.32 699.424 1312.58 699.424C1313.06 699.424 1313.14 699.04 1313.2 696.848C1313.6 697.168 1314.4 697.488 1314.9 697.616C1314.72 700.368 1314.26 701.152 1312.75 701.152C1312.42 701.152 1311.3 701.152 1310.98 701.152C1309.26 701.152 1308.85 700.56 1308.85 698.768V693.184ZM1306.56 694.416L1308.29 694.8C1308.13 696.64 1307.82 698.752 1307.1 700.048L1305.39 699.296C1306.06 698.064 1306.42 696.208 1306.56 694.416ZM1308.96 691.408L1310.24 690.144C1311.52 690.752 1313.26 691.728 1314.14 692.48L1312.75 693.904C1311.97 693.168 1310.27 692.08 1308.96 691.408ZM1313.84 694.656L1315.55 693.984C1316.51 695.648 1317.46 697.792 1317.71 699.264L1315.82 700.032C1315.62 698.592 1314.77 696.368 1313.84 694.656ZM1309.5 686.416H1311.5V689.328H1309.5V686.416ZM1304.67 688.288H1317.31V690.112H1304.67V688.288ZM1303.76 688.288H1305.68V692.336C1305.68 694.928 1305.44 698.896 1303.98 701.408C1303.63 701.088 1302.78 700.528 1302.32 700.336C1303.66 698.032 1303.76 694.656 1303.76 692.336V688.288ZM1322.05 697.264H1330.29V698.624H1322.05V697.264ZM1319.62 694.688H1334V696.176H1319.62V694.688ZM1324.29 693.696L1326.14 693.984C1325.12 696.112 1323.34 697.76 1320.21 698.88C1320 698.448 1319.49 697.792 1319.12 697.52C1322.02 696.656 1323.58 695.248 1324.29 693.696ZM1330.06 695.168C1330.96 696.208 1332.75 697.12 1334.53 697.52C1334.13 697.888 1333.58 698.592 1333.33 699.056C1331.44 698.448 1329.65 697.184 1328.59 695.728L1330.06 695.168ZM1329.62 697.264H1331.44C1331.44 697.264 1331.42 697.68 1331.39 697.904C1331.23 699.632 1331.04 700.48 1330.67 700.864C1330.35 701.184 1329.98 701.28 1329.5 701.328C1329.09 701.376 1328.35 701.376 1327.57 701.36C1327.54 700.88 1327.36 700.256 1327.12 699.84C1327.76 699.904 1328.37 699.92 1328.66 699.92C1328.9 699.92 1329.02 699.888 1329.17 699.776C1329.38 699.584 1329.5 698.944 1329.62 697.472V697.264ZM1325.52 696.416H1327.34C1326.99 699.088 1326.08 700.704 1321.82 701.52C1321.66 701.072 1321.23 700.4 1320.91 700.064C1324.62 699.472 1325.25 698.368 1325.52 696.416ZM1319.82 687.264H1333.78V688.784H1319.82V687.264ZM1323.18 686.416H1325.06V689.344H1323.18V686.416ZM1328.48 686.416H1330.37V689.344H1328.48V686.416ZM1323.18 692.368V692.992H1330.4V692.368H1323.18ZM1323.18 690.688V691.312H1330.4V690.688H1323.18ZM1321.34 689.584H1332.34V694.112H1321.34V689.584ZM1345.06 689.04C1344.83 690.672 1344.51 692.544 1343.95 694.432C1342.99 697.664 1341.62 699.648 1339.87 699.648C1338.08 699.648 1336.61 697.68 1336.61 694.976C1336.61 691.296 1339.82 688.128 1343.97 688.128C1347.92 688.128 1350.43 690.88 1350.43 694.384C1350.43 697.744 1348.37 700.128 1344.34 700.752L1343.12 698.864C1343.74 698.784 1344.19 698.704 1344.62 698.608C1346.66 698.112 1348.26 696.656 1348.26 694.304C1348.26 691.792 1346.69 690 1343.92 690C1340.53 690 1338.67 692.768 1338.67 694.784C1338.67 696.4 1339.31 697.184 1339.92 697.184C1340.61 697.184 1341.22 696.16 1341.89 694C1342.35 692.496 1342.7 690.656 1342.86 688.976L1345.06 689.04ZM1359.36 690.016H1361.28V699.376C1361.28 700.368 1361.06 700.848 1360.38 701.152C1359.71 701.424 1358.74 701.472 1357.38 701.472C1357.28 700.944 1356.96 700.16 1356.69 699.664C1357.63 699.712 1358.67 699.696 1358.96 699.696C1359.25 699.68 1359.36 699.6 1359.36 699.344V690.016ZM1355.39 687.264H1364.03V688.992H1355.39V687.264ZM1363.38 687.264H1363.87L1364.27 687.168L1365.57 688.112C1364.35 689.424 1362.56 690.752 1360.77 691.568C1360.53 691.2 1360 690.656 1359.7 690.352C1361.15 689.696 1362.7 688.496 1363.38 687.632V687.264ZM1357.78 691.84H1362.99V693.344H1357.78V691.84ZM1353.23 690.704H1356.66V692.432H1353.23V690.704ZM1357.38 694.352H1363.36V695.872H1357.38V694.352ZM1356.59 696.912H1364.16V698.48H1356.59V696.912ZM1366.37 690.592L1367.89 691.792C1366.98 692.88 1365.87 694.128 1365.02 694.928L1363.82 693.888C1364.64 693.056 1365.74 691.664 1366.37 690.592ZM1364.62 690.304C1365.09 693.76 1366.1 696.992 1368.08 698.624C1367.63 698.992 1366.98 699.728 1366.67 700.272C1364.48 698.24 1363.49 694.704 1362.91 690.576L1364.62 690.304ZM1355.92 690.704H1356.27L1356.61 690.64L1357.79 691.072C1357.23 695.168 1355.87 698.48 1354.08 700.224C1353.78 699.792 1353.1 699.04 1352.69 698.752C1354.37 697.232 1355.5 694.4 1355.92 691.104V690.704ZM1378.77 687.696H1380.5C1380.19 690.304 1379.49 692.944 1376.54 694.496C1376.34 694.064 1375.84 693.44 1375.46 693.136C1378.05 691.904 1378.53 689.696 1378.77 687.696ZM1376 690.432L1376.9 689.104C1378.48 689.584 1380.35 690.464 1381.42 691.152L1380.51 692.624C1379.47 691.872 1377.57 690.928 1376 690.432ZM1382.42 687.04H1384.21C1384.21 687.04 1384.21 687.52 1384.19 687.744C1384.03 691.392 1383.87 692.896 1383.44 693.408C1383.14 693.808 1382.83 693.952 1382.37 694.016C1381.98 694.08 1381.33 694.08 1380.62 694.064C1380.61 693.536 1380.42 692.816 1380.16 692.352C1380.7 692.4 1381.18 692.4 1381.42 692.4C1381.63 692.416 1381.78 692.368 1381.9 692.208C1382.16 691.904 1382.3 690.688 1382.42 687.328V687.04ZM1377.76 695.664H1379.52V699.168C1379.52 699.616 1379.55 699.664 1379.86 699.664C1380 699.664 1380.53 699.664 1380.69 699.664C1380.99 699.664 1381.06 699.472 1381.1 697.984C1381.44 698.272 1382.19 698.544 1382.67 698.672C1382.5 700.784 1382.03 701.328 1380.88 701.328C1380.59 701.328 1379.86 701.328 1379.55 701.328C1378.06 701.328 1377.76 700.8 1377.76 699.2V695.664ZM1376.13 696.288L1377.63 696.688C1377.49 698.128 1377.18 699.648 1376.42 700.592L1375.01 699.728C1375.66 698.928 1375.98 697.6 1376.13 696.288ZM1378.11 694.56L1379.22 693.456C1380.24 693.968 1381.5 694.8 1382.1 695.472L1380.91 696.72C1380.35 696.064 1379.14 695.152 1378.11 694.56ZM1381.65 696.544L1383.2 695.92C1384.03 697.136 1384.74 698.768 1384.94 699.904L1383.26 700.592C1383.09 699.472 1382.43 697.776 1381.65 696.544ZM1376.21 687.04H1383.23V688.64H1376.21V687.04ZM1370.4 691.328H1375.09V692.768H1370.4V691.328ZM1370.45 686.912H1375.04V688.368H1370.45V686.912ZM1370.4 693.504H1375.09V694.96H1370.4V693.504ZM1369.66 689.072H1375.52V690.592H1369.66V689.072ZM1371.23 695.728H1375.1V700.592H1371.23V699.072H1373.5V697.248H1371.23V695.728ZM1370.37 695.728H1371.94V701.232H1370.37V695.728Z" fill="#081F5C"/>
<rect x="1549" y="720" width="198" height="68" rx="34" fill="white" stroke="#081F5C" stroke-width="2"/>
<path d="M1627.55 741.228L1631.27 742.152C1629.93 744.112 1628.36 746.156 1627.16 747.472L1624.41 746.548C1625.53 745.064 1626.85 742.88 1627.55 741.228ZM1634.55 743.72L1637.21 742.208C1639.53 743.86 1642.53 746.38 1643.98 748.172L1641.1 749.88C1639.78 748.144 1636.9 745.512 1634.55 743.72ZM1620.24 745.736C1625.36 745.624 1633.34 745.428 1640.62 745.176L1640.51 747.948C1633.4 748.284 1625.76 748.564 1620.6 748.704L1620.24 745.736ZM1619.29 750.272H1644.8V753.1H1619.29V750.272ZM1632.45 753.968L1635.02 755.228C1632.84 756.74 1629.54 757.86 1626.76 758.504C1626.34 757.916 1625.59 757.076 1624.92 756.544C1627.46 756.04 1630.77 755.032 1632.45 753.968ZM1635.02 757.048L1637.66 758.308C1634.91 760.52 1630.54 762.004 1626.46 762.872C1626.06 762.144 1625.34 761.136 1624.66 760.492C1628.39 759.904 1632.78 758.672 1635.02 757.048ZM1638.38 760.016L1641.32 761.332C1637.66 765.056 1631.47 766.736 1624.33 767.604C1624.02 766.736 1623.38 765.588 1622.79 764.832C1629.28 764.272 1635.39 762.9 1638.38 760.016ZM1628.42 747.36L1631.72 748.144C1629.62 753.856 1625.67 758 1620.74 760.464C1620.27 759.792 1619.04 758.476 1618.31 757.888C1623.12 755.872 1626.71 752.26 1628.42 747.36ZM1637.04 750.944C1638.69 753.688 1642.02 756.292 1645.41 757.608C1644.68 758.224 1643.7 759.456 1643.23 760.24C1639.64 758.56 1636.28 755.452 1634.24 751.98L1637.04 750.944ZM1664.54 761.752H1671.73V765H1664.54V761.752ZM1648.77 746.24H1659.05V749.544H1648.77V746.24ZM1663.05 744.42H1673.24V766.736H1669.86V747.668H1666.27V766.96H1663.05V744.42ZM1658.21 746.24H1661.46C1661.46 746.24 1661.46 747.36 1661.46 747.78C1661.2 759.764 1661.01 764.076 1660.11 765.392C1659.47 766.316 1658.88 766.652 1657.96 766.82C1657.12 767.016 1655.86 767.016 1654.57 766.96C1654.51 765.98 1654.15 764.524 1653.59 763.572C1654.71 763.684 1655.72 763.684 1656.25 763.684C1656.67 763.712 1656.92 763.572 1657.2 763.18C1657.79 762.34 1658.01 758.308 1658.21 746.996V746.24ZM1652.1 741.62H1655.41C1655.38 752.652 1655.27 761.948 1650.42 767.52C1649.89 766.708 1648.77 765.588 1647.93 765.056C1652.3 760.128 1652.08 751.868 1652.1 741.62Z" fill="#081F5C"/>
<rect x="1285" y="468" width="118" height="46" rx="23" fill="white" stroke="#081F5C" stroke-width="2"/>
<path d="M1308.96 488.016H1310.88V497.376C1310.88 498.368 1310.66 498.848 1309.98 499.152C1309.31 499.424 1308.34 499.472 1306.98 499.472C1306.88 498.944 1306.56 498.16 1306.29 497.664C1307.23 497.712 1308.27 497.696 1308.56 497.696C1308.85 497.68 1308.96 497.6 1308.96 497.344V488.016ZM1304.99 485.264H1313.63V486.992H1304.99V485.264ZM1312.98 485.264H1313.47L1313.87 485.168L1315.17 486.112C1313.95 487.424 1312.16 488.752 1310.37 489.568C1310.13 489.2 1309.6 488.656 1309.3 488.352C1310.75 487.696 1312.3 486.496 1312.98 485.632V485.264ZM1307.38 489.84H1312.59V491.344H1307.38V489.84ZM1302.83 488.704H1306.26V490.432H1302.83V488.704ZM1306.98 492.352H1312.96V493.872H1306.98V492.352ZM1306.19 494.912H1313.76V496.48H1306.19V494.912ZM1315.97 488.592L1317.49 489.792C1316.58 490.88 1315.47 492.128 1314.62 492.928L1313.42 491.888C1314.24 491.056 1315.34 489.664 1315.97 488.592ZM1314.22 488.304C1314.69 491.76 1315.7 494.992 1317.68 496.624C1317.23 496.992 1316.58 497.728 1316.27 498.272C1314.08 496.24 1313.09 492.704 1312.51 488.576L1314.22 488.304ZM1305.52 488.704H1305.87L1306.21 488.64L1307.39 489.072C1306.83 493.168 1305.47 496.48 1303.68 498.224C1303.38 497.792 1302.7 497.04 1302.29 496.752C1303.97 495.232 1305.1 492.4 1305.52 489.104V488.704ZM1328.37 485.696H1330.1C1329.79 488.304 1329.09 490.944 1326.14 492.496C1325.94 492.064 1325.44 491.44 1325.06 491.136C1327.65 489.904 1328.13 487.696 1328.37 485.696ZM1325.6 488.432L1326.5 487.104C1328.08 487.584 1329.95 488.464 1331.02 489.152L1330.11 490.624C1329.07 489.872 1327.17 488.928 1325.6 488.432ZM1332.02 485.04H1333.81C1333.81 485.04 1333.81 485.52 1333.79 485.744C1333.63 489.392 1333.47 490.896 1333.04 491.408C1332.74 491.808 1332.43 491.952 1331.97 492.016C1331.58 492.08 1330.93 492.08 1330.22 492.064C1330.21 491.536 1330.02 490.816 1329.76 490.352C1330.3 490.4 1330.78 490.4 1331.02 490.4C1331.23 490.416 1331.38 490.368 1331.5 490.208C1331.76 489.904 1331.9 488.688 1332.02 485.328V485.04ZM1327.36 493.664H1329.12V497.168C1329.12 497.616 1329.15 497.664 1329.46 497.664C1329.6 497.664 1330.13 497.664 1330.29 497.664C1330.59 497.664 1330.66 497.472 1330.7 495.984C1331.04 496.272 1331.79 496.544 1332.27 496.672C1332.1 498.784 1331.63 499.328 1330.48 499.328C1330.19 499.328 1329.46 499.328 1329.15 499.328C1327.66 499.328 1327.36 498.8 1327.36 497.2V493.664ZM1325.73 494.288L1327.23 494.688C1327.09 496.128 1326.78 497.648 1326.02 498.592L1324.61 497.728C1325.26 496.928 1325.58 495.6 1325.73 494.288ZM1327.71 492.56L1328.82 491.456C1329.84 491.968 1331.1 492.8 1331.7 493.472L1330.51 494.72C1329.95 494.064 1328.74 493.152 1327.71 492.56ZM1331.25 494.544L1332.8 493.92C1333.63 495.136 1334.34 496.768 1334.54 497.904L1332.86 498.592C1332.69 497.472 1332.03 495.776 1331.25 494.544ZM1325.81 485.04H1332.83V486.64H1325.81V485.04ZM1320 489.328H1324.69V490.768H1320V489.328ZM1320.05 484.912H1324.64V486.368H1320.05V484.912ZM1320 491.504H1324.69V492.96H1320V491.504ZM1319.26 487.072H1325.12V488.592H1319.26V487.072ZM1320.83 493.728H1324.7V498.592H1320.83V497.072H1323.1V495.248H1320.83V493.728ZM1319.97 493.728H1321.54V499.232H1319.97V493.728ZM1343.38 485.168C1343.25 485.76 1343.04 486.704 1342.59 487.856C1342.26 488.64 1341.79 489.552 1341.34 490.192C1341.78 490 1342.62 489.888 1343.17 489.888C1344.5 489.888 1345.5 490.672 1345.5 492.16C1345.5 493.024 1345.55 494.768 1345.57 495.776H1343.65C1343.71 495.024 1343.74 493.664 1343.73 492.8C1343.73 491.776 1343.09 491.44 1342.42 491.44C1341.54 491.44 1340.53 491.968 1339.92 492.544C1339.44 493.024 1338.99 493.6 1338.45 494.304L1336.74 493.024C1338.78 491.136 1340.02 489.408 1340.69 487.648C1341.01 486.784 1341.22 485.808 1341.26 484.992L1343.38 485.168ZM1337.34 486.656C1338.16 486.768 1339.34 486.832 1340.16 486.832C1342.27 486.832 1345.17 486.72 1347.49 486.304L1347.47 488.16C1345.22 488.48 1342 488.624 1340.05 488.624C1339.39 488.624 1338.22 488.592 1337.34 488.512V486.656ZM1350.02 491.2C1349.52 491.344 1348.66 491.664 1348.11 491.872C1347.07 492.272 1345.63 492.848 1344.13 493.616C1342.67 494.368 1341.89 495.056 1341.89 495.936C1341.89 496.816 1342.66 497.056 1344.21 497.056C1345.57 497.056 1347.36 496.88 1348.77 496.592L1348.7 498.656C1347.63 498.8 1345.68 498.944 1344.16 498.944C1341.66 498.944 1339.79 498.32 1339.79 496.256C1339.79 494.032 1342.08 492.72 1344 491.76C1345.47 490.992 1346.48 490.608 1347.44 490.16C1348.06 489.888 1348.62 489.632 1349.23 489.328L1350.02 491.2ZM1358.53 486.24H1367.18V487.968H1358.53V486.24ZM1357.79 492.384H1367.81V494.128H1357.79V492.384ZM1357.63 489.376H1367.94V491.12H1357.63V489.376ZM1361.81 484.48H1363.73V490.272H1361.81V484.48ZM1364 490.816H1365.92V497.424C1365.92 498.368 1365.74 498.848 1365.1 499.136C1364.45 499.424 1363.57 499.44 1362.35 499.44C1362.27 498.912 1362 498.144 1361.76 497.632C1362.54 497.68 1363.42 497.68 1363.68 497.664C1363.92 497.664 1364 497.6 1364 497.392V490.816ZM1358.67 495.04L1360.26 494.224C1360.96 495.04 1361.79 496.176 1362.13 496.96L1360.45 497.872C1360.16 497.104 1359.38 495.904 1358.67 495.04ZM1356.54 487.952L1358.21 488.656C1357.07 490.624 1355.23 492.736 1353.58 494.064C1353.46 493.632 1352.98 492.544 1352.69 492.08C1354.08 491.088 1355.63 489.504 1356.54 487.952ZM1356.16 484.432L1357.94 485.168C1356.9 486.656 1355.28 488.224 1353.79 489.2C1353.6 488.768 1353.14 487.984 1352.86 487.584C1354.08 486.816 1355.49 485.504 1356.16 484.432ZM1355.04 491.52L1356.8 489.744L1356.88 489.792V499.44H1355.04V491.52ZM1370.05 489.232C1370.64 489.136 1371.44 488.928 1372.03 488.752C1373.25 488.368 1376.51 487.232 1378.86 487.232C1381.74 487.232 1384.03 488.896 1384.03 491.856C1384.03 495.472 1380.58 497.792 1374.94 498.08L1374 495.952C1378.34 495.856 1381.74 494.608 1381.74 491.808C1381.74 490.304 1380.7 489.168 1378.78 489.168C1376.42 489.168 1372.64 490.752 1370.96 491.488L1370.05 489.232Z" fill="#081F5C"/>
<path d="M671.888 753.024H674.96V765.6C674.96 766.824 675.152 766.992 676.4 766.992C676.976 766.992 679.376 766.992 680.048 766.992C681.272 766.992 681.488 766.32 681.68 762.888C682.352 763.392 683.648 763.944 684.488 764.112C684.104 768.48 683.264 769.872 680.288 769.872C679.568 769.872 676.736 769.872 676.04 769.872C672.8 769.872 671.888 768.912 671.888 765.576V753.024ZM672.176 749.688L674.048 747.6C675.992 748.824 678.44 750.624 679.808 751.68L677.912 754.056C676.544 752.88 674.072 750.984 672.176 749.688ZM668.048 754.128L670.808 754.824C670.28 757.656 669.512 761.064 668.312 763.128L665.504 762.096C666.728 760.008 667.616 756.96 668.048 754.128ZM682.184 756.96L684.8 755.736C686.312 757.992 687.8 760.92 688.448 762.936L685.664 764.352C685.112 762.336 683.624 759.24 682.184 756.96ZM683.336 749.016L686.24 750.192C682.376 757.584 676.04 764.784 667.448 769.008C667.016 768.336 666.176 767.28 665.576 766.704C673.712 762.984 680.12 755.784 683.336 749.016ZM691.184 760.632H713.216V762.96H691.184V760.632ZM691.64 748.464H712.64V750.96H691.64V748.464ZM699.176 758.328L702.008 759.048C700.472 761.592 698.432 764.616 696.968 766.536L694.184 765.696C695.672 763.776 697.784 760.68 699.176 758.328ZM706.136 761.496L708.92 762.216C706.544 767.88 701.6 769.512 692.696 770.208C692.504 769.368 692.072 768.36 691.616 767.736C699.704 767.4 704.216 766.104 706.136 761.496ZM695.84 765.888L697.304 763.824C702.824 764.952 708.8 766.608 712.4 767.928L710.672 770.256C707.192 768.84 701.576 767.112 695.84 765.888ZM697.952 749.448H700.664V757.656H697.952V749.448ZM703.4 749.448H706.112V757.656H703.4V749.448ZM695.432 754.584V756.84H708.992V754.584H695.432ZM692.744 752.328H711.872V759.096H692.744V752.328ZM725.84 747.624H728.768V767.424C728.768 768.84 728.408 769.416 727.496 769.824C726.56 770.184 725.264 770.232 723.224 770.232C723.08 769.56 722.624 768.552 722.264 767.976C723.416 768.024 724.832 768 725.24 768C725.696 767.976 725.84 767.832 725.84 767.424V747.624ZM716.84 749.184H737.96V751.464H716.84V749.184ZM722.048 754.248V755.4H732.656V754.248H722.048ZM719.312 752.424H735.608V757.224H719.312V752.424ZM718.712 758.28H736.016V767.664H733.088V760.248H718.712V758.28ZM716.288 761.256H738.512V763.44H716.288V761.256ZM718.52 764.568H734.648V766.656H718.52V764.568ZM741.68 750.216H749.936V752.88H741.68V750.216ZM744.368 751.752H747.272V763.104H744.368V751.752ZM741.032 763.104C743.288 762.48 746.888 761.352 750.2 760.272L750.68 762.768C747.776 763.872 744.632 765 742.208 765.864L741.032 763.104ZM750.248 748.584H763.904V751.008H750.248V748.584ZM753.896 758.256V759.792H760.184V758.256H753.896ZM753.896 761.76V763.296H760.184V761.76H753.896ZM753.896 754.776V756.312H760.184V754.776H753.896ZM751.208 752.664H763.016V765.408H751.208V752.664ZM755.456 749.928L758.816 750.312C758.312 751.824 757.736 753.36 757.328 754.392L754.76 753.912C755.048 752.76 755.336 751.128 755.456 749.928ZM753.776 765.336L756.104 766.992C754.496 768.192 751.976 769.464 749.864 770.16C749.456 769.584 748.664 768.72 748.088 768.168C750.104 767.544 752.552 766.32 753.776 765.336ZM757.4 767.016L759.536 765.48C761.048 766.296 763.184 767.592 764.312 768.504L762.032 770.184C761.048 769.296 758.96 767.928 757.4 767.016ZM779.984 751.56C779.648 754.008 779.168 756.816 778.328 759.648C776.888 764.496 774.824 767.472 772.208 767.472C769.52 767.472 767.312 764.52 767.312 760.464C767.312 754.944 772.136 750.192 778.352 750.192C784.28 750.192 788.048 754.32 788.048 759.576C788.048 764.616 784.952 768.192 778.904 769.128L777.08 766.296C778.016 766.176 778.688 766.056 779.336 765.912C782.384 765.168 784.784 762.984 784.784 759.456C784.784 755.688 782.432 753 778.28 753C773.192 753 770.408 757.152 770.408 760.176C770.408 762.6 771.368 763.776 772.28 763.776C773.312 763.776 774.224 762.24 775.232 759C775.928 756.744 776.456 753.984 776.696 751.464L779.984 751.56ZM796.496 748.968H803.288V751.896H796.496V748.968ZM801.872 748.968H804.848C804.848 753.528 805.496 762.36 814.4 767.568C813.728 768.096 812.576 769.368 812.072 770.088C802.928 764.592 801.872 753.864 801.872 748.968ZM800.84 754.224L804.152 754.824C802.472 761.952 799.28 767.112 794.264 770.136C793.736 769.512 792.392 768.312 791.648 767.784C796.664 765.24 799.544 760.584 800.84 754.224ZM818 752.616H836.384V755.568H818V752.616ZM835.208 752.616H838.208C838.208 752.616 838.184 753.6 838.136 754.008C837.656 763.608 837.176 767.256 836.096 768.528C835.4 769.44 834.704 769.704 833.648 769.848C832.736 769.992 831.248 769.968 829.784 769.896C829.736 769.056 829.328 767.76 828.776 766.92C830.312 767.04 831.728 767.064 832.376 767.064C832.856 767.064 833.144 766.968 833.48 766.656C834.32 765.84 834.8 762.048 835.208 753.192V752.616ZM825.368 747.672H828.416V752.616C828.416 758.064 827.648 765.672 819.488 770.28C819.032 769.584 817.952 768.456 817.232 767.952C824.696 763.896 825.368 757.248 825.368 752.616V747.672Z" fill="#081F5C"/>
<path d="M982.872 440.896H995.232V442.936H982.872V440.896ZM979.224 437.032H1000.8V439.264H979.224V437.032ZM986.232 435.544L989.016 435.976C987.48 439.168 984.816 441.64 980.112 443.32C979.8 442.672 979.032 441.688 978.48 441.28C982.824 439.984 985.176 437.872 986.232 435.544ZM994.896 437.752C996.24 439.312 998.928 440.68 1001.59 441.28C1000.99 441.832 1000.18 442.888 999.792 443.584C996.96 442.672 994.272 440.776 992.688 438.592L994.896 437.752ZM994.224 440.896H996.96C996.96 440.896 996.936 441.52 996.888 441.856C996.648 444.448 996.36 445.72 995.808 446.296C995.328 446.776 994.776 446.92 994.056 446.992C993.432 447.064 992.328 447.064 991.152 447.04C991.104 446.32 990.84 445.384 990.48 444.76C991.44 444.856 992.352 444.88 992.784 444.88C993.144 444.88 993.336 444.832 993.552 444.664C993.864 444.376 994.056 443.416 994.224 441.208V440.896ZM988.08 439.624H990.816C990.288 443.632 988.92 446.056 982.536 447.28C982.296 446.608 981.648 445.6 981.168 445.096C986.736 444.208 987.672 442.552 988.08 439.624ZM979.536 425.896H1000.46V428.176H979.536V425.896ZM984.576 424.624H987.384V429.016H984.576V424.624ZM992.52 424.624H995.352V429.016H992.52V424.624ZM984.576 433.552V434.488H995.4V433.552H984.576ZM984.576 431.032V431.968H995.4V431.032H984.576ZM981.816 429.376H998.304V436.168H981.816V429.376ZM1004.35 439.384H1026.05V441.688H1004.35V439.384ZM1008.96 430.456H1023.5V432.328H1008.96V430.456ZM1008.96 433.336H1023.53V435.208H1008.96V433.336ZM1008.38 427.216H1024.7V429.472H1008.38V427.216ZM1014.36 428.632H1017.12V437.056H1014.36V428.632ZM1013.69 437.848H1016.57V447.136H1013.69V437.848ZM1013.47 440.344L1015.63 441.4C1013.16 443.848 1009.03 445.96 1005.38 447.016C1004.98 446.296 1004.16 445.24 1003.54 444.64C1007.18 443.872 1011.34 442.192 1013.47 440.344ZM1016.88 440.272C1018.94 442.096 1023 443.776 1026.6 444.568C1026 445.144 1025.21 446.2 1024.8 446.896C1021.18 445.864 1017.14 443.752 1014.7 441.352L1016.88 440.272ZM1015.56 424.624L1018.8 425.008C1018.03 426.448 1017.17 427.792 1016.5 428.728L1013.95 428.224C1014.55 427.192 1015.22 425.704 1015.56 424.624ZM1009.42 424.576L1012.37 425.152C1010.76 427.96 1008.65 430.72 1005.7 433.096C1005.24 432.448 1004.3 431.56 1003.66 431.152C1006.34 429.208 1008.31 426.688 1009.42 424.576ZM1007.09 428.68H1009.82V436.24H1025.4V438.424H1007.09V428.68ZM1029.29 437.872C1030.01 437.296 1030.58 436.744 1031.3 436C1032.43 434.848 1034.26 432.376 1035.77 430.648C1037.45 428.728 1038.98 428.56 1040.74 430.264C1042.39 431.848 1044.29 434.32 1045.7 435.88C1047.24 437.56 1049.3 439.696 1051.58 441.736L1049.09 444.616C1047.38 442.984 1045.34 440.68 1043.81 438.88C1042.32 437.128 1040.52 434.824 1039.42 433.552C1038.55 432.64 1038.1 432.76 1037.4 433.624C1036.44 434.848 1034.76 437.224 1033.73 438.592C1033.18 439.36 1032.62 440.224 1032.19 440.848L1029.29 437.872ZM1067.78 428.56C1067.45 431.008 1066.97 433.816 1066.13 436.648C1064.69 441.496 1062.62 444.472 1060.01 444.472C1057.32 444.472 1055.11 441.52 1055.11 437.464C1055.11 431.944 1059.94 427.192 1066.15 427.192C1072.08 427.192 1075.85 431.32 1075.85 436.576C1075.85 441.616 1072.75 445.192 1066.7 446.128L1064.88 443.296C1065.82 443.176 1066.49 443.056 1067.14 442.912C1070.18 442.168 1072.58 439.984 1072.58 436.456C1072.58 432.688 1070.23 430 1066.08 430C1060.99 430 1058.21 434.152 1058.21 437.176C1058.21 439.6 1059.17 440.776 1060.08 440.776C1061.11 440.776 1062.02 439.24 1063.03 436C1063.73 433.744 1064.26 430.984 1064.5 428.464L1067.78 428.56ZM1089.07 434.776H1091.9V443.152C1091.9 444.04 1092.05 444.136 1092.72 444.136C1093.03 444.136 1094.28 444.136 1094.66 444.136C1095.38 444.136 1095.5 443.56 1095.6 440.272C1096.2 440.752 1097.4 441.232 1098.14 441.424C1097.88 445.552 1097.18 446.728 1094.93 446.728C1094.42 446.728 1092.74 446.728 1092.26 446.728C1089.7 446.728 1089.07 445.84 1089.07 443.152V434.776ZM1085.64 436.624L1088.23 437.2C1087.99 439.96 1087.54 443.128 1086.46 445.072L1083.89 443.944C1084.9 442.096 1085.42 439.312 1085.64 436.624ZM1089.24 432.112L1091.16 430.216C1093.08 431.128 1095.7 432.592 1097.02 433.72L1094.93 435.856C1093.75 434.752 1091.21 433.12 1089.24 432.112ZM1096.56 436.984L1099.13 435.976C1100.57 438.472 1101.98 441.688 1102.37 443.896L1099.54 445.048C1099.22 442.888 1097.95 439.552 1096.56 436.984ZM1090.06 424.624H1093.06V428.992H1090.06V424.624ZM1082.81 427.432H1101.77V430.168H1082.81V427.432ZM1081.44 427.432H1084.32V433.504C1084.32 437.392 1083.96 443.344 1081.78 447.112C1081.25 446.632 1079.98 445.792 1079.28 445.504C1081.3 442.048 1081.44 436.984 1081.44 433.504V427.432ZM1108.87 440.896H1121.23V442.936H1108.87V440.896ZM1105.22 437.032H1126.8V439.264H1105.22V437.032ZM1112.23 435.544L1115.02 435.976C1113.48 439.168 1110.82 441.64 1106.11 443.32C1105.8 442.672 1105.03 441.688 1104.48 441.28C1108.82 439.984 1111.18 437.872 1112.23 435.544ZM1120.9 437.752C1122.24 439.312 1124.93 440.68 1127.59 441.28C1126.99 441.832 1126.18 442.888 1125.79 443.584C1122.96 442.672 1120.27 440.776 1118.69 438.592L1120.9 437.752ZM1120.22 440.896H1122.96C1122.96 440.896 1122.94 441.52 1122.89 441.856C1122.65 444.448 1122.36 445.72 1121.81 446.296C1121.33 446.776 1120.78 446.92 1120.06 446.992C1119.43 447.064 1118.33 447.064 1117.15 447.04C1117.1 446.32 1116.84 445.384 1116.48 444.76C1117.44 444.856 1118.35 444.88 1118.78 444.88C1119.14 444.88 1119.34 444.832 1119.55 444.664C1119.86 444.376 1120.06 443.416 1120.22 441.208V440.896ZM1114.08 439.624H1116.82C1116.29 443.632 1114.92 446.056 1108.54 447.28C1108.3 446.608 1107.65 445.6 1107.17 445.096C1112.74 444.208 1113.67 442.552 1114.08 439.624ZM1105.54 425.896H1126.46V428.176H1105.54V425.896ZM1110.58 424.624H1113.38V429.016H1110.58V424.624ZM1118.52 424.624H1121.35V429.016H1118.52V424.624ZM1110.58 433.552V434.488H1121.4V433.552H1110.58ZM1110.58 431.032V431.968H1121.4V431.032H1110.58ZM1107.82 429.376H1124.3V436.168H1107.82V429.376Z" fill="#081F5C"/>
<path d="M995.872 763.896H1008.23V765.936H995.872V763.896ZM992.224 760.032H1013.8V762.264H992.224V760.032ZM999.232 758.544L1002.02 758.976C1000.48 762.168 997.816 764.64 993.112 766.32C992.8 765.672 992.032 764.688 991.48 764.28C995.824 762.984 998.176 760.872 999.232 758.544ZM1007.9 760.752C1009.24 762.312 1011.93 763.68 1014.59 764.28C1013.99 764.832 1013.18 765.888 1012.79 766.584C1009.96 765.672 1007.27 763.776 1005.69 761.592L1007.9 760.752ZM1007.22 763.896H1009.96C1009.96 763.896 1009.94 764.52 1009.89 764.856C1009.65 767.448 1009.36 768.72 1008.81 769.296C1008.33 769.776 1007.78 769.92 1007.06 769.992C1006.43 770.064 1005.33 770.064 1004.15 770.04C1004.1 769.32 1003.84 768.384 1003.48 767.76C1004.44 767.856 1005.35 767.88 1005.78 767.88C1006.14 767.88 1006.34 767.832 1006.55 767.664C1006.86 767.376 1007.06 766.416 1007.22 764.208V763.896ZM1001.08 762.624H1003.82C1003.29 766.632 1001.92 769.056 995.536 770.28C995.296 769.608 994.648 768.6 994.168 768.096C999.736 767.208 1000.67 765.552 1001.08 762.624ZM992.536 748.896H1013.46V751.176H992.536V748.896ZM997.576 747.624H1000.38V752.016H997.576V747.624ZM1005.52 747.624H1008.35V752.016H1005.52V747.624ZM997.576 756.552V757.488H1008.4V756.552H997.576ZM997.576 754.032V754.968H1008.4V754.032H997.576ZM994.816 752.376H1011.3V759.168H994.816V752.376ZM1017.35 762.384H1039.05V764.688H1017.35V762.384ZM1021.96 753.456H1036.5V755.328H1021.96V753.456ZM1021.96 756.336H1036.53V758.208H1021.96V756.336ZM1021.38 750.216H1037.7V752.472H1021.38V750.216ZM1027.36 751.632H1030.12V760.056H1027.36V751.632ZM1026.69 760.848H1029.57V770.136H1026.69V760.848ZM1026.47 763.344L1028.63 764.4C1026.16 766.848 1022.03 768.96 1018.38 770.016C1017.98 769.296 1017.16 768.24 1016.54 767.64C1020.18 766.872 1024.34 765.192 1026.47 763.344ZM1029.88 763.272C1031.94 765.096 1036 766.776 1039.6 767.568C1039 768.144 1038.21 769.2 1037.8 769.896C1034.18 768.864 1030.14 766.752 1027.7 764.352L1029.88 763.272ZM1028.56 747.624L1031.8 748.008C1031.03 749.448 1030.17 750.792 1029.5 751.728L1026.95 751.224C1027.55 750.192 1028.22 748.704 1028.56 747.624ZM1022.42 747.576L1025.37 748.152C1023.76 750.96 1021.65 753.72 1018.7 756.096C1018.24 755.448 1017.3 754.56 1016.66 754.152C1019.34 752.208 1021.31 749.688 1022.42 747.576ZM1020.09 751.68H1022.82V759.24H1038.4V761.424H1020.09V751.68ZM1055.58 751.56C1055.25 754.008 1054.77 756.816 1053.93 759.648C1052.49 764.496 1050.42 767.472 1047.81 767.472C1045.12 767.472 1042.91 764.52 1042.91 760.464C1042.91 754.944 1047.74 750.192 1053.95 750.192C1059.88 750.192 1063.65 754.32 1063.65 759.576C1063.65 764.616 1060.55 768.192 1054.5 769.128L1052.68 766.296C1053.62 766.176 1054.29 766.056 1054.94 765.912C1057.98 765.168 1060.38 762.984 1060.38 759.456C1060.38 755.688 1058.03 753 1053.88 753C1048.79 753 1046.01 757.152 1046.01 760.176C1046.01 762.6 1046.97 763.776 1047.88 763.776C1048.91 763.776 1049.82 762.24 1050.83 759C1051.53 756.744 1052.06 753.984 1052.3 751.464L1055.58 751.56ZM1077.76 748.512H1080.45V751.032C1080.45 753.36 1079.82 756.168 1076.97 757.92C1076.63 757.368 1075.6 756.216 1075.07 755.832C1077.45 754.44 1077.76 752.568 1077.76 750.96V748.512ZM1079.1 748.512H1084.91V751.176H1079.1V748.512ZM1083.54 748.512H1086.28V753.744C1086.28 754.392 1086.35 754.464 1086.64 754.464C1086.76 754.464 1087.19 754.464 1087.34 754.464C1087.67 754.464 1087.74 754.128 1087.79 752.04C1088.32 752.472 1089.45 752.88 1090.17 753.072C1089.93 756.024 1089.28 756.84 1087.65 756.84C1087.22 756.84 1086.5 756.84 1086.11 756.84C1084.12 756.84 1083.54 756.144 1083.54 753.768V748.512ZM1076.46 757.92H1086.45V760.512H1076.46V757.92ZM1085.56 757.92H1086.11L1086.64 757.824L1088.51 758.544C1086.66 765.24 1082.01 768.6 1075.77 770.184C1075.48 769.416 1074.81 768.192 1074.28 767.568C1079.9 766.464 1084.14 763.464 1085.56 758.352V757.92ZM1079.66 760.344C1081.41 763.992 1085.06 766.536 1090.19 767.544C1089.57 768.144 1088.73 769.368 1088.32 770.136C1082.85 768.84 1079.25 765.768 1077.06 761.136L1079.66 760.344ZM1067.1 759.96C1069.14 759.552 1072.31 758.76 1075.36 758.016L1075.67 760.512C1072.98 761.376 1070.18 762.288 1067.92 762.96L1067.1 759.96ZM1067.49 752.088H1075.77V754.752H1067.49V752.088ZM1070.54 747.624H1073.37V767.064C1073.37 768.456 1073.1 769.176 1072.29 769.608C1071.5 770.04 1070.34 770.136 1068.64 770.112C1068.54 769.392 1068.18 768.216 1067.85 767.496C1068.76 767.52 1069.77 767.52 1070.08 767.52C1070.39 767.496 1070.54 767.4 1070.54 767.064V747.624ZM1106.58 747.624H1109.37V751.056H1106.58V747.624ZM1101.23 749.928H1114.58V752.16H1101.23V749.928ZM1105.5 754.992V756.432H1110.52V754.992H1105.5ZM1103.08 753.048H1113.09V758.376H1103.08V753.048ZM1101.4 759.24H1112.97V761.472H1103.97V770.184H1101.4V759.24ZM1111.98 759.24H1114.6V767.688C1114.6 768.768 1114.41 769.392 1113.74 769.776C1113.04 770.136 1112.13 770.16 1110.88 770.16C1110.81 769.488 1110.5 768.552 1110.21 767.928C1110.83 767.952 1111.48 767.952 1111.7 767.952C1111.91 767.928 1111.98 767.88 1111.98 767.64V759.24ZM1104.98 762.432H1106.94V768.696H1104.98V762.432ZM1106.46 762.432H1110.93V767.568H1106.46V765.84H1108.94V764.184H1106.46V762.432ZM1095.83 749.832H1098.59V770.16H1095.83V749.832ZM1092.66 754.416H1101.21V757.056H1092.66V754.416ZM1096.02 755.472L1097.7 756.192C1096.89 759.576 1095.35 763.92 1093.62 766.296C1093.38 765.48 1092.74 764.256 1092.3 763.536C1093.82 761.592 1095.35 758.088 1096.02 755.472ZM1099.53 747.96L1101.54 750.12C1099.17 751.008 1096.02 751.584 1093.34 751.896C1093.22 751.296 1092.86 750.312 1092.54 749.712C1095.04 749.328 1097.82 748.704 1099.53 747.96ZM1098.5 757.296C1099.1 757.824 1101.09 760.104 1101.52 760.704L1099.86 762.936C1099.34 761.712 1097.94 759.456 1097.25 758.4L1098.5 757.296Z" fill="#081F5C"/>
<defs>
<linearGradient id="paint0_linear_76_103" x1="265.177" y1="334.454" x2="286.522" y2="312.886" gradientUnits="userSpaceOnUse">
<stop stop-color="#F3BDC2"/>
<stop offset="1" stop-color="#7F6AAD"/>
</linearGradient>
<linearGradient id="paint1_linear_76_103" x1="292.389" y1="334.456" x2="271.043" y2="312.887" gradientUnits="userSpaceOnUse">
<stop stop-color="#F3BDC2"/>
<stop offset="1" stop-color="#7F6AAD"/>
</linearGradient>
<linearGradient id="paint2_linear_76_103" x1="268.295" y1="313.794" x2="289.121" y2="335.614" gradientUnits="userSpaceOnUse">
<stop stop-color="#F3BDC2"/>
<stop offset="1" stop-color="#7F6AAD"/>
</linearGradient>
<linearGradient id="paint3_linear_76_103" x1="243.716" y1="301.214" x2="277.24" y2="321.182" gradientUnits="userSpaceOnUse">
<stop stop-color="#F3BDC2"/>
<stop offset="1" stop-color="#7F6AAD"/>
</linearGradient>
<linearGradient id="paint4_linear_76_103" x1="269.387" y1="322.6" x2="291.221" y2="342.141" gradientUnits="userSpaceOnUse">
<stop stop-color="#F3BDC2"/>
<stop offset="1" stop-color="#7F6AAD"/>
</linearGradient>
<linearGradient id="paint5_linear_76_103" x1="268.95" y1="304.783" x2="287.763" y2="324.426" gradientUnits="userSpaceOnUse">
<stop stop-color="#F3BDC2"/>
<stop offset="1" stop-color="#7F6AAD"/>
</linearGradient>
<linearGradient id="paint6_linear_76_103" x1="257" y1="312.892" x2="279.218" y2="312.892" gradientUnits="userSpaceOnUse">
<stop stop-color="#F3BDC2"/>
<stop offset="1" stop-color="#7F6AAD"/>
</linearGradient>
<linearGradient id="paint7_linear_76_103" x1="301" y1="312.892" x2="278.782" y2="312.892" gradientUnits="userSpaceOnUse">
<stop stop-color="#F3BDC2"/>
<stop offset="1" stop-color="#7F6AAD"/>
</linearGradient>
<linearGradient id="paint8_linear_76_103" x1="331.494" y1="346" x2="331.494" y2="323.782" gradientUnits="userSpaceOnUse">
<stop stop-color="#F3BDC2"/>
<stop offset="1" stop-color="#7F6AAD"/>
</linearGradient>
</defs>
</svg>
