<svg width="1920" height="1080" viewBox="0 0 1920 1080" fill="none" xmlns="http://www.w3.org/2000/svg">
<rect width="1920" height="1080" fill="#F4F5F9"/>
<path d="M173.52 170.84C162.3 170.84 153.24 162.8 153.24 147.98C153.24 133.34 162.6 124.82 173.88 124.82C179.52 124.82 184.02 127.46 186.9 130.46L182.22 136.16C179.94 133.94 177.42 132.44 174 132.44C167.34 132.44 162.3 138.2 162.3 147.68C162.3 157.4 166.8 163.16 173.88 163.16C177.66 163.16 180.66 161.36 183 158.78L187.68 164.36C184.02 168.62 179.28 170.84 173.52 170.84ZM211.155 170.84C202.695 170.84 195.015 164.36 195.015 153.26C195.015 142.1 202.695 135.62 211.155 135.62C219.555 135.62 227.235 142.1 227.235 153.26C227.235 164.36 219.555 170.84 211.155 170.84ZM211.155 163.7C215.715 163.7 218.235 159.56 218.235 153.26C218.235 146.9 215.715 142.82 211.155 142.82C206.535 142.82 204.015 146.9 204.015 153.26C204.015 159.56 206.535 163.7 211.155 163.7ZM245.954 170.84C239.774 170.84 237.674 166.82 237.674 160.58V122.18H246.494V160.94C246.494 163.04 247.394 163.7 248.234 163.7C248.534 163.7 248.774 163.7 249.374 163.58L250.454 170.12C249.434 170.48 248.054 170.84 245.954 170.84ZM273.639 170.84C265.179 170.84 257.499 164.36 257.499 153.26C257.499 142.1 265.179 135.62 273.639 135.62C282.039 135.62 289.719 142.1 289.719 153.26C289.719 164.36 282.039 170.84 273.639 170.84ZM273.639 163.7C278.199 163.7 280.719 159.56 280.719 153.26C280.719 146.9 278.199 142.82 273.639 142.82C269.019 142.82 266.499 146.9 266.499 153.26C266.499 159.56 269.019 163.7 273.639 163.7ZM300.158 170V136.46H307.298L308.018 142.4H308.198C310.598 137.96 314.258 135.62 317.738 135.62C319.538 135.62 320.618 135.86 321.638 136.34L320.138 143.9C318.938 143.6 318.038 143.36 316.598 143.36C314.018 143.36 310.838 145.16 308.978 150.02V170H300.158ZM359.923 170.84C353.923 170.84 348.043 168.56 343.723 164.42L348.823 158.3C351.943 161.24 356.203 163.16 360.103 163.16C364.723 163.16 367.123 161.18 367.123 158.12C367.123 154.82 364.423 153.74 360.463 152.06L354.523 149.54C350.083 147.74 345.523 144.08 345.523 137.66C345.523 130.4 351.943 124.82 360.883 124.82C366.043 124.82 371.203 126.86 374.803 130.52L370.363 136.1C367.483 133.76 364.543 132.44 360.883 132.44C356.983 132.44 354.523 134.18 354.523 137.06C354.523 140.24 357.703 141.44 361.483 142.94L367.303 145.34C372.643 147.56 376.183 151.04 376.183 157.4C376.183 164.66 370.123 170.84 359.923 170.84ZM400.605 170.84C391.365 170.84 384.285 164.36 384.285 153.26C384.285 142.1 392.265 135.62 401.385 135.62C405.585 135.62 408.705 137.18 411.165 139.34L407.025 144.98C405.345 143.54 403.725 142.82 401.925 142.82C396.705 142.82 393.285 146.9 393.285 153.26C393.285 159.56 396.765 163.7 401.565 163.7C404.025 163.7 406.305 162.5 408.165 161L411.645 166.82C408.465 169.58 404.325 170.84 400.605 170.84ZM421.025 170V122.18H429.845V134.24L429.425 140.54C432.065 138.02 435.425 135.62 439.985 135.62C447.185 135.62 450.365 140.66 450.365 149.06V170H441.545V150.2C441.545 144.92 440.045 143.18 436.805 143.18C434.045 143.18 432.305 144.5 429.845 146.9V170H421.025ZM477.044 170.84C467.624 170.84 460.304 164.36 460.304 153.26C460.304 142.34 467.984 135.62 475.904 135.62C485.204 135.62 489.944 142.34 489.944 151.64C489.944 153.32 489.764 154.88 489.584 155.72H468.824C469.604 161.24 473.204 164.06 478.184 164.06C480.884 164.06 483.284 163.22 485.744 161.72L488.684 167.18C485.384 169.46 481.184 170.84 477.044 170.84ZM468.704 149.84H482.444C482.444 145.28 480.404 142.4 476.084 142.4C472.544 142.4 469.424 144.92 468.704 149.84ZM500.267 170V136.46H507.407L508.127 140.9H508.307C511.127 138.02 514.247 135.62 518.567 135.62C523.427 135.62 526.247 137.72 527.807 141.44C530.927 138.26 534.167 135.62 538.547 135.62C545.687 135.62 548.927 140.66 548.927 149.06V170H540.107V150.2C540.107 144.92 538.667 143.18 535.427 143.18C533.507 143.18 531.407 144.38 529.007 146.9V170H520.187V150.2C520.187 144.92 518.687 143.18 515.447 143.18C513.587 143.18 511.367 144.38 509.087 146.9V170H500.267ZM575.739 170.84C566.319 170.84 558.999 164.36 558.999 153.26C558.999 142.34 566.679 135.62 574.599 135.62C583.899 135.62 588.639 142.34 588.639 151.64C588.639 153.32 588.459 154.88 588.279 155.72H567.519C568.299 161.24 571.899 164.06 576.879 164.06C579.579 164.06 581.979 163.22 584.439 161.72L587.379 167.18C584.079 169.46 579.879 170.84 575.739 170.84ZM567.399 149.84H581.139C581.139 145.28 579.099 142.4 574.779 142.4C571.239 142.4 568.119 144.92 567.399 149.84Z" fill="#081F5C"/>
<path d="M151.86 384.36C157.23 382.98 161.61 381.03 164.97 378.96C168.03 377.07 171.45 374.07 173.4 371.7L176.64 374.76C173.91 377.52 170.25 380.34 166.71 382.47C163.32 384.48 158.46 386.73 153.72 388.14L151.86 384.36ZM164.34 380.91L168.6 379.89V393.42C168.6 394.74 168.66 396.6 168.87 397.35H164.1C164.22 396.63 164.34 394.74 164.34 393.42V380.91ZM206.79 373.95C206.37 374.64 205.8 375.96 205.53 376.68C204.39 379.65 202.56 383.61 200.07 386.85C197.28 390.45 193.59 394.32 187.77 397.53L184.44 394.47C189.9 391.86 193.65 388.53 196.83 384.39C199.2 381.27 200.55 378.18 201.6 375.18C201.87 374.4 202.17 373.17 202.32 372.42L206.79 373.95ZM190.29 376.86C193.26 378.72 197.37 381.57 199.89 383.55C203.1 386.04 206.25 388.86 208.68 391.44L205.59 394.89C202.98 391.83 200.34 389.37 197.16 386.73C195 384.93 191.49 382.23 187.71 379.92L190.29 376.86ZM215.73 382.11C216.84 382.2 219 382.32 220.56 382.32C224.1 382.32 234 382.32 236.67 382.32C238.08 382.32 239.4 382.17 240.21 382.11V386.85C239.49 386.82 237.96 386.67 236.7 386.67C233.97 386.67 224.1 386.67 220.56 386.67C218.88 386.67 216.87 386.76 215.73 386.85V382.11ZM265.784 372.99C266.624 374.25 267.854 376.23 268.514 377.61L265.934 378.75C265.034 376.86 264.374 375.57 263.264 374.01L265.784 372.99ZM269.924 371.52C270.854 372.72 272.024 374.7 272.744 376.02L270.164 377.16C269.204 375.27 268.484 374.1 267.374 372.6L269.924 371.52ZM252.764 372.39C254.744 373.47 258.044 375.6 259.604 376.68L257.354 380.01C255.704 378.84 252.554 376.8 250.574 375.69L252.764 372.39ZM247.214 393.69C250.544 393.12 254.144 392.13 257.414 390.33C262.514 387.48 266.684 383.37 269.084 379.08L271.394 383.16C268.604 387.3 264.374 391.11 259.454 393.93C256.424 395.67 252.104 397.17 249.464 397.65L247.214 393.69ZM248.144 379.23C250.154 380.31 253.454 382.38 254.984 383.46L252.794 386.82C251.084 385.65 247.994 383.61 245.954 382.56L248.144 379.23ZM290.414 380.55C288.824 380.55 287.534 379.35 287.534 377.73C287.534 376.08 288.824 374.88 290.414 374.88C291.974 374.88 293.264 376.08 293.264 377.73C293.264 379.35 291.974 380.55 290.414 380.55ZM290.414 394.86C288.824 394.86 287.534 393.66 287.534 392.04C287.534 390.39 288.824 389.19 290.414 389.19C291.974 389.19 293.264 390.39 293.264 392.04C293.264 393.66 291.974 394.86 290.414 394.86ZM319.904 370.5H323.744V375.96H319.904V370.5ZM309.134 373.2H334.784V380.31H330.944V376.53H312.794V380.31H309.134V373.2ZM318.824 377.25L322.604 378.06C320.324 382.89 317.264 388.86 315.104 392.61L311.324 391.59C313.574 387.93 316.754 381.87 318.824 377.25ZM326.384 384.12L330.464 384.66C327.824 393.87 321.524 397.23 311.234 398.73C310.904 397.86 309.854 396.24 309.194 395.43C319.034 394.47 324.764 391.8 326.384 384.12ZM308.534 381.72H335.324V385.11H308.534V381.72ZM313.574 390.96L316.184 388.47C321.974 390.06 329.924 393.12 334.124 395.7L331.214 398.64C327.434 396.12 319.634 392.76 313.574 390.96ZM347.324 379.11H351.074V393.45C351.074 394.92 351.314 395.13 352.724 395.13C353.354 395.13 356.054 395.13 356.834 395.13C358.304 395.13 358.544 394.14 358.784 389.43C359.594 390.09 361.124 390.75 362.144 390.99C361.724 396.63 360.734 398.4 357.134 398.4C356.324 398.4 353.024 398.4 352.244 398.4C348.404 398.4 347.324 397.23 347.324 393.45V379.11ZM347.444 373.41L349.784 370.62C353.324 371.88 357.464 374.13 359.864 375.87L357.464 379.05C355.184 377.13 350.984 374.79 347.444 373.41ZM341.924 381.24L345.464 381.96C345.014 386.13 344.234 390.75 342.254 393.69L338.894 391.77C340.664 389.19 341.534 385.26 341.924 381.24ZM359.204 381.72L362.504 380.07C365.084 383.37 367.244 387.78 367.964 390.93L364.304 392.73C363.704 389.64 361.604 385.02 359.204 381.72ZM377.564 398.07C375.734 395.85 373.184 393.27 371.084 391.47L374.234 388.77C376.364 390.51 379.244 393.45 380.774 395.31L377.564 398.07ZM416.744 393.21C421.994 392.4 425.774 390.27 425.774 385.59C425.774 383.25 423.884 381.09 420.884 381.09C417.044 381.09 413.834 383.28 410.894 386.37L410.924 382.14C414.494 378.75 418.304 377.58 421.514 377.58C426.104 377.58 429.764 380.85 429.764 385.65C429.764 391.74 425.954 395.34 418.514 396.81L416.744 393.21ZM409.934 380.16C408.584 380.31 405.734 380.7 403.754 380.97L403.364 377.1C404.204 377.13 404.894 377.13 405.974 377.07C407.864 376.98 411.704 376.41 413.054 375.96L414.254 377.52C413.744 378.21 412.814 379.68 412.304 380.46L410.564 386.1C409.244 388.02 406.574 392.04 404.984 394.23L402.644 390.93C404.534 388.59 408.134 383.82 409.634 381.48L409.694 380.7L409.934 380.16ZM409.574 374.37C409.574 373.53 409.604 372.63 409.424 371.7L413.804 371.82C413.294 374.22 412.304 382.08 412.304 387.45C412.304 389.88 412.304 392.43 412.484 395.22C412.514 395.76 412.634 396.87 412.694 397.53H408.584C408.644 396.9 408.674 395.79 408.674 395.31C408.704 392.4 408.734 390.39 408.824 386.64C408.914 383.97 409.574 375.57 409.574 374.37ZM454.934 374.4C453.974 375.09 452.984 375.87 452.294 376.44C450.344 378 446.384 381.06 444.374 382.8C442.784 384.15 442.814 384.51 444.434 385.92C446.684 387.81 452.384 392.28 455.444 395.25L451.964 398.49C451.124 397.53 450.224 396.6 449.324 395.7C447.524 393.81 443.114 390.03 440.354 387.72C437.384 385.17 437.624 383.55 440.624 381.06C442.964 379.14 447.104 375.81 449.114 373.83C449.984 372.99 450.944 372 451.424 371.28L454.934 374.4ZM479.744 393.21C484.994 392.4 488.774 390.27 488.774 385.59C488.774 383.25 486.884 381.09 483.884 381.09C480.044 381.09 476.834 383.28 473.894 386.37L473.924 382.14C477.494 378.75 481.304 377.58 484.514 377.58C489.104 377.58 492.764 380.85 492.764 385.65C492.764 391.74 488.954 395.34 481.514 396.81L479.744 393.21ZM472.934 380.16C471.584 380.31 468.734 380.7 466.754 380.97L466.364 377.1C467.204 377.13 467.894 377.13 468.974 377.07C470.864 376.98 474.704 376.41 476.054 375.96L477.254 377.52C476.744 378.21 475.814 379.68 475.304 380.46L473.564 386.1C472.244 388.02 469.574 392.04 467.984 394.23L465.644 390.93C467.534 388.59 471.134 383.82 472.634 381.48L472.694 380.7L472.934 380.16ZM472.574 374.37C472.574 373.53 472.604 372.63 472.424 371.7L476.804 371.82C476.294 374.22 475.304 382.08 475.304 387.45C475.304 389.88 475.304 392.43 475.484 395.22C475.514 395.76 475.634 396.87 475.694 397.53H471.584C471.644 396.9 471.674 395.79 471.674 395.31C471.704 392.4 471.734 390.39 471.824 386.64C471.914 383.97 472.574 375.57 472.574 374.37ZM517.934 374.4C516.974 375.09 515.984 375.87 515.294 376.44C513.344 378 509.384 381.06 507.374 382.8C505.784 384.15 505.814 384.51 507.434 385.92C509.684 387.81 515.384 392.28 518.444 395.25L514.964 398.49C514.124 397.53 513.224 396.6 512.324 395.7C510.524 393.81 506.114 390.03 503.354 387.72C500.384 385.17 500.624 383.55 503.624 381.06C505.964 379.14 510.104 375.81 512.114 373.83C512.984 372.99 513.944 372 514.424 371.28L517.934 374.4ZM535.064 398.07C533.234 395.85 530.684 393.27 528.584 391.47L531.734 388.77C533.864 390.51 536.744 393.45 538.274 395.31L535.064 398.07ZM560.534 387.6H587.324V390.72H560.534V387.6ZM572.024 385.2H575.684V398.67H572.024V385.2ZM570.914 388.95L573.854 390.24C571.124 393.78 566.564 396.84 562.124 398.43C561.584 397.53 560.504 396.15 559.724 395.43C564.044 394.2 568.604 391.71 570.914 388.95ZM576.764 389.04C579.134 391.65 583.724 394.02 588.104 395.19C587.324 395.88 586.214 397.29 585.704 398.19C581.264 396.69 576.644 393.75 573.794 390.42L576.764 389.04ZM571.364 380.82V382.86H576.284V380.82H571.364ZM571.364 376.26V378.27H576.284V376.26H571.364ZM568.034 373.5H579.794V385.62H568.034V373.5ZM572.174 370.5L576.224 370.95C575.594 372.57 574.964 374.1 574.454 375.15L571.274 374.58C571.634 373.35 572.024 371.73 572.174 370.5ZM560.324 374.46L562.784 372.39C564.554 373.62 566.684 375.42 567.644 376.83L565.004 379.14C564.134 377.73 562.094 375.78 560.324 374.46ZM579.014 381.63L581.114 379.23C583.334 380.34 586.484 382.11 588.044 383.37L585.824 386.07C584.384 384.78 581.324 382.86 579.014 381.63ZM584.084 372L587.204 373.86C585.614 375.6 583.664 377.4 582.134 378.6L579.464 376.83C580.934 375.6 582.944 373.56 584.084 372ZM559.784 383.22C561.614 382.35 564.314 380.91 566.954 379.5L567.944 382.38C565.844 383.67 563.504 385.08 561.584 386.19L559.784 383.22ZM601.544 372.21C601.364 373.47 601.214 375.03 601.154 376.23C601.004 379.47 600.794 386.16 600.794 389.88C600.794 392.91 602.594 393.9 604.934 393.9C609.884 393.9 613.004 391.05 615.194 387.78L617.924 391.11C615.974 393.99 611.714 397.98 604.874 397.98C599.954 397.98 596.804 395.82 596.804 390.69C596.804 386.67 597.074 378.81 597.074 376.23C597.074 374.79 596.954 373.35 596.714 372.18L601.544 372.21ZM629.684 374.58C629.474 375.63 629.324 377.4 629.324 378.24C629.324 380.19 629.324 382.41 629.504 384.6C629.924 388.92 630.824 391.89 632.714 391.89C634.154 391.89 635.324 388.35 635.894 385.98L638.924 389.61C636.914 394.86 635.054 396.66 632.654 396.66C629.324 396.66 626.474 393.72 625.634 385.68C625.334 382.92 625.304 379.38 625.304 377.55C625.304 376.74 625.274 375.45 625.064 374.52L629.684 374.58ZM644.684 375.24C647.534 378.69 649.844 386.19 650.174 390.78L646.214 392.34C645.764 387.48 644.144 380.22 640.874 376.5L644.684 375.24Z" fill="#212121"/>
<path d="M149.856 279L158.388 252.36H164.652L173.184 279H167.604L163.788 265.14C162.996 262.368 162.24 259.272 161.484 256.428H161.34C160.62 259.308 159.864 262.368 159.072 265.14L155.256 279H149.856ZM155.148 272.16V268.056H167.82V272.16H155.148ZM177.706 286.74V258.876H181.99L182.422 260.964H182.53C184.186 259.488 186.274 258.372 188.434 258.372C193.403 258.372 196.354 262.404 196.354 268.632C196.354 275.544 192.215 279.504 187.787 279.504C186.058 279.504 184.33 278.748 182.818 277.344L182.998 280.62V286.74H177.706ZM186.635 275.148C189.047 275.148 190.918 273.06 190.918 268.704C190.918 264.816 189.73 262.692 186.922 262.692C185.59 262.692 184.366 263.376 182.998 264.78V273.672C184.258 274.788 185.554 275.148 186.635 275.148ZM202.674 286.74V258.876H206.958L207.39 260.964H207.498C209.154 259.488 211.242 258.372 213.402 258.372C218.37 258.372 221.322 262.404 221.322 268.632C221.322 275.544 217.182 279.504 212.754 279.504C211.026 279.504 209.298 278.748 207.786 277.344L207.966 280.62V286.74H202.674ZM211.602 275.148C214.014 275.148 215.886 273.06 215.886 268.704C215.886 264.816 214.698 262.692 211.89 262.692C210.558 262.692 209.334 263.376 207.966 264.78V273.672C209.226 274.788 210.522 275.148 211.602 275.148ZM236.483 270.612V266.832H246.347V270.612H236.483ZM263.111 279V252.36H270.419C278.555 252.36 283.559 256.572 283.559 265.572C283.559 274.536 278.555 279 270.707 279H263.111ZM268.439 274.716H270.059C275.063 274.716 278.123 272.052 278.123 265.572C278.123 259.092 275.063 256.608 270.059 256.608H268.439V274.716ZM295.11 279.504C291.51 279.504 289.17 276.984 289.17 273.528C289.17 269.244 292.662 266.976 300.762 266.076C300.654 264.096 299.826 262.62 297.342 262.62C295.47 262.62 293.634 263.412 291.798 264.528L289.89 261C292.266 259.56 295.11 258.372 298.314 258.372C303.426 258.372 306.054 261.396 306.054 267.264V279H301.734L301.338 276.876H301.194C299.43 278.388 297.414 279.504 295.11 279.504ZM296.838 275.364C298.35 275.364 299.466 274.68 300.762 273.42V269.352C295.83 269.964 294.21 271.296 294.21 273.132C294.21 274.68 295.29 275.364 296.838 275.364ZM313.248 279V258.876H317.532L317.964 262.44H318.072C319.512 259.776 321.708 258.372 323.796 258.372C324.876 258.372 325.524 258.516 326.136 258.804L325.236 263.34C324.516 263.16 323.976 263.016 323.112 263.016C321.564 263.016 319.656 264.096 318.54 267.012V279H313.248ZM330.763 279V250.308H335.947V267.516H336.127L342.967 258.876H348.799L341.887 267.156L349.411 279H343.687L338.791 270.648L335.947 273.924V279H330.763ZM374.326 279.504C372.526 279.504 370.582 278.568 368.962 276.876H368.818L368.386 279H364.246V250.308H369.538V257.544L369.358 260.748C370.978 259.344 372.958 258.372 374.974 258.372C379.906 258.372 382.894 262.404 382.894 268.596C382.894 275.544 378.754 279.504 374.326 279.504ZM373.174 275.148C375.586 275.148 377.458 273.06 377.458 268.704C377.458 264.816 376.27 262.692 373.462 262.692C372.13 262.692 370.87 263.376 369.538 264.78V273.672C370.762 274.788 372.094 275.148 373.174 275.148ZM394.182 279.504C390.474 279.504 389.214 277.092 389.214 273.348V250.308H394.506V273.564C394.506 274.824 395.046 275.22 395.55 275.22C395.73 275.22 395.874 275.22 396.234 275.148L396.882 279.072C396.27 279.288 395.442 279.504 394.182 279.504ZM408.381 279.504C404.025 279.504 402.117 276.516 402.117 271.44V258.876H407.409V270.792C407.409 273.888 408.273 274.968 410.253 274.968C411.909 274.968 412.989 274.248 414.357 272.448V258.876H419.613V279H415.293L414.897 276.12H414.789C413.025 278.172 411.117 279.504 408.381 279.504ZM435.875 279.504C430.223 279.504 425.831 275.616 425.831 268.956C425.831 262.404 430.439 258.372 435.191 258.372C440.771 258.372 443.615 262.404 443.615 267.984C443.615 268.992 443.507 269.928 443.399 270.432H430.943C431.411 273.744 433.571 275.436 436.559 275.436C438.179 275.436 439.619 274.932 441.095 274.032L442.859 277.308C440.879 278.676 438.359 279.504 435.875 279.504ZM430.871 266.904H439.115C439.115 264.168 437.891 262.44 435.299 262.44C433.175 262.44 431.303 263.952 430.871 266.904ZM153.276 331V304.36H158.604V326.536H169.44V331H153.276ZM183.142 331.504C178.066 331.504 173.458 327.616 173.458 320.956C173.458 314.26 178.066 310.372 183.142 310.372C188.182 310.372 192.79 314.26 192.79 320.956C192.79 327.616 188.182 331.504 183.142 331.504ZM183.142 327.22C185.878 327.22 187.39 324.736 187.39 320.956C187.39 317.14 185.878 314.692 183.142 314.692C180.37 314.692 178.858 317.14 178.858 320.956C178.858 324.736 180.37 327.22 183.142 327.22ZM206.109 339.748C201.393 339.748 197.721 338.128 197.721 334.6C197.721 332.908 198.729 331.432 200.601 330.424V330.244C199.557 329.56 198.765 328.48 198.765 326.824C198.765 325.312 199.773 323.944 201.033 323.08V322.936C199.629 321.928 198.297 320.02 198.297 317.644C198.297 312.892 202.185 310.372 206.433 310.372C207.585 310.372 208.665 310.552 209.493 310.876H216.765V314.764H213.309C213.849 315.448 214.245 316.564 214.245 317.788C214.245 322.36 210.789 324.628 206.433 324.628C205.641 324.628 204.741 324.484 203.841 324.16C203.301 324.664 202.977 325.096 202.977 325.924C202.977 326.968 203.805 327.58 206.145 327.58H209.601C214.461 327.58 217.125 329.056 217.125 332.62C217.125 336.688 212.841 339.748 206.109 339.748ZM206.433 321.388C208.197 321.388 209.601 320.02 209.601 317.644C209.601 315.268 208.233 313.972 206.433 313.972C204.669 313.972 203.265 315.268 203.265 317.644C203.265 320.02 204.669 321.388 206.433 321.388ZM206.937 336.4C209.961 336.4 212.013 335.068 212.013 333.52C212.013 332.08 210.825 331.684 208.665 331.684H206.217C204.993 331.684 204.165 331.612 203.445 331.396C202.509 332.152 202.113 332.944 202.113 333.772C202.113 335.464 203.985 336.4 206.937 336.4ZM229.879 331.504C224.803 331.504 220.195 327.616 220.195 320.956C220.195 314.26 224.803 310.372 229.879 310.372C234.919 310.372 239.527 314.26 239.527 320.956C239.527 327.616 234.919 331.504 229.879 331.504ZM229.879 327.22C232.615 327.22 234.127 324.736 234.127 320.956C234.127 317.14 232.615 314.692 229.879 314.692C227.107 314.692 225.595 317.14 225.595 320.956C225.595 324.736 227.107 327.22 229.879 327.22ZM254.63 322.612V318.832H264.494V322.612H254.63ZM281.259 331V304.36H288.567C296.703 304.36 301.707 308.572 301.707 317.572C301.707 326.536 296.703 331 288.855 331H281.259ZM286.587 326.716H288.207C293.211 326.716 296.271 324.052 296.271 317.572C296.271 311.092 293.211 308.608 288.207 308.608H286.587V326.716ZM313.258 331.504C309.658 331.504 307.318 328.984 307.318 325.528C307.318 321.244 310.81 318.976 318.91 318.076C318.802 316.096 317.974 314.62 315.49 314.62C313.618 314.62 311.782 315.412 309.946 316.528L308.038 313C310.414 311.56 313.258 310.372 316.462 310.372C321.574 310.372 324.202 313.396 324.202 319.264V331H319.882L319.486 328.876H319.342C317.578 330.388 315.562 331.504 313.258 331.504ZM314.986 327.364C316.498 327.364 317.614 326.68 318.91 325.42V321.352C313.978 321.964 312.358 323.296 312.358 325.132C312.358 326.68 313.438 327.364 314.986 327.364ZM331.396 331V310.876H335.68L336.112 314.44H336.22C337.66 311.776 339.856 310.372 341.944 310.372C343.024 310.372 343.672 310.516 344.284 310.804L343.384 315.34C342.664 315.16 342.124 315.016 341.26 315.016C339.712 315.016 337.804 316.096 336.688 319.012V331H331.396ZM348.91 331V302.308H354.094V319.516H354.274L361.114 310.876H366.946L360.034 319.156L367.558 331H361.834L356.938 322.648L354.094 325.924V331H348.91ZM392.473 331.504C390.673 331.504 388.729 330.568 387.109 328.876H386.965L386.533 331H382.393V302.308H387.685V309.544L387.505 312.748C389.125 311.344 391.105 310.372 393.121 310.372C398.053 310.372 401.041 314.404 401.041 320.596C401.041 327.544 396.901 331.504 392.473 331.504ZM391.321 327.148C393.733 327.148 395.605 325.06 395.605 320.704C395.605 316.816 394.417 314.692 391.609 314.692C390.277 314.692 389.017 315.376 387.685 316.78V325.672C388.909 326.788 390.241 327.148 391.321 327.148ZM412.329 331.504C408.621 331.504 407.361 329.092 407.361 325.348V302.308H412.653V325.564C412.653 326.824 413.193 327.22 413.697 327.22C413.877 327.22 414.021 327.22 414.381 327.148L415.029 331.072C414.417 331.288 413.589 331.504 412.329 331.504ZM426.529 331.504C422.173 331.504 420.265 328.516 420.265 323.44V310.876H425.557V322.792C425.557 325.888 426.421 326.968 428.401 326.968C430.057 326.968 431.137 326.248 432.505 324.448V310.876H437.761V331H433.441L433.045 328.12H432.937C431.173 330.172 429.265 331.504 426.529 331.504ZM454.023 331.504C448.371 331.504 443.979 327.616 443.979 320.956C443.979 314.404 448.587 310.372 453.339 310.372C458.919 310.372 461.763 314.404 461.763 319.984C461.763 320.992 461.655 321.928 461.547 322.432H449.091C449.559 325.744 451.719 327.436 454.707 327.436C456.327 327.436 457.767 326.932 459.243 326.032L461.007 329.308C459.027 330.676 456.507 331.504 454.023 331.504ZM449.019 318.904H457.263C457.263 316.168 456.039 314.44 453.447 314.44C451.323 314.44 449.451 315.952 449.019 318.904ZM484.825 331.504C479.281 331.504 476.149 328.084 476.149 323.944C476.149 315.484 488.533 315.052 488.533 309.724C488.533 308.392 487.885 307.384 486.517 307.384C484.969 307.384 483.853 308.68 483.853 310.624C483.853 315.052 489.541 321.064 494.905 324.484C497.065 325.888 499.189 326.86 500.953 327.22L499.657 331.504C497.137 331 494.401 329.704 491.701 327.904C485.257 323.404 479.461 316.06 479.461 310.624C479.461 306.916 482.197 303.892 486.409 303.892C490.225 303.892 492.601 306.196 492.601 309.688C492.601 316.708 481.189 318.508 481.189 323.62C481.189 325.924 482.953 327.436 485.473 327.436C487.453 327.436 489.433 326.356 491.197 324.628C493.285 322.468 494.977 319.624 495.913 316.132H500.737C499.549 320.164 497.641 323.8 494.797 327.004C492.385 329.704 489.073 331.504 484.825 331.504ZM528.197 331.504C520.961 331.504 515.417 326.68 515.417 317.788C515.417 309.004 521.105 303.892 528.197 303.892C532.013 303.892 534.677 305.548 536.405 307.276L533.597 310.696C532.265 309.436 530.753 308.464 528.377 308.464C523.913 308.464 520.853 311.92 520.853 317.608C520.853 323.44 523.517 326.896 528.737 326.896C530.033 326.896 531.329 326.536 532.085 325.924V320.668H527.333V316.312H536.837V328.3C535.037 330.1 531.869 331.504 528.197 331.504ZM543.922 331V310.876H548.206L548.638 314.44H548.746C550.186 311.776 552.382 310.372 554.47 310.372C555.55 310.372 556.198 310.516 556.81 310.804L555.91 315.34C555.19 315.16 554.65 315.016 553.786 315.016C552.238 315.016 550.33 316.096 549.214 319.012V331H543.922ZM565.068 331.504C561.468 331.504 559.128 328.984 559.128 325.528C559.128 321.244 562.62 318.976 570.72 318.076C570.612 316.096 569.784 314.62 567.3 314.62C565.428 314.62 563.592 315.412 561.756 316.528L559.848 313C562.224 311.56 565.068 310.372 568.272 310.372C573.384 310.372 576.012 313.396 576.012 319.264V331H571.692L571.296 328.876H571.152C569.388 330.388 567.372 331.504 565.068 331.504ZM566.796 327.364C568.308 327.364 569.424 326.68 570.72 325.42V321.352C565.788 321.964 564.168 323.296 564.168 325.132C564.168 326.68 565.248 327.364 566.796 327.364ZM590.298 331.504C585.258 331.504 582.018 327.58 582.018 320.956C582.018 314.368 586.158 310.372 590.478 310.372C592.746 310.372 594.15 311.2 595.626 312.532L595.41 309.364V302.308H600.702V331H596.382L595.986 328.912H595.878C594.402 330.388 592.386 331.504 590.298 331.504ZM591.63 327.148C593.07 327.148 594.258 326.572 595.41 325.096V316.24C594.222 315.124 592.926 314.692 591.666 314.692C589.398 314.692 587.454 316.852 587.454 320.884C587.454 325.096 589.002 327.148 591.63 327.148ZM613.106 331.504C609.506 331.504 607.166 328.984 607.166 325.528C607.166 321.244 610.658 318.976 618.758 318.076C618.65 316.096 617.822 314.62 615.338 314.62C613.466 314.62 611.63 315.412 609.794 316.528L607.886 313C610.262 311.56 613.106 310.372 616.31 310.372C621.422 310.372 624.05 313.396 624.05 319.264V331H619.73L619.334 328.876H619.19C617.426 330.388 615.41 331.504 613.106 331.504ZM614.834 327.364C616.346 327.364 617.462 326.68 618.758 325.42V321.352C613.826 321.964 612.206 323.296 612.206 325.132C612.206 326.68 613.286 327.364 614.834 327.364ZM637.708 331.504C632.92 331.504 631.084 328.48 631.084 323.98V315.016H628.276V311.092L631.408 310.876L631.984 305.404H636.376V310.876H641.38V315.016H636.376V323.98C636.376 326.284 637.348 327.364 639.112 327.364C639.796 327.364 640.552 327.112 641.128 326.896L641.992 330.748C640.912 331.108 639.508 331.504 637.708 331.504ZM647.317 331V310.876H652.609V331H647.317ZM649.945 307.6C648.109 307.6 646.885 306.448 646.885 304.684C646.885 302.956 648.109 301.84 649.945 301.84C651.781 301.84 653.041 302.956 653.041 304.684C653.041 306.448 651.781 307.6 649.945 307.6ZM668.474 331.504C663.398 331.504 658.79 327.616 658.79 320.956C658.79 314.26 663.398 310.372 668.474 310.372C673.514 310.372 678.122 314.26 678.122 320.956C678.122 327.616 673.514 331.504 668.474 331.504ZM668.474 327.22C671.21 327.22 672.722 324.736 672.722 320.956C672.722 317.14 671.21 314.692 668.474 314.692C665.702 314.692 664.19 317.14 664.19 320.956C664.19 324.736 665.702 327.22 668.474 327.22ZM684.385 331V310.876H688.669L689.101 313.54H689.209C690.937 311.812 693.025 310.372 695.761 310.372C700.081 310.372 701.989 313.396 701.989 318.436V331H696.697V319.12C696.697 315.952 695.797 314.908 693.853 314.908C692.197 314.908 691.153 315.7 689.677 317.14V331H684.385Z" fill="#081F5C"/>
<rect x="339" y="511" width="200" height="200" rx="100" fill="#081F5C"/>
<path d="M305.456 779V752.504H313.52C319.424 752.504 323.636 754.52 323.636 760.532C323.636 766.328 319.424 768.956 313.664 768.956H309.668V779H305.456ZM309.668 765.608H313.268C317.48 765.608 319.496 763.988 319.496 760.532C319.496 757.004 317.336 755.888 313.088 755.888H309.668V765.608ZM330.24 779V759.2H333.624L333.984 762.764H334.092C335.496 760.208 337.584 758.696 339.708 758.696C340.68 758.696 341.292 758.84 341.904 759.128L341.184 762.728C340.5 762.512 339.996 762.404 339.168 762.404C337.584 762.404 335.64 763.556 334.416 766.688V779H330.24ZM346.77 779V759.2H350.946V779H346.77ZM348.858 755.492C347.31 755.492 346.302 754.52 346.302 753.008C346.302 751.532 347.31 750.56 348.858 750.56C350.37 750.56 351.45 751.532 351.45 753.008C351.45 754.52 350.37 755.492 348.858 755.492ZM358.941 779V759.2H362.325L362.685 761.972H362.793C364.485 760.172 366.465 758.696 368.913 758.696C371.865 758.696 373.521 760.064 374.349 762.332C376.329 760.28 378.345 758.696 380.829 758.696C384.969 758.696 386.877 761.54 386.877 766.544V779H382.737V767.084C382.737 763.628 381.693 762.296 379.461 762.296C378.093 762.296 376.653 763.16 374.997 764.96V779H370.857V767.084C370.857 763.628 369.813 762.296 367.545 762.296C366.213 762.296 364.701 763.16 363.117 764.96V779H358.941ZM399.382 779.504C395.998 779.504 393.586 777.236 393.586 773.744C393.586 769.496 397.186 767.3 405.394 766.4C405.358 764.096 404.53 762.08 401.65 762.08C399.562 762.08 397.582 763.052 395.926 764.132L394.378 761.288C396.394 760.028 399.202 758.696 402.37 758.696C407.302 758.696 409.57 761.828 409.57 767.12V779H406.15L405.826 776.768H405.682C403.882 778.316 401.758 779.504 399.382 779.504ZM400.678 776.192C402.406 776.192 403.774 775.4 405.394 773.888V769.064C399.526 769.748 397.582 771.224 397.582 773.456C397.582 775.4 398.914 776.192 400.678 776.192ZM417.209 779V759.2H420.593L420.953 762.764H421.061C422.465 760.208 424.553 758.696 426.677 758.696C427.649 758.696 428.261 758.84 428.873 759.128L428.153 762.728C427.469 762.512 426.965 762.404 426.137 762.404C424.553 762.404 422.609 763.556 421.385 766.688V779H417.209ZM435.344 787.28C434.336 787.28 433.544 787.136 432.86 786.884L433.652 783.644C434.012 783.788 434.588 783.932 435.092 783.932C437.216 783.932 438.512 782.348 439.232 780.224L439.628 778.856L431.78 759.2H436.028L439.664 769.388C440.276 771.152 440.852 773.132 441.5 775.004H441.68C442.148 773.168 442.688 771.224 443.192 769.388L446.396 759.2H450.428L443.156 780.224C441.608 784.436 439.52 787.28 435.344 787.28ZM476.368 779.504C469.744 779.504 464.596 774.536 464.596 765.824C464.596 757.184 469.888 752.036 476.584 752.036C479.896 752.036 482.452 753.62 484.072 755.348L481.84 758.048C480.472 756.644 478.816 755.672 476.656 755.672C472.084 755.672 468.916 759.488 468.916 765.68C468.916 771.98 471.868 775.832 476.548 775.832C478.96 775.832 480.832 774.752 482.38 773.024L484.648 775.652C482.524 778.136 479.824 779.504 476.368 779.504ZM498.705 779.504C493.773 779.504 489.381 775.688 489.381 769.136C489.381 762.512 493.773 758.696 498.705 758.696C503.601 758.696 508.029 762.512 508.029 769.136C508.029 775.688 503.601 779.504 498.705 779.504ZM498.705 776.084C501.801 776.084 503.781 773.312 503.781 769.136C503.781 764.924 501.801 762.152 498.705 762.152C495.573 762.152 493.665 764.924 493.665 769.136C493.665 773.312 495.573 776.084 498.705 776.084ZM518.838 779.504C515.814 779.504 514.698 777.56 514.698 774.356V750.344H518.874V774.572C518.874 775.688 519.342 776.084 519.846 776.084C520.026 776.084 520.17 776.084 520.53 776.012L521.07 779.144C520.53 779.324 519.882 779.504 518.838 779.504ZM535.176 779.504C530.244 779.504 525.852 775.688 525.852 769.136C525.852 762.512 530.244 758.696 535.176 758.696C540.072 758.696 544.5 762.512 544.5 769.136C544.5 775.688 540.072 779.504 535.176 779.504ZM535.176 776.084C538.272 776.084 540.252 773.312 540.252 769.136C540.252 764.924 538.272 762.152 535.176 762.152C532.044 762.152 530.136 764.924 530.136 769.136C530.136 773.312 532.044 776.084 535.176 776.084ZM551.169 779V759.2H554.553L554.913 762.764H555.021C556.425 760.208 558.513 758.696 560.637 758.696C561.609 758.696 562.221 758.84 562.833 759.128L562.113 762.728C561.429 762.512 560.925 762.404 560.097 762.404C558.513 762.404 556.569 763.556 555.345 766.688V779H551.169Z" fill="#212121"/>
<path d="M374.026 852L374.89 844.704H372.042V842.656H375.146L375.818 837.376H372.778V835.328H376.042L376.874 828.768H378.762L377.93 835.328H382.666L383.53 828.768H385.418L384.586 835.328H387.466V837.376H384.362L383.69 842.656H386.762V844.704H383.434L382.57 852H380.682L381.514 844.704H376.81L375.914 852H374.026ZM377.034 842.656H381.802L382.442 837.376H377.674L377.034 842.656ZM399.04 852.448C394.464 852.448 391.712 848.192 391.712 840.544C391.712 832.896 394.464 828.8 399.04 828.8C403.552 828.8 406.304 832.896 406.304 840.544C406.304 848.192 403.552 852.448 399.04 852.448ZM399.04 850.08C401.696 850.08 403.488 847.232 403.488 840.544C403.488 833.824 401.696 831.136 399.04 831.136C396.352 831.136 394.528 833.824 394.528 840.544C394.528 847.232 396.352 850.08 399.04 850.08ZM418.422 852.448C414.102 852.448 410.934 849.824 410.934 846.208C410.934 843.2 413.11 841.152 415.254 840.032V839.904C413.558 838.72 412.054 837.024 412.054 834.624C412.054 831.104 414.838 828.8 418.518 828.8C422.518 828.8 424.95 831.296 424.95 834.848C424.95 837.248 423.19 839.264 421.814 840.32V840.48C423.83 841.696 425.782 843.296 425.782 846.368C425.782 849.792 422.806 852.448 418.422 852.448ZM420.022 839.584C421.59 838.176 422.454 836.672 422.454 834.976C422.454 832.736 420.982 830.944 418.454 830.944C416.31 830.944 414.742 832.416 414.742 834.624C414.742 837.344 417.27 838.496 420.022 839.584ZM418.486 850.24C421.174 850.24 422.966 848.608 422.966 846.272C422.966 843.296 420.086 842.272 416.79 840.928C414.902 842.144 413.558 843.808 413.558 845.92C413.558 848.416 415.67 850.24 418.486 850.24ZM431.66 852V849.568H436.876V832.768H432.684V830.88C434.796 830.496 436.3 829.952 437.548 829.216H439.788V849.568H444.524V852H431.66ZM451.394 852V828.544H464.898V831.04H454.37V839.008H463.298V841.472H454.37V852H451.394ZM475.802 852.448C472.154 852.448 469.914 850.912 468.314 849.312L469.786 847.392C471.098 848.768 472.826 850.016 475.514 850.016C478.298 850.016 480.506 848 480.506 844.8C480.506 841.664 478.586 839.776 475.674 839.776C474.106 839.776 473.114 840.288 471.77 841.184L470.202 840.192L470.938 829.216H482.362V831.712H473.498L472.89 838.496C473.946 837.92 475.002 837.568 476.41 837.568C480.314 837.568 483.482 839.776 483.482 844.704C483.482 849.664 479.738 852.448 475.802 852.448ZM498.864 852.448C493.008 852.448 488.656 847.904 488.656 840.288C488.656 832.736 493.104 828.128 499.056 828.128C501.904 828.128 504.112 829.504 505.488 831.008L503.856 832.928C502.64 831.616 501.072 830.72 499.088 830.72C494.64 830.72 491.696 834.368 491.696 840.224C491.696 846.144 494.512 849.824 498.992 849.824C501.2 849.824 502.928 848.864 504.432 847.2L506.032 849.056C504.176 851.232 501.904 852.448 498.864 852.448Z" fill="#212121"/>
<rect x="712" y="512" width="198" height="198" rx="99" fill="#F4F5F9" stroke="#081F5C" stroke-width="2"/>
<path d="M667.052 779.504C663.38 779.504 660.032 778.064 657.62 775.616L660.068 772.7C661.94 774.608 664.568 775.832 667.124 775.832C670.292 775.832 672.092 774.356 672.092 772.088C672.092 769.676 670.292 768.92 667.844 767.876L664.172 766.256C661.616 765.212 658.808 763.196 658.808 759.344C658.808 755.168 662.444 752.036 667.484 752.036C670.616 752.036 673.532 753.332 675.512 755.384L673.352 758.012C671.696 756.572 669.824 755.672 667.484 755.672C664.784 755.672 663.056 756.968 663.056 759.056C663.056 761.324 665.18 762.188 667.34 763.088L670.976 764.6C674.108 765.932 676.376 767.876 676.376 771.764C676.376 776.012 672.848 779.504 667.052 779.504ZM691.078 779.504C685.678 779.504 681.43 775.652 681.43 769.136C681.43 762.692 685.858 758.696 690.466 758.696C695.686 758.696 698.53 762.476 698.53 768.092C698.53 768.92 698.458 769.712 698.35 770.216H685.498C685.822 773.996 688.198 776.228 691.618 776.228C693.382 776.228 694.858 775.688 696.334 774.752L697.774 777.416C695.938 778.64 693.67 779.504 691.078 779.504ZM685.426 767.336H694.93C694.93 763.916 693.418 761.972 690.538 761.972C688.054 761.972 685.858 763.88 685.426 767.336ZM713.053 779.504C707.725 779.504 703.621 775.688 703.621 769.136C703.621 762.512 708.193 758.696 713.413 758.696C715.933 758.696 717.769 759.704 719.173 761L717.157 763.664C716.077 762.728 714.961 762.152 713.629 762.152C710.245 762.152 707.905 764.924 707.905 769.136C707.905 773.312 710.173 776.084 713.485 776.084C715.141 776.084 716.617 775.292 717.805 774.284L719.497 777.056C717.697 778.64 715.357 779.504 713.053 779.504ZM732.253 779.504C727.321 779.504 722.929 775.688 722.929 769.136C722.929 762.512 727.321 758.696 732.253 758.696C737.149 758.696 741.577 762.512 741.577 769.136C741.577 775.688 737.149 779.504 732.253 779.504ZM732.253 776.084C735.349 776.084 737.329 773.312 737.329 769.136C737.329 764.924 735.349 762.152 732.253 762.152C729.121 762.152 727.213 764.924 727.213 769.136C727.213 773.312 729.121 776.084 732.253 776.084ZM748.245 779V759.2H751.629L751.989 761.972H752.097C753.897 760.172 755.949 758.696 758.649 758.696C762.861 758.696 764.733 761.54 764.733 766.544V779H760.557V767.084C760.557 763.628 759.549 762.296 757.245 762.296C755.409 762.296 754.149 763.232 752.421 764.96V779H748.245ZM779.35 779.504C774.382 779.504 771.214 775.688 771.214 769.136C771.214 762.692 775.282 758.696 779.674 758.696C781.942 758.696 783.418 759.56 785.002 760.928L784.822 757.652V750.344H788.998V779H785.578L785.254 776.804H785.146C783.634 778.316 781.582 779.504 779.35 779.504ZM780.358 776.048C781.978 776.048 783.418 775.292 784.822 773.636V763.988C783.382 762.656 781.978 762.152 780.502 762.152C777.73 762.152 775.498 764.816 775.498 769.064C775.498 773.564 777.262 776.048 780.358 776.048ZM801.666 779.504C798.282 779.504 795.87 777.236 795.87 773.744C795.87 769.496 799.47 767.3 807.678 766.4C807.642 764.096 806.814 762.08 803.934 762.08C801.846 762.08 799.866 763.052 798.21 764.132L796.662 761.288C798.678 760.028 801.486 758.696 804.654 758.696C809.586 758.696 811.854 761.828 811.854 767.12V779H808.434L808.11 776.768H807.966C806.166 778.316 804.042 779.504 801.666 779.504ZM802.962 776.192C804.69 776.192 806.058 775.4 807.678 773.888V769.064C801.81 769.748 799.866 771.224 799.866 773.456C799.866 775.4 801.198 776.192 802.962 776.192ZM819.493 779V759.2H822.877L823.237 762.764H823.345C824.749 760.208 826.837 758.696 828.961 758.696C829.933 758.696 830.545 758.84 831.157 759.128L830.437 762.728C829.753 762.512 829.249 762.404 828.421 762.404C826.837 762.404 824.893 763.556 823.669 766.688V779H819.493ZM837.627 787.28C836.619 787.28 835.827 787.136 835.143 786.884L835.935 783.644C836.295 783.788 836.871 783.932 837.375 783.932C839.499 783.932 840.795 782.348 841.515 780.224L841.911 778.856L834.063 759.2H838.311L841.947 769.388C842.559 771.152 843.135 773.132 843.783 775.004H843.963C844.431 773.168 844.971 771.224 845.475 769.388L848.679 759.2H852.711L845.439 780.224C843.891 784.436 841.803 787.28 837.627 787.28ZM878.651 779.504C872.027 779.504 866.879 774.536 866.879 765.824C866.879 757.184 872.171 752.036 878.867 752.036C882.179 752.036 884.735 753.62 886.355 755.348L884.123 758.048C882.755 756.644 881.099 755.672 878.939 755.672C874.367 755.672 871.199 759.488 871.199 765.68C871.199 771.98 874.151 775.832 878.831 775.832C881.243 775.832 883.115 774.752 884.663 773.024L886.931 775.652C884.807 778.136 882.107 779.504 878.651 779.504ZM900.989 779.504C896.057 779.504 891.665 775.688 891.665 769.136C891.665 762.512 896.057 758.696 900.989 758.696C905.885 758.696 910.313 762.512 910.313 769.136C910.313 775.688 905.885 779.504 900.989 779.504ZM900.989 776.084C904.085 776.084 906.065 773.312 906.065 769.136C906.065 764.924 904.085 762.152 900.989 762.152C897.857 762.152 895.949 764.924 895.949 769.136C895.949 773.312 897.857 776.084 900.989 776.084ZM921.121 779.504C918.097 779.504 916.981 777.56 916.981 774.356V750.344H921.157V774.572C921.157 775.688 921.625 776.084 922.129 776.084C922.309 776.084 922.453 776.084 922.813 776.012L923.353 779.144C922.813 779.324 922.165 779.504 921.121 779.504ZM937.46 779.504C932.528 779.504 928.136 775.688 928.136 769.136C928.136 762.512 932.528 758.696 937.46 758.696C942.356 758.696 946.784 762.512 946.784 769.136C946.784 775.688 942.356 779.504 937.46 779.504ZM937.46 776.084C940.556 776.084 942.536 773.312 942.536 769.136C942.536 764.924 940.556 762.152 937.46 762.152C934.328 762.152 932.42 764.924 932.42 769.136C932.42 773.312 934.328 776.084 937.46 776.084ZM953.452 779V759.2H956.836L957.196 762.764H957.304C958.708 760.208 960.796 758.696 962.92 758.696C963.892 758.696 964.504 758.84 965.116 759.128L964.396 762.728C963.712 762.512 963.208 762.404 962.38 762.404C960.796 762.404 958.852 763.556 957.628 766.688V779H953.452Z" fill="#212121"/>
<path d="M757.091 852V828.544H770.595V831.04H760.067V839.008H768.995V841.472H760.067V852H757.091ZM783.995 852V836.704C783.995 835.52 784.091 833.536 784.187 832.352H784.027C783.451 833.408 782.811 834.432 782.171 835.552L776.827 843.392H789.883V845.696H773.755V843.776L783.515 829.216H786.747V852H783.995ZM795.697 852V828.544H809.201V831.04H798.673V839.008H807.601V841.472H798.673V852H795.697ZM820.105 852.448C816.457 852.448 814.217 850.912 812.617 849.312L814.089 847.392C815.401 848.768 817.129 850.016 819.817 850.016C822.601 850.016 824.809 848 824.809 844.8C824.809 841.664 822.889 839.776 819.977 839.776C818.409 839.776 817.417 840.288 816.073 841.184L814.505 840.192L815.241 829.216H826.665V831.712H817.801L817.193 838.496C818.249 837.92 819.305 837.568 820.713 837.568C824.617 837.568 827.785 839.776 827.785 844.704C827.785 849.664 824.041 852.448 820.105 852.448ZM834.303 852V828.544H847.807V831.04H837.279V839.008H846.207V841.472H837.279V852H834.303ZM857.687 852.448C855.223 852.448 853.431 851.424 852.183 850.048L853.815 848.192C854.743 849.344 856.151 850.016 857.559 850.016C860.855 850.016 863.607 847.424 863.607 839.744C863.607 834.112 861.783 831.072 858.487 831.072C856.247 831.072 854.519 833.056 854.519 836.096C854.519 839.072 855.927 840.96 858.743 840.96C860.247 840.96 862.103 840.064 863.639 837.696L863.799 840.032C862.327 841.952 860.183 843.136 858.263 843.136C854.295 843.136 851.767 840.768 851.767 836.096C851.767 831.744 854.839 828.8 858.487 828.8C862.999 828.8 866.359 832.416 866.359 839.744C866.359 848.928 862.199 852.448 857.687 852.448Z" fill="#212121"/>
<rect x="1064" y="511" width="200" height="200" rx="100" fill="#DFE6EC"/>
<path d="M1046 779L1054.75 752.504H1059.61L1068.36 779H1063.93L1059.68 764.636C1058.78 761.756 1057.99 758.768 1057.16 755.816H1057.02C1056.22 758.804 1055.43 761.756 1054.53 764.636L1050.25 779H1046ZM1050.93 771.476V768.2H1063.32V771.476H1050.93ZM1081.35 779.504C1076.03 779.504 1071.92 775.688 1071.92 769.136C1071.92 762.512 1076.49 758.696 1081.71 758.696C1084.23 758.696 1086.07 759.704 1087.47 761L1085.46 763.664C1084.38 762.728 1083.26 762.152 1081.93 762.152C1078.55 762.152 1076.21 764.924 1076.21 769.136C1076.21 773.312 1078.47 776.084 1081.79 776.084C1083.44 776.084 1084.92 775.292 1086.11 774.284L1087.8 777.056C1086 778.64 1083.66 779.504 1081.35 779.504ZM1100.66 779.504C1095.33 779.504 1091.23 775.688 1091.23 769.136C1091.23 762.512 1095.8 758.696 1101.02 758.696C1103.54 758.696 1105.38 759.704 1106.78 761L1104.77 763.664C1103.69 762.728 1102.57 762.152 1101.24 762.152C1097.85 762.152 1095.51 764.924 1095.51 769.136C1095.51 773.312 1097.78 776.084 1101.09 776.084C1102.75 776.084 1104.23 775.292 1105.41 774.284L1107.11 777.056C1105.31 778.64 1102.97 779.504 1100.66 779.504ZM1120.19 779.504C1114.79 779.504 1110.54 775.652 1110.54 769.136C1110.54 762.692 1114.97 758.696 1119.57 758.696C1124.79 758.696 1127.64 762.476 1127.64 768.092C1127.64 768.92 1127.57 769.712 1127.46 770.216H1114.61C1114.93 773.996 1117.31 776.228 1120.73 776.228C1122.49 776.228 1123.97 775.688 1125.44 774.752L1126.88 777.416C1125.05 778.64 1122.78 779.504 1120.19 779.504ZM1114.53 767.336H1124.04C1124.04 763.916 1122.53 761.972 1119.65 761.972C1117.16 761.972 1114.97 763.88 1114.53 767.336ZM1134.1 779V759.2H1137.48L1137.84 761.972H1137.95C1139.75 760.172 1141.8 758.696 1144.5 758.696C1148.71 758.696 1150.58 761.54 1150.58 766.544V779H1146.41V767.084C1146.41 763.628 1145.4 762.296 1143.1 762.296C1141.26 762.296 1140 763.232 1138.27 764.96V779H1134.1ZM1165.02 779.504C1160.59 779.504 1159.01 776.696 1159.01 772.556V762.512H1156.13V759.416L1159.23 759.2L1159.69 753.728H1163.15V759.2H1168.33V762.512H1163.15V772.592C1163.15 774.932 1164.01 776.192 1166.07 776.192C1166.75 776.192 1167.58 775.94 1168.19 775.688L1168.95 778.748C1167.83 779.108 1166.5 779.504 1165.02 779.504ZM1195.01 779.504C1188.39 779.504 1183.24 774.536 1183.24 765.824C1183.24 757.184 1188.53 752.036 1195.23 752.036C1198.54 752.036 1201.1 753.62 1202.72 755.348L1200.49 758.048C1199.12 756.644 1197.46 755.672 1195.3 755.672C1190.73 755.672 1187.56 759.488 1187.56 765.68C1187.56 771.98 1190.51 775.832 1195.19 775.832C1197.61 775.832 1199.48 774.752 1201.03 773.024L1203.29 775.652C1201.17 778.136 1198.47 779.504 1195.01 779.504ZM1217.35 779.504C1212.42 779.504 1208.03 775.688 1208.03 769.136C1208.03 762.512 1212.42 758.696 1217.35 758.696C1222.25 758.696 1226.67 762.512 1226.67 769.136C1226.67 775.688 1222.25 779.504 1217.35 779.504ZM1217.35 776.084C1220.45 776.084 1222.43 773.312 1222.43 769.136C1222.43 764.924 1220.45 762.152 1217.35 762.152C1214.22 762.152 1212.31 764.924 1212.31 769.136C1212.31 773.312 1214.22 776.084 1217.35 776.084ZM1237.48 779.504C1234.46 779.504 1233.34 777.56 1233.34 774.356V750.344H1237.52V774.572C1237.52 775.688 1237.99 776.084 1238.49 776.084C1238.67 776.084 1238.81 776.084 1239.17 776.012L1239.71 779.144C1239.17 779.324 1238.53 779.504 1237.48 779.504ZM1253.82 779.504C1248.89 779.504 1244.5 775.688 1244.5 769.136C1244.5 762.512 1248.89 758.696 1253.82 758.696C1258.72 758.696 1263.15 762.512 1263.15 769.136C1263.15 775.688 1258.72 779.504 1253.82 779.504ZM1253.82 776.084C1256.92 776.084 1258.9 773.312 1258.9 769.136C1258.9 764.924 1256.92 762.152 1253.82 762.152C1250.69 762.152 1248.78 764.924 1248.78 769.136C1248.78 773.312 1250.69 776.084 1253.82 776.084ZM1269.81 779V759.2H1273.2L1273.56 762.764H1273.67C1275.07 760.208 1277.16 758.696 1279.28 758.696C1280.25 758.696 1280.87 758.84 1281.48 759.128L1280.76 762.728C1280.07 762.512 1279.57 762.404 1278.74 762.404C1277.16 762.404 1275.21 763.556 1273.99 766.688V779H1269.81Z" fill="#212121"/>
<path d="M1095.79 852L1096.66 844.704H1093.81V842.656H1096.91L1097.58 837.376H1094.54V835.328H1097.81L1098.64 828.768H1100.53L1099.7 835.328H1104.43L1105.3 828.768H1107.18L1106.35 835.328H1109.23V837.376H1106.13L1105.46 842.656H1108.53V844.704H1105.2L1104.34 852H1102.45L1103.28 844.704H1098.58L1097.68 852H1095.79ZM1098.8 842.656H1103.57L1104.21 837.376H1099.44L1098.8 842.656ZM1115.11 852V828.544H1120.97C1128.2 828.544 1132.04 832.736 1132.04 840.192C1132.04 847.648 1128.2 852 1121.13 852H1115.11ZM1118.09 849.568H1120.74C1126.25 849.568 1129 846.144 1129 840.192C1129 834.24 1126.25 830.976 1120.74 830.976H1118.09V849.568ZM1138.74 852V828.544H1152.24V831.04H1141.72V839.008H1150.64V841.472H1141.72V852H1138.74ZM1158 852V828.544H1171.5V831.04H1160.97V838.4H1169.84V840.928H1160.97V849.504H1171.85V852H1158ZM1184.84 852.448C1180.33 852.448 1176.94 848.8 1176.94 841.472C1176.94 832.288 1181.1 828.8 1185.64 828.8C1188.07 828.8 1189.86 829.824 1191.11 831.168L1189.51 832.992C1188.58 831.904 1187.18 831.232 1185.74 831.232C1182.47 831.232 1179.72 833.792 1179.72 841.472C1179.72 847.104 1181.51 850.144 1184.81 850.144C1187.08 850.144 1188.81 848.128 1188.81 845.12C1188.81 842.144 1187.4 840.256 1184.55 840.256C1183.08 840.256 1181.22 841.152 1179.62 843.52L1179.53 841.184C1181 839.264 1183.11 838.08 1185.03 838.08C1188.97 838.08 1191.56 840.448 1191.56 845.12C1191.56 849.504 1188.46 852.448 1184.84 852.448ZM1197.79 852V828.544H1211.29V831.04H1200.77V838.4H1209.63V840.928H1200.77V849.504H1211.65V852H1197.79ZM1227.1 852.448C1221.24 852.448 1216.89 847.904 1216.89 840.288C1216.89 832.736 1221.34 828.128 1227.29 828.128C1230.14 828.128 1232.35 829.504 1233.72 831.008L1232.09 832.928C1230.87 831.616 1229.31 830.72 1227.32 830.72C1222.87 830.72 1219.93 834.368 1219.93 840.224C1219.93 846.144 1222.75 849.824 1227.23 849.824C1229.43 849.824 1231.16 848.864 1232.67 847.2L1234.27 849.056C1232.41 851.232 1230.14 852.448 1227.1 852.448Z" fill="#212121"/>
<path d="M1382 779L1390.75 752.504H1395.61L1404.36 779H1399.93L1395.68 764.636C1394.78 761.756 1393.99 758.768 1393.16 755.816H1393.02C1392.22 758.804 1391.43 761.756 1390.53 764.636L1386.25 779H1382ZM1386.93 771.476V768.2H1399.32V771.476H1386.93ZM1417.35 779.504C1412.03 779.504 1407.92 775.688 1407.92 769.136C1407.92 762.512 1412.49 758.696 1417.71 758.696C1420.23 758.696 1422.07 759.704 1423.47 761L1421.46 763.664C1420.38 762.728 1419.26 762.152 1417.93 762.152C1414.55 762.152 1412.21 764.924 1412.21 769.136C1412.21 773.312 1414.47 776.084 1417.79 776.084C1419.44 776.084 1420.92 775.292 1422.11 774.284L1423.8 777.056C1422 778.64 1419.66 779.504 1417.35 779.504ZM1436.66 779.504C1431.33 779.504 1427.23 775.688 1427.23 769.136C1427.23 762.512 1431.8 758.696 1437.02 758.696C1439.54 758.696 1441.38 759.704 1442.78 761L1440.77 763.664C1439.69 762.728 1438.57 762.152 1437.24 762.152C1433.85 762.152 1431.51 764.924 1431.51 769.136C1431.51 773.312 1433.78 776.084 1437.09 776.084C1438.75 776.084 1440.23 775.292 1441.41 774.284L1443.11 777.056C1441.31 778.64 1438.97 779.504 1436.66 779.504ZM1456.19 779.504C1450.79 779.504 1446.54 775.652 1446.54 769.136C1446.54 762.692 1450.97 758.696 1455.57 758.696C1460.79 758.696 1463.64 762.476 1463.64 768.092C1463.64 768.92 1463.57 769.712 1463.46 770.216H1450.61C1450.93 773.996 1453.31 776.228 1456.73 776.228C1458.49 776.228 1459.97 775.688 1461.44 774.752L1462.88 777.416C1461.05 778.64 1458.78 779.504 1456.19 779.504ZM1450.53 767.336H1460.04C1460.04 763.916 1458.53 761.972 1455.65 761.972C1453.16 761.972 1450.97 763.88 1450.53 767.336ZM1470.1 779V759.2H1473.48L1473.84 761.972H1473.95C1475.75 760.172 1477.8 758.696 1480.5 758.696C1484.71 758.696 1486.58 761.54 1486.58 766.544V779H1482.41V767.084C1482.41 763.628 1481.4 762.296 1479.1 762.296C1477.26 762.296 1476 763.232 1474.27 764.96V779H1470.1ZM1501.02 779.504C1496.59 779.504 1495.01 776.696 1495.01 772.556V762.512H1492.13V759.416L1495.23 759.2L1495.69 753.728H1499.15V759.2H1504.33V762.512H1499.15V772.592C1499.15 774.932 1500.01 776.192 1502.07 776.192C1502.75 776.192 1503.58 775.94 1504.19 775.688L1504.95 778.748C1503.83 779.108 1502.5 779.504 1501.02 779.504ZM1531.01 779.504C1524.39 779.504 1519.24 774.536 1519.24 765.824C1519.24 757.184 1524.53 752.036 1531.23 752.036C1534.54 752.036 1537.1 753.62 1538.72 755.348L1536.49 758.048C1535.12 756.644 1533.46 755.672 1531.3 755.672C1526.73 755.672 1523.56 759.488 1523.56 765.68C1523.56 771.98 1526.51 775.832 1531.19 775.832C1533.61 775.832 1535.48 774.752 1537.03 773.024L1539.29 775.652C1537.17 778.136 1534.47 779.504 1531.01 779.504ZM1553.35 779.504C1548.42 779.504 1544.03 775.688 1544.03 769.136C1544.03 762.512 1548.42 758.696 1553.35 758.696C1558.25 758.696 1562.67 762.512 1562.67 769.136C1562.67 775.688 1558.25 779.504 1553.35 779.504ZM1553.35 776.084C1556.45 776.084 1558.43 773.312 1558.43 769.136C1558.43 764.924 1556.45 762.152 1553.35 762.152C1550.22 762.152 1548.31 764.924 1548.31 769.136C1548.31 773.312 1550.22 776.084 1553.35 776.084ZM1573.48 779.504C1570.46 779.504 1569.34 777.56 1569.34 774.356V750.344H1573.52V774.572C1573.52 775.688 1573.99 776.084 1574.49 776.084C1574.67 776.084 1574.81 776.084 1575.17 776.012L1575.71 779.144C1575.17 779.324 1574.53 779.504 1573.48 779.504ZM1589.82 779.504C1584.89 779.504 1580.5 775.688 1580.5 769.136C1580.5 762.512 1584.89 758.696 1589.82 758.696C1594.72 758.696 1599.15 762.512 1599.15 769.136C1599.15 775.688 1594.72 779.504 1589.82 779.504ZM1589.82 776.084C1592.92 776.084 1594.9 773.312 1594.9 769.136C1594.9 764.924 1592.92 762.152 1589.82 762.152C1586.69 762.152 1584.78 764.924 1584.78 769.136C1584.78 773.312 1586.69 776.084 1589.82 776.084ZM1605.81 779V759.2H1609.2L1609.56 762.764H1609.67C1611.07 760.208 1613.16 758.696 1615.28 758.696C1616.25 758.696 1616.87 758.84 1617.48 759.128L1616.76 762.728C1616.07 762.512 1615.57 762.404 1614.74 762.404C1613.16 762.404 1611.21 763.556 1609.99 766.688V779H1605.81Z" fill="#212121"/>
<path d="M1429.85 852L1430.71 844.704H1427.87V842.656H1430.97L1431.64 837.376H1428.6V835.328H1431.87L1432.7 828.768H1434.59L1433.75 835.328H1438.49L1439.35 828.768H1441.24L1440.41 835.328H1443.29V837.376H1440.19L1439.51 842.656H1442.59V844.704H1439.26L1438.39 852H1436.51L1437.34 844.704H1432.63L1431.74 852H1429.85ZM1432.86 842.656H1437.63L1438.27 837.376H1433.5L1432.86 842.656ZM1449.17 852V828.544H1462.67V831.04H1452.14V838.4H1461.01V840.928H1452.14V849.504H1463.02V852H1449.17ZM1469.61 852V828.544H1475.47C1482.7 828.544 1486.54 832.736 1486.54 840.192C1486.54 847.648 1482.7 852 1475.63 852H1469.61ZM1472.59 849.568H1475.24C1480.75 849.568 1483.5 846.144 1483.5 840.192C1483.5 834.24 1480.75 830.976 1475.24 830.976H1472.59V849.568ZM1493.24 852V828.544H1500.19C1504.96 828.544 1508.25 830.176 1508.25 834.304C1508.25 836.608 1507.04 838.656 1504.83 839.392V839.52C1507.64 840.064 1509.6 841.952 1509.6 845.152C1509.6 849.728 1505.95 852 1500.73 852H1493.24ZM1496.22 838.528H1499.68C1503.71 838.528 1505.34 837.056 1505.34 834.656C1505.34 831.904 1503.48 830.88 1499.84 830.88H1496.22V838.528ZM1496.22 849.664H1500.32C1504.32 849.664 1506.72 848.224 1506.72 845.056C1506.72 842.144 1504.41 840.8 1500.32 840.8H1496.22V849.664ZM1520 852.448C1517.54 852.448 1515.75 851.424 1514.5 850.048L1516.13 848.192C1517.06 849.344 1518.47 850.016 1519.88 850.016C1523.17 850.016 1525.92 847.424 1525.92 839.744C1525.92 834.112 1524.1 831.072 1520.8 831.072C1518.56 831.072 1516.84 833.056 1516.84 836.096C1516.84 839.072 1518.24 840.96 1521.06 840.96C1522.56 840.96 1524.42 840.064 1525.96 837.696L1526.12 840.032C1524.64 841.952 1522.5 843.136 1520.58 843.136C1516.61 843.136 1514.08 840.768 1514.08 836.096C1514.08 831.744 1517.16 828.8 1520.8 828.8C1525.32 828.8 1528.68 832.416 1528.68 839.744C1528.68 848.928 1524.52 852.448 1520 852.448ZM1544.09 852.448C1538.23 852.448 1533.88 847.904 1533.88 840.288C1533.88 832.736 1538.33 828.128 1544.28 828.128C1547.13 828.128 1549.34 829.504 1550.71 831.008L1549.08 832.928C1547.86 831.616 1546.3 830.72 1544.31 830.72C1539.86 830.72 1536.92 834.368 1536.92 840.224C1536.92 846.144 1539.74 849.824 1544.22 849.824C1546.42 849.824 1548.15 848.864 1549.66 847.2L1551.26 849.056C1549.4 851.232 1547.13 852.448 1544.09 852.448ZM1556.85 852V849.568H1562.06V832.768H1557.87V830.88C1559.98 830.496 1561.49 829.952 1562.74 829.216H1564.98V849.568H1569.71V852H1556.85ZM1434.12 898L1434.98 890.704H1432.14V888.656H1435.24L1435.91 883.376H1432.87V881.328H1436.14L1436.97 874.768H1438.86L1438.02 881.328H1442.76L1443.62 874.768H1445.51L1444.68 881.328H1447.56V883.376H1444.46L1443.78 888.656H1446.86V890.704H1443.53L1442.66 898H1440.78L1441.61 890.704H1436.9L1436.01 898H1434.12ZM1437.13 888.656H1441.9L1442.54 883.376H1437.77L1437.13 888.656ZM1459.17 898.448C1454.85 898.448 1451.68 895.824 1451.68 892.208C1451.68 889.2 1453.85 887.152 1456 886.032V885.904C1454.3 884.72 1452.8 883.024 1452.8 880.624C1452.8 877.104 1455.58 874.8 1459.26 874.8C1463.26 874.8 1465.69 877.296 1465.69 880.848C1465.69 883.248 1463.93 885.264 1462.56 886.32V886.48C1464.57 887.696 1466.53 889.296 1466.53 892.368C1466.53 895.792 1463.55 898.448 1459.17 898.448ZM1460.77 885.584C1462.33 884.176 1463.2 882.672 1463.2 880.976C1463.2 878.736 1461.73 876.944 1459.2 876.944C1457.05 876.944 1455.49 878.416 1455.49 880.624C1455.49 883.344 1458.01 884.496 1460.77 885.584ZM1459.23 896.24C1461.92 896.24 1463.71 894.608 1463.71 892.272C1463.71 889.296 1460.83 888.272 1457.53 886.928C1455.65 888.144 1454.3 889.808 1454.3 891.92C1454.3 894.416 1456.41 896.24 1459.23 896.24ZM1472.79 898V874.544H1486.29V877.04H1475.76V884.4H1484.63V886.928H1475.76V895.504H1486.64V898H1472.79ZM1496.34 898C1496.75 889.424 1498.48 883.952 1502.96 877.712H1491.6V875.216H1506.26V877.008C1500.88 883.888 1499.76 889.104 1499.38 898H1496.34ZM1517.73 898.448C1514.09 898.448 1511.85 896.912 1510.25 895.312L1511.72 893.392C1513.03 894.768 1514.76 896.016 1517.45 896.016C1520.23 896.016 1522.44 894 1522.44 890.8C1522.44 887.664 1520.52 885.776 1517.61 885.776C1516.04 885.776 1515.05 886.288 1513.7 887.184L1512.13 886.192L1512.87 875.216H1524.29V877.712H1515.43L1514.82 884.496C1515.88 883.92 1516.93 883.568 1518.34 883.568C1522.25 883.568 1525.41 885.776 1525.41 890.704C1525.41 895.664 1521.67 898.448 1517.73 898.448ZM1531.93 898V874.544H1538.88C1543.64 874.544 1546.94 876.176 1546.94 880.304C1546.94 882.608 1545.72 884.656 1543.52 885.392V885.52C1546.33 886.064 1548.28 887.952 1548.28 891.152C1548.28 895.728 1544.64 898 1539.42 898H1531.93ZM1534.91 884.528H1538.36C1542.4 884.528 1544.03 883.056 1544.03 880.656C1544.03 877.904 1542.17 876.88 1538.52 876.88H1534.91V884.528ZM1534.91 895.664H1539C1543 895.664 1545.4 894.224 1545.4 891.056C1545.4 888.144 1543.1 886.8 1539 886.8H1534.91V895.664ZM1560.26 898.448C1555.68 898.448 1552.93 894.192 1552.93 886.544C1552.93 878.896 1555.68 874.8 1560.26 874.8C1564.77 874.8 1567.52 878.896 1567.52 886.544C1567.52 894.192 1564.77 898.448 1560.26 898.448ZM1560.26 896.08C1562.91 896.08 1564.71 893.232 1564.71 886.544C1564.71 879.824 1562.91 877.136 1560.26 877.136C1557.57 877.136 1555.75 879.824 1555.75 886.544C1555.75 893.232 1557.57 896.08 1560.26 896.08Z" fill="#212121"/>
<circle cx="1500" cy="611" r="100" fill="url(#paint0_linear_79_683)"/>
<defs>
<linearGradient id="paint0_linear_79_683" x1="1500" y1="511" x2="1500" y2="711" gradientUnits="userSpaceOnUse">
<stop stop-color="#EDB9C1"/>
<stop offset="1" stop-color="#8E75B0"/>
</linearGradient>
</defs>
</svg>
